<svg width="22" height="19" viewBox="0 0 22 19" fill="none" xmlns="http://www.w3.org/2000/svg">
<path d="M11.1383 4.67062L11.0456 4.6429C10.8471 4.58358 10.7343 4.37462 10.7934 4.17607L11.1383 4.67062ZM11.1383 4.67062L11.1487 4.65868M11.1383 4.67062L11.1487 4.65868M11.1487 4.65868C11.3125 4.66066 11.4636 4.55402 11.5121 4.38999C11.8592 3.22095 12.9535 2.4039 14.1717 2.4039C14.379 2.4039 14.5466 2.23545 14.5466 2.02844C14.5466 1.82143 14.379 1.65298 14.1717 1.65298C12.5703 1.65298 11.2253 2.72155 10.7934 4.17602L11.1487 4.65868Z" fill="#F97D09" stroke="#F9FFF9" stroke-width="0.3"/>
<path d="M17.3214 13.0761H15.9717C15.8475 13.0761 15.7468 12.9751 15.7468 12.8506C15.7468 12.7262 15.8475 12.6252 15.9717 12.6252H17.3214C19.1819 12.6252 20.6957 11.108 20.6957 9.24327C20.6957 7.37857 19.1819 5.86137 17.3214 5.86137H17.289C17.2237 5.86137 17.1617 5.83302 17.119 5.78358C17.0762 5.73415 17.0569 5.6686 17.0663 5.60386C17.0863 5.46343 17.0965 5.32236 17.0965 5.18499C17.0965 3.56893 15.7845 2.25399 14.1721 2.25399C13.5448 2.25399 12.9466 2.45046 12.442 2.82231C12.3312 2.90396 12.1737 2.86772 12.1096 2.74549C10.6807 0.0183945 6.94848 -0.347826 5.01354 2.02451C4.19842 3.02394 3.87815 4.32403 4.13479 5.59115C4.16307 5.73109 4.05621 5.86154 3.91434 5.86154H3.82419C1.9637 5.86154 0.449925 7.37874 0.449925 9.24344C0.449925 11.1081 1.9637 12.6253 3.82419 12.6253H5.17389C5.29809 12.6253 5.39884 12.7263 5.39884 12.8508C5.39884 12.9753 5.29809 13.0763 5.17389 13.0763H3.82419C1.71558 13.0763 0 11.3568 0 9.24343C0 7.18933 1.6206 5.50738 3.64761 5.41462C3.4572 4.10001 3.8213 2.77398 4.66518 1.73914C6.73682 -0.800987 10.707 -0.516272 12.3852 2.31616C12.9206 1.97973 13.5333 1.80325 14.172 1.80325C16.1255 1.80325 17.6735 3.46973 17.5381 5.41673C19.5464 5.52962 21.1455 7.20269 21.1455 9.24326C21.1455 11.3568 19.4299 13.0761 17.3213 13.0761L17.3214 13.0761Z" fill="#F97D09"/>
<path d="M4.76797 12.7237C4.76797 15.9143 7.35768 18.5103 10.5418 18.5103C13.726 18.5103 16.3157 15.9142 16.3157 12.7237C16.3157 9.53318 13.726 6.93716 10.5418 6.93716C7.35764 6.93716 4.76797 9.53322 4.76797 12.7237ZM5.51798 12.7237C5.51798 9.94699 7.77213 7.68818 10.5418 7.68818C13.3115 7.68818 15.5657 9.94695 15.5657 12.7237C15.5657 15.5005 13.3115 17.7593 10.5418 17.7593C7.77217 17.7593 5.51798 15.5005 5.51798 12.7237Z" fill="#F97D09" stroke="#F9FFF9" stroke-width="0.3"/>
<path d="M10.3324 14.9919C10.3324 15.1656 10.473 15.3069 10.6471 15.3069C10.8211 15.3069 10.9618 15.1657 10.9618 14.9919V10.7002C10.9618 10.5266 10.8212 10.3852 10.6471 10.3852C10.473 10.3852 10.3324 10.5266 10.3324 10.7002V14.9919Z" fill="#F97D09" stroke="#F97D09" stroke-width="0.3"/>
<path d="M10.6463 11.1461L11.7412 12.2434C11.7412 12.2434 11.7412 12.2434 11.7412 12.2434C11.8025 12.3049 11.8834 12.3358 11.9638 12.3358L10.6463 11.1461ZM10.6463 11.1461L9.55152 12.2433L10.6463 11.1461ZM12.0803 12.1375L12.1866 12.2432C12.125 12.3052 12.0439 12.3358 11.9638 12.3358L12.0803 12.1375ZM12.0803 12.1375C12.0481 12.1698 12.0059 12.1858 11.9638 12.1858L12.0803 12.1375ZM12.0803 12.1375L12.1864 12.2434C12.3092 12.1204 12.3092 11.9211 12.1864 11.7981L10.8689 10.4776C10.7461 10.3544 10.5466 10.3543 10.4236 10.4776M12.0803 12.1375L10.4236 10.4776M10.4236 10.4776C10.4236 10.4776 10.4236 10.4776 10.4235 10.4777L10.4236 10.4776Z" fill="#F97D09" stroke="#F97D09" stroke-width="0.3"/>
</svg>
