<svg width="19" height="19" viewBox="0 0 19 19" fill="none" xmlns="http://www.w3.org/2000/svg">
<g clip-path="url(#clip0_1054_4202)">
<path d="M9.5 17.8125C7.29539 17.8125 5.18107 16.9367 3.62217 15.3778C2.06328 13.8189 1.1875 11.7046 1.1875 9.5C1.1875 7.29539 2.06328 5.18107 3.62217 3.62217C5.18107 2.06328 7.29539 1.1875 9.5 1.1875C11.7046 1.1875 13.8189 2.06328 15.3778 3.62217C16.9367 5.18107 17.8125 7.29539 17.8125 9.5C17.8125 11.7046 16.9367 13.8189 15.3778 15.3778C13.8189 16.9367 11.7046 17.8125 9.5 17.8125ZM9.5 19C12.0196 19 14.4359 17.9991 16.2175 16.2175C17.9991 14.4359 19 12.0196 19 9.5C19 6.98044 17.9991 4.56408 16.2175 2.78249C14.4359 1.00089 12.0196 0 9.5 0C6.98044 0 4.56408 1.00089 2.78249 2.78249C1.00089 4.56408 0 6.98044 0 9.5C0 12.0196 1.00089 14.4359 2.78249 16.2175C4.56408 17.9991 6.98044 19 9.5 19Z" fill="#F7525A"/>
<path d="M8.31494 13.0626C8.31494 12.9066 8.34566 12.7522 8.40533 12.6081C8.46501 12.4641 8.55248 12.3332 8.66275 12.2229C8.77302 12.1126 8.90393 12.0251 9.048 11.9655C9.19208 11.9058 9.3465 11.8751 9.50244 11.8751C9.65839 11.8751 9.8128 11.9058 9.95688 11.9655C10.101 12.0251 10.2319 12.1126 10.3421 12.2229C10.4524 12.3332 10.5399 12.4641 10.5995 12.6081C10.6592 12.7522 10.6899 12.9066 10.6899 13.0626C10.6899 13.3775 10.5648 13.6796 10.3421 13.9023C10.1194 14.125 9.81739 14.2501 9.50244 14.2501C9.1875 14.2501 8.88545 14.125 8.66275 13.9023C8.44005 13.6796 8.31494 13.3775 8.31494 13.0626ZM8.43132 5.93164C8.4155 5.78183 8.43136 5.63036 8.47787 5.48707C8.52437 5.34379 8.60048 5.21187 8.70126 5.0999C8.80203 4.98793 8.92523 4.89839 9.06284 4.8371C9.20046 4.77581 9.34942 4.74414 9.50007 4.74414C9.65071 4.74414 9.79968 4.77581 9.93729 4.8371C10.0749 4.89839 10.1981 4.98793 10.2989 5.0999C10.3997 5.21187 10.4758 5.34379 10.5223 5.48707C10.5688 5.63036 10.5846 5.78183 10.5688 5.93164L10.1532 10.0962C10.1392 10.2598 10.0644 10.4122 9.94343 10.5233C9.82248 10.6343 9.66427 10.696 9.50007 10.696C9.33587 10.696 9.17765 10.6343 9.05671 10.5233C8.93576 10.4122 8.86091 10.2598 8.84694 10.0962L8.43132 5.93164Z" fill="#F7525A"/>
</g>
<defs>
<clipPath id="clip0_1054_4202">
<rect width="19" height="19" fill="white"/>
</clipPath>
</defs>
</svg>
