<svg width="20" height="18" viewBox="0 0 20 18" fill="none" xmlns="http://www.w3.org/2000/svg">
<path d="M19.5589 2.44977L19.873 1.87977C20.0042 1.64164 20.0352 1.36696 19.9592 1.10538C19.8833 0.844761 19.7108 0.628183 19.4736 0.496926L18.8014 0.126603C18.5633 -0.00464909 18.2886 -0.0346493 18.027 0.0403513C17.7664 0.11629 17.5498 0.288801 17.4186 0.526907L17.1045 1.09691L19.5589 2.44977Z" fill="#6B7280"/>
<path d="M16.0986 10.2894L14.3445 11.0807C14.1832 11.1538 14.0098 11.1913 13.8307 11.1913C13.8307 11.1913 13.7848 11.1904 13.7679 11.1894C13.5786 11.1791 13.392 11.1266 13.227 11.0357C12.8839 10.8463 12.6467 10.5032 12.5923 10.116L12.4357 9.0013H2.99982C2.72421 9.0013 2.50014 8.77817 2.50014 8.50162C2.50014 8.22506 2.7242 8.00193 2.99982 8.00193H12.3141C12.3197 7.80693 12.3703 7.61661 12.4669 7.44131L12.9853 6.50192L3.00005 6.50098C2.72443 6.50098 2.50036 6.27786 2.50036 6.0013C2.50036 5.72474 2.72442 5.50162 3.00005 5.50162H13.5001C13.5114 5.50162 13.5208 5.50724 13.532 5.50818L15.1689 2.54007C14.8183 2.35351 14.4245 2.23633 14.0008 2.23633H2.50034C1.1222 2.23633 0 3.35759 0 4.73667V12.4599C0 13.8381 1.12126 14.9603 2.50034 14.9603H5.53876C5.67189 14.9603 5.79564 15.0325 5.86032 15.1496L7.05565 17.2881C7.30033 17.7269 7.74753 17.9884 8.25004 17.9884C8.75349 17.9884 9.19879 17.7269 9.44444 17.2881L10.6398 15.1496C10.7045 15.0334 10.8282 14.9612 10.9613 14.9612H13.9997C15.3779 14.9612 16.5001 13.8399 16.5001 12.4609V9.99149C16.3866 10.1152 16.2516 10.2202 16.0979 10.2896L16.0986 10.2894ZM9.50044 11.5016H3.0007C2.72509 11.5016 2.50102 11.2785 2.50102 11.0019C2.50102 10.7254 2.72508 10.5022 3.0007 10.5022H9.50044C9.77605 10.5022 10.0001 10.7254 10.0001 11.0019C10.0001 11.2785 9.77606 11.5016 9.50044 11.5016Z" fill="#6B7280"/>
<path d="M16.6215 1.97363L13.3431 7.92016C13.3168 7.96797 13.3075 8.02235 13.314 8.07579L13.5812 9.97612C13.5925 10.0539 13.6394 10.1224 13.7078 10.1599C13.7415 10.1786 13.7781 10.1889 13.8156 10.1908C13.855 10.1927 13.8944 10.1852 13.9309 10.1692L15.6803 9.38079C15.73 9.35923 15.7703 9.32079 15.7966 9.27392L19.075 3.32739L16.6205 1.97457L16.6215 1.97363Z" fill="#6B7280"/>
</svg>
