<svg width="20" height="20" viewBox="0 0 20 20" fill="none" xmlns="http://www.w3.org/2000/svg">
<path d="M6.70719 13.5985C7.41067 14.014 8.23156 14.253 9.10807 14.253C11.7202 14.253 13.8374 12.1358 13.8374 9.52376C13.8374 6.91171 11.7202 4.79454 9.10807 4.79454C6.49596 4.79454 4.37873 6.91171 4.37873 9.52376C4.37873 10.4004 4.61774 11.2212 5.03323 11.9246L4.03415 14.5974L6.70719 13.5985ZM7.01544 7.40154H11.2008C11.374 7.40154 11.5141 7.54173 11.5141 7.71485C11.5141 7.88797 11.3739 8.02816 11.2008 8.02816H7.01544C6.84231 8.02816 6.70213 7.88797 6.70213 7.71485C6.70128 7.54173 6.84232 7.40154 7.01544 7.40154ZM7.01544 9.21047H11.2008C11.374 9.21047 11.5141 9.35066 11.5141 9.52378C11.5141 9.6969 11.3739 9.83709 11.2008 9.83709L7.01544 9.83793C6.84231 9.83793 6.70213 9.69774 6.70213 9.52463C6.70128 9.35066 6.84232 9.21047 7.01544 9.21047ZM7.01544 11.0194H11.2008C11.374 11.0194 11.5141 11.1596 11.5141 11.3327C11.5141 11.5058 11.3739 11.646 11.2008 11.646L7.01544 11.6469C6.84231 11.6469 6.70213 11.5067 6.70213 11.3336C6.70128 11.1604 6.84232 11.0194 7.01544 11.0194ZM15.6204 10.131C15.6204 11.0076 15.3813 11.8284 14.9659 12.5318L15.9649 15.2046L13.2921 14.2056C12.5886 14.6211 11.7677 14.86 10.8912 14.86C10.6167 14.86 10.3465 14.8364 10.0847 14.7908C12.5768 14.3314 14.4644 12.1483 14.4644 9.52367C14.4644 8.14797 13.9459 6.89303 13.0929 5.94459C14.5961 6.73675 15.6205 8.31429 15.6205 10.1307L15.6204 10.131ZM16.6574 17.0416C16.7714 17.1708 16.7596 17.3684 16.6304 17.4824C14.7969 19.1089 12.4509 20 10 20C4.47768 20 0 15.5224 0 10.0002C0 8.1347 0.514314 6.3206 1.49735 4.73547L0.395232 5.02344C0.228016 5.06651 0.0574223 4.96602 0.0143556 4.79964C-0.0287155 4.63243 0.0717822 4.46184 0.239007 4.41877L2.14678 3.91967C2.3292 3.87238 2.51246 3.99821 2.53527 4.18401L2.77849 6.14157C2.79961 6.313 2.67715 6.47008 2.50487 6.4912C2.33344 6.51231 2.17636 6.38986 2.15524 6.21758L2.01505 5.08594C1.10381 6.56637 0.627485 8.26139 0.627485 10C0.627485 15.1759 4.82303 19.3724 10.0001 19.3724C12.299 19.3724 14.4955 18.5406 16.2167 17.0155C16.3459 16.9006 16.5426 16.9124 16.6574 17.0416ZM19.9849 15.2006C20.028 15.3678 19.9275 15.5384 19.7611 15.5814L17.8534 16.0806C17.6709 16.1278 17.4877 16.002 17.4649 15.8162L17.2216 13.8586C17.2005 13.6872 17.323 13.5301 17.4953 13.509C17.6667 13.4879 17.8238 13.6104 17.8449 13.7826L17.9851 14.9126C18.898 13.4322 19.3743 11.738 19.3743 9.99917C19.3743 4.82329 15.1788 0.626765 10.0017 0.626765C7.70287 0.626765 5.5063 1.45777 3.78514 2.98284C3.65593 3.09684 3.45832 3.08502 3.34429 2.95581C3.23028 2.8266 3.24211 2.62899 3.37132 2.51497C5.2031 0.890153 7.54914 0 9.99996 0C15.5223 0 20 4.47671 20 9.99979C20 11.8653 19.4857 13.6794 18.5018 15.2645L19.6048 14.9766C19.7711 14.9335 19.9417 15.034 19.9848 15.2004L19.9849 15.2006Z" fill="#6B7280"/>
</svg>
