<svg width="20" height="20" viewBox="0 0 20 20" fill="none" xmlns="http://www.w3.org/2000/svg">
<path d="M1.6 17V3C1.6 2.2268 2.2268 1.6 3 1.6H7C7.7732 1.6 8.4 2.2268 8.4 3V17C8.4 17.7732 7.7732 18.4 7 18.4H3C2.2268 18.4 1.6 17.7732 1.6 17Z" stroke="#F97D09" stroke-width="1.2"/>
<path d="M11.6 7V3C11.6 2.2268 12.2268 1.6 13 1.6H17C17.7732 1.6 18.4 2.2268 18.4 3V7C18.4 7.7732 17.7732 8.4 17 8.4H13C12.2268 8.4 11.6 7.7732 11.6 7Z" stroke="#F97D09" stroke-width="1.2"/>
<path d="M11.6 17V13C11.6 12.2268 12.2268 11.6 13 11.6H17C17.7732 11.6 18.4 12.2268 18.4 13V17C18.4 17.7732 17.7732 18.4 17 18.4H13C12.2268 18.4 11.6 17.7732 11.6 17Z" stroke="#F97D09" stroke-width="1.2"/>
</svg> 
