<svg width="294" height="34" viewBox="0 0 294 34" fill="none" xmlns="http://www.w3.org/2000/svg">
<path fill-rule="evenodd" clip-rule="evenodd" d="M10.3779 0.0263172C10.3731 0.00394104 10.3881 0.00154804 10.4042 0C12.2535 0.359145 13.8494 1.61615 14.9344 2.79196C16.1247 4.08175 17.1229 5.5431 17.9897 7.03245C16.9997 9.54408 15.6892 12.2838 15.5403 15.6716C15.3814 19.2864 16.3703 22.0604 17.8318 24.1001C17.8581 24.1369 17.9862 24.1789 17.9109 24.2582C15.719 23.5845 14.2032 22.3026 13.0381 20.6497C11.8932 19.0254 11.0477 16.9492 10.7466 14.4864C10.5117 12.5647 10.5502 10.3392 10.9046 8.56023C11.0194 7.98379 11.2279 7.4538 11.3524 6.90087C11.9124 4.41416 11.8662 1.50357 10.3779 0.0263172Z" fill="#FF8B00"/>
<path fill-rule="evenodd" clip-rule="evenodd" d="M28.9495 24.8382C28.9276 24.6553 29.0998 24.527 29.1866 24.3904C29.8438 23.3539 30.614 22.1075 30.9777 20.7819C31.4258 19.1483 31.4229 17.0486 31.2674 15.0401C31.1166 13.0903 30.778 11.4435 30.2402 9.87768C29.7111 8.33753 29.0419 6.94429 28.3438 5.61087C29.8541 3.23491 31.7943 0.721039 35.2445 0.290403C35.5075 0.257613 35.3906 0.317424 35.2709 0.580168C34.8775 1.44285 34.5814 2.44443 34.6123 3.7407C34.6445 5.07947 34.9758 6.34393 35.2445 7.4809C35.524 8.66346 35.917 9.77608 36.14 10.9577C36.5713 13.244 36.7348 16.7055 36.0609 18.8593C35.7223 19.9418 35.1758 20.9086 34.5332 21.7038C33.2323 23.3142 31.4815 24.56 28.9495 24.8382Z" fill="#FF8B00"/>
<path fill-rule="evenodd" clip-rule="evenodd" d="M23.7076 0.289551C23.7289 0.294617 23.734 0.316009 23.7603 0.316009C26.2103 4.18076 28.583 8.22184 29.581 13.5381C29.8403 14.9185 30.0405 16.4478 29.9762 17.9103C29.9113 19.3869 29.5749 20.6419 29.0281 21.7295C27.9944 23.7854 26.1485 25.5942 23.2072 25.3642C20.429 25.147 18.7769 23.2837 17.7815 21.2553C17.2419 20.1558 16.9537 18.8746 16.886 17.3835C16.8206 15.9442 17.1205 14.4797 17.4391 13.1957C18.0577 10.7032 19.0496 8.44377 20.0993 6.32127C21.1661 4.16373 22.4367 2.1631 23.7076 0.289551Z" fill="#FF8B00"/>
<path fill-rule="evenodd" clip-rule="evenodd" d="M45.9905 0.553223C46.043 0.620633 45.8841 0.728292 45.806 0.816671C44.6023 2.17993 43.602 4.13074 43.5936 6.71653C43.5863 8.94851 43.9526 11.1597 43.8569 13.2485C43.7594 15.3817 43.2569 17.0912 42.461 18.6744C41.7181 20.1521 40.728 21.5294 39.511 22.5725C38.3712 23.5495 36.4734 24.4575 34.4012 23.7051C34.2828 23.6944 34.4614 23.5893 34.5066 23.5734C36.2674 21.8451 37.4263 19.6971 37.7725 16.6462C38.0997 13.7629 37.5762 11.0686 37.0351 8.6655C36.9587 8.32606 36.7859 7.88951 36.798 7.63831C36.8149 7.29085 37.3118 6.56876 37.4828 6.26872C38.2353 4.94824 39.1743 3.83154 40.2221 2.92369C41.7157 1.62981 43.3719 0.644135 45.9905 0.553223Z" fill="#FF8B00"/>
<path fill-rule="evenodd" clip-rule="evenodd" d="M0.000901292 0.842863C-0.00388355 0.820487 0.0111751 0.817954 0.0273592 0.816406C4.85878 1.13854 7.32453 3.82664 9.53569 6.76903C8.90648 9.55156 8.84709 12.9779 9.37765 15.8032C9.76761 17.88 10.4594 19.711 11.4584 21.2027C11.7917 21.7006 12.1495 22.1399 12.4855 22.5987C9.77324 23.4573 7.58854 21.9736 6.32224 20.6233C4.20326 18.3637 2.71377 15.5582 2.71377 11.2203C2.71377 7.02488 1.83153 3.35237 0.0535346 0.895496C0.0249663 0.889023 0.0356618 0.843145 0.000901292 0.842863Z" fill="#FF8B00"/>
<path fill-rule="evenodd" clip-rule="evenodd" d="M17.3849 25.3909C17.4094 25.4946 17.2514 25.6454 17.1478 25.7861C16.8965 26.1278 16.4349 26.6961 16.3576 27.2083C16.2283 28.0662 16.4577 28.9007 16.6211 29.6051C14.8377 30.3138 12.8903 29.6888 11.643 28.9731C10.1155 28.0965 8.83879 26.4434 6.5332 27.0766C7.07248 25.6755 8.27362 24.9363 9.53583 24.2584C10.0146 24.3214 10.4576 24.498 10.9317 24.5482C11.9138 24.6519 13.0086 24.2904 13.7763 24.0215C13.7991 24.0133 13.8568 23.9836 13.8817 23.995C14.9894 24.5075 16.022 25.1576 17.3849 25.3909Z" fill="#2E7703"/>
<path fill-rule="evenodd" clip-rule="evenodd" d="M40.8783 26.7869C37.2569 26.4497 36.1565 30.1995 32.6869 30.2109C31.8057 30.2139 31.0456 30.1161 30.2637 29.9212C30.8951 29.0068 31.0246 26.8104 30.2637 25.944C30.8858 25.6685 31.5518 25.3294 32.3708 25.3907C32.7304 25.4178 33.152 25.582 33.6088 25.6279C35.5149 25.8193 37.0773 25.2943 38.5868 24.864C38.6281 24.8523 38.6467 24.8396 38.6922 24.8377C39.9019 24.7879 40.5018 25.9941 40.8783 26.7869Z" fill="#2E7703"/>
<path fill-rule="evenodd" clip-rule="evenodd" d="M19.0713 25.9702C20.3476 26.4533 22.0081 26.7789 23.7332 26.8131C25.4812 26.8475 27.0868 26.4246 28.3689 25.9702C29.3099 26.3821 29.7141 27.8929 29.2115 28.9464C29.0135 29.362 28.6381 29.7712 28.2634 30.0264C27.924 30.2574 27.4894 30.3817 27.1573 30.5268C26.4434 30.8384 25.6862 31.3525 25.2608 32.0281C24.906 32.5915 24.5936 33.7518 23.8121 33.872C23.5476 33.9126 23.1289 33.7813 22.9167 33.6611C22.4773 33.4122 22.2466 32.9191 21.9158 32.4759C21.5763 32.0215 21.0658 31.657 20.5725 31.2907C19.6113 30.577 18.2844 30.0427 18.0177 28.6568C17.7792 27.4171 18.354 26.3526 19.0713 25.9702Z" fill="#2E7703"/>
<path d="M294.001 1.42944V26.4489H288.797V1.42944H294.001Z" fill="url(#paint0_linear_2073_6092)"/>
<path d="M274.191 26.8029C272.994 26.8029 271.927 26.5952 270.991 26.1799C270.054 25.7564 269.313 25.1333 268.767 24.3107C268.23 23.48 267.961 22.4457 267.961 21.2077C267.961 20.1653 268.152 19.2897 268.535 18.5812C268.918 17.8726 269.439 17.3025 270.099 16.8709C270.759 16.4392 271.508 16.1134 272.347 15.8935C273.194 15.6736 274.081 15.5189 275.01 15.4293C276.101 15.3153 276.981 15.2094 277.649 15.1117C278.316 15.0058 278.801 14.8511 279.102 14.6475C279.404 14.4438 279.554 14.1425 279.554 13.7434V13.6701C279.554 12.8964 279.31 12.2978 278.821 11.8743C278.341 11.4508 277.657 11.239 276.769 11.239C275.832 11.239 275.087 11.4467 274.533 11.8621C273.98 12.2693 273.613 12.7824 273.434 13.4014L268.621 13.0104C268.865 11.8702 269.345 10.8848 270.062 10.054C270.779 9.21517 271.703 8.57176 272.835 8.12382C273.976 7.66774 275.295 7.4397 276.794 7.4397C277.836 7.4397 278.834 7.56186 279.787 7.80619C280.748 8.05052 281.599 8.42924 282.34 8.94233C283.089 9.45543 283.68 10.1151 284.111 10.9214C284.543 11.7196 284.759 12.6765 284.759 13.7923V26.4486H279.823V23.8465H279.677C279.375 24.4329 278.972 24.9501 278.467 25.398C277.962 25.8378 277.355 26.1839 276.647 26.4364C275.938 26.6807 275.12 26.8029 274.191 26.8029ZM275.682 23.2112C276.447 23.2112 277.123 23.0606 277.71 22.7592C278.296 22.4497 278.756 22.0344 279.09 21.5131C279.424 20.9919 279.591 20.4014 279.591 19.7417V17.7505C279.428 17.8563 279.204 17.9541 278.919 18.0437C278.642 18.1251 278.329 18.2025 277.978 18.2758C277.628 18.3409 277.278 18.402 276.928 18.459C276.578 18.5079 276.26 18.5527 275.975 18.5934C275.364 18.683 274.831 18.8255 274.375 19.021C273.919 19.2164 273.564 19.4811 273.312 19.8151C273.059 20.1408 272.933 20.548 272.933 21.0367C272.933 21.7453 273.19 22.2869 273.703 22.6615C274.224 23.028 274.884 23.2112 275.682 23.2112Z" fill="url(#paint1_linear_2073_6092)"/>
<path d="M265.451 7.68416V11.5935H254.15V7.68416H265.451ZM256.716 3.18848H261.92V20.6826C261.92 21.1631 261.993 21.5377 262.14 21.8065C262.287 22.0671 262.49 22.2503 262.751 22.3562C263.02 22.4621 263.329 22.515 263.679 22.515C263.924 22.515 264.168 22.4947 264.412 22.454C264.657 22.4051 264.844 22.3684 264.974 22.344L265.793 26.2167C265.532 26.2981 265.166 26.3918 264.693 26.4976C264.221 26.6116 263.647 26.6809 262.971 26.7053C261.716 26.7542 260.617 26.5872 259.672 26.2044C258.736 25.8216 258.007 25.2271 257.485 24.4208C256.964 23.6145 256.708 22.5965 256.716 21.3667V3.18848Z" fill="url(#paint2_linear_2073_6092)"/>
<path d="M240.453 26.4489V7.68429H245.499V10.9583H245.694C246.036 9.79368 246.61 8.91409 247.417 8.31955C248.223 7.71687 249.151 7.41553 250.202 7.41553C250.463 7.41553 250.744 7.43182 251.045 7.46439C251.346 7.49697 251.611 7.54177 251.839 7.59877V12.2166C251.595 12.1433 251.257 12.0782 250.825 12.0212C250.393 11.9642 249.998 11.9356 249.64 11.9356C248.874 11.9356 248.19 12.1026 247.588 12.4365C246.993 12.7623 246.521 13.2184 246.17 13.8048C245.828 14.3912 245.657 15.0672 245.657 15.8327V26.4489H240.453Z" fill="url(#paint3_linear_2073_6092)"/>
<path d="M227.833 26.8151C225.936 26.8151 224.295 26.412 222.91 25.6057C221.534 24.7913 220.471 23.6592 219.722 22.2095C218.972 20.7517 218.598 19.0617 218.598 17.1396C218.598 15.2013 218.972 13.5072 219.722 12.0575C220.471 10.5997 221.534 9.46764 222.91 8.66135C224.295 7.84691 225.936 7.4397 227.833 7.4397C229.731 7.4397 231.368 7.84691 232.744 8.66135C234.129 9.46764 235.196 10.5997 235.945 12.0575C236.694 13.5072 237.069 15.2013 237.069 17.1396C237.069 19.0617 236.694 20.7517 235.945 22.2095C235.196 23.6592 234.129 24.7913 232.744 25.6057C231.368 26.412 229.731 26.8151 227.833 26.8151ZM227.858 22.7837C228.721 22.7837 229.442 22.5393 230.02 22.0507C230.598 21.5539 231.034 20.8779 231.327 20.0227C231.629 19.1676 231.779 18.1943 231.779 17.103C231.779 16.0116 231.629 15.0384 231.327 14.1832C231.034 13.3281 230.598 12.6521 230.02 12.1553C229.442 11.6585 228.721 11.4101 227.858 11.4101C226.986 11.4101 226.253 11.6585 225.659 12.1553C225.072 12.6521 224.629 13.3281 224.327 14.1832C224.034 15.0384 223.887 16.0116 223.887 17.103C223.887 18.1943 224.034 19.1676 224.327 20.0227C224.629 20.8779 225.072 21.5539 225.659 22.0507C226.253 22.5393 226.986 22.7837 227.858 22.7837Z" fill="url(#paint4_linear_2073_6092)"/>
<path d="M197.48 26.4489V1.42944H207.351C209.249 1.42944 210.866 1.79187 212.201 2.51672C213.537 3.23342 214.555 4.2311 215.256 5.50977C215.964 6.78029 216.318 8.24627 216.318 9.90772C216.318 11.5692 215.96 13.0352 215.243 14.3057C214.527 15.5762 213.488 16.5657 212.128 17.2743C210.776 17.9829 209.139 18.3371 207.217 18.3371H200.926V14.098H206.362C207.38 14.098 208.219 13.9229 208.879 13.5727C209.546 13.2143 210.043 12.7216 210.369 12.0945C210.703 11.4592 210.87 10.7303 210.87 9.90772C210.87 9.077 210.703 8.35215 210.369 7.73318C210.043 7.10606 209.546 6.62147 208.879 6.27941C208.211 5.9292 207.364 5.7541 206.337 5.7541H202.77V26.4489H197.48Z" fill="url(#paint5_linear_2073_6092)"/>
<path d="M173.226 15.6003V26.4486H168.021V7.68403H172.981V10.9947H173.201C173.617 9.90336 174.313 9.04006 175.29 8.4048C176.268 7.7614 177.453 7.4397 178.845 7.4397C180.148 7.4397 181.285 7.72475 182.254 8.29485C183.223 8.86496 183.976 9.67939 184.514 10.7382C185.051 11.7888 185.32 13.043 185.32 14.5009V26.4486H180.116V15.4293C180.124 14.281 179.831 13.3851 179.236 12.7417C178.642 12.0901 177.823 11.7644 176.781 11.7644C176.08 11.7644 175.461 11.915 174.924 12.2164C174.394 12.5177 173.979 12.9575 173.678 13.5357C173.385 14.1059 173.234 14.7941 173.226 15.6003Z" fill="url(#paint6_linear_2073_6092)"/>
<path d="M155.4 26.8151C153.502 26.8151 151.861 26.412 150.476 25.6057C149.1 24.7913 148.037 23.6592 147.288 22.2095C146.539 20.7517 146.164 19.0617 146.164 17.1396C146.164 15.2013 146.539 13.5072 147.288 12.0575C148.037 10.5997 149.1 9.46764 150.476 8.66135C151.861 7.84691 153.502 7.4397 155.4 7.4397C157.297 7.4397 158.934 7.84691 160.311 8.66135C161.695 9.46764 162.762 10.5997 163.512 12.0575C164.261 13.5072 164.635 15.2013 164.635 17.1396C164.635 19.0617 164.261 20.7517 163.512 22.2095C162.762 23.6592 161.695 24.7913 160.311 25.6057C158.934 26.412 157.297 26.8151 155.4 26.8151ZM155.424 22.7837C156.287 22.7837 157.008 22.5393 157.587 22.0507C158.165 21.5539 158.6 20.8779 158.894 20.0227C159.195 19.1676 159.346 18.1943 159.346 17.103C159.346 16.0116 159.195 15.0384 158.894 14.1832C158.6 13.3281 158.165 12.6521 157.587 12.1553C157.008 11.6585 156.287 11.4101 155.424 11.4101C154.553 11.4101 153.82 11.6585 153.225 12.1553C152.639 12.6521 152.195 13.3281 151.894 14.1832C151.6 15.0384 151.454 16.0116 151.454 17.103C151.454 18.1943 151.6 19.1676 151.894 20.0227C152.195 20.8779 152.639 21.5539 153.225 22.0507C153.82 22.5393 154.553 22.7837 155.424 22.7837Z" fill="url(#paint7_linear_2073_6092)"/>
<path d="M137.549 26.4488V7.6842H142.753V26.4488H137.549ZM140.163 5.26533C139.39 5.26533 138.726 5.00878 138.172 4.49569C137.626 3.97445 137.354 3.3514 137.354 2.62656C137.354 1.90985 137.626 1.29495 138.172 0.78186C138.726 0.26062 139.39 0 140.163 0C140.937 0 141.597 0.26062 142.142 0.78186C142.696 1.29495 142.973 1.90985 142.973 2.62656C142.973 3.3514 142.696 3.97445 142.142 4.49569C141.597 5.00878 140.937 5.26533 140.163 5.26533Z" fill="url(#paint8_linear_2073_6092)"/>
<path d="M134.16 7.68416V11.5935H122.859V7.68416H134.16ZM125.425 3.18848H130.629V20.6826C130.629 21.1631 130.702 21.5377 130.849 21.8065C130.996 22.0671 131.199 22.2503 131.46 22.3562C131.729 22.4621 132.038 22.515 132.388 22.515C132.633 22.515 132.877 22.4947 133.121 22.454C133.366 22.4051 133.553 22.3684 133.683 22.344L134.502 26.2167C134.241 26.2981 133.875 26.3918 133.402 26.4976C132.93 26.6116 132.356 26.6809 131.68 26.7053C130.425 26.7542 129.326 26.5872 128.381 26.2044C127.445 25.8216 126.716 25.2271 126.194 24.4208C125.673 23.6145 125.417 22.5965 125.425 21.3667V3.18848Z" fill="url(#paint9_linear_2073_6092)"/>
<path d="M114.807 26.4488V7.6842H120.011V26.4488H114.807ZM117.421 5.26533C116.647 5.26533 115.984 5.00878 115.43 4.49569C114.884 3.97445 114.611 3.3514 114.611 2.62656C114.611 1.90985 114.884 1.29495 115.43 0.78186C115.984 0.26062 116.647 0 117.421 0C118.195 0 118.855 0.26062 119.4 0.78186C119.954 1.29495 120.231 1.90985 120.231 2.62656C120.231 3.3514 119.954 3.97445 119.4 4.49569C118.855 5.00878 118.195 5.26533 117.421 5.26533Z" fill="url(#paint10_linear_2073_6092)"/>
<path d="M111.416 7.68416V11.5935H100.115V7.68416H111.416ZM102.681 3.18848H107.885V20.6826C107.885 21.1631 107.958 21.5377 108.105 21.8065C108.251 22.0671 108.455 22.2503 108.716 22.3562C108.984 22.4621 109.294 22.515 109.644 22.515C109.888 22.515 110.133 22.4947 110.377 22.454C110.621 22.4051 110.809 22.3684 110.939 22.344L111.758 26.2167C111.497 26.2981 111.13 26.3918 110.658 26.4976C110.186 26.6116 109.612 26.6809 108.936 26.7053C107.681 26.7542 106.582 26.5872 105.637 26.2044C104.701 25.8216 103.972 25.2271 103.45 24.4208C102.929 23.6145 102.673 22.5965 102.681 21.3667V3.18848Z" fill="url(#paint11_linear_2073_6092)"/>
<path d="M89.4242 26.8151C87.494 26.8151 85.8326 26.4242 84.4399 25.6423C83.0553 24.8523 81.9884 23.7366 81.2392 22.295C80.4899 20.8453 80.1152 19.1309 80.1152 17.1518C80.1152 15.2216 80.4899 13.5276 81.2392 12.0698C81.9884 10.6119 83.0431 9.47579 84.4032 8.66135C85.7715 7.84691 87.3759 7.4397 89.2166 7.4397C90.4545 7.4397 91.6069 7.63923 92.6738 8.03831C93.7489 8.42924 94.6855 9.0197 95.4836 9.8097C96.2899 10.5997 96.917 11.5933 97.365 12.7905C97.8129 13.9796 98.0369 15.3723 98.0369 16.9686V18.3979H82.192V15.1728H93.1381C93.1381 14.4235 92.9752 13.7597 92.6494 13.1815C92.3236 12.6032 91.8716 12.1512 91.2934 11.8254C90.7233 11.4915 90.0595 11.3246 89.3021 11.3246C88.5121 11.3246 87.8117 11.5078 87.2008 11.8743C86.5981 12.2327 86.1258 12.7172 85.7837 13.3281C85.4416 13.9307 85.2665 14.6027 85.2584 15.3438V18.4101C85.2584 19.3386 85.4294 20.1408 85.7715 20.8168C86.1217 21.4928 86.6144 22.014 87.2497 22.3805C87.885 22.747 88.6383 22.9303 89.5098 22.9303C90.088 22.9303 90.6174 22.8488 91.0979 22.6859C91.5784 22.523 91.9897 22.2787 92.3318 21.9529C92.6738 21.6272 92.9345 21.2281 93.1136 20.7557L97.9269 21.0734C97.6826 22.2299 97.1817 23.2398 96.4243 24.1031C95.675 24.9582 94.7059 25.6261 93.5168 26.1066C92.3358 26.5789 90.9717 26.8151 89.4242 26.8151Z" fill="url(#paint12_linear_2073_6092)"/>
<path d="M59 26.4489V1.42944H68.871C70.7686 1.42944 72.3853 1.79187 73.7209 2.51672C75.0566 3.23342 76.0746 4.2311 76.7751 5.50977C77.4836 6.78029 77.8379 8.24627 77.8379 9.90772C77.8379 11.5692 77.4796 13.0352 76.7628 14.3057C76.0461 15.5762 75.0077 16.5657 73.6476 17.2743C72.2957 17.9829 70.6587 18.3371 68.7366 18.3371H62.4451V14.098H67.8814C68.8995 14.098 69.7383 13.9229 70.398 13.5727C71.0659 13.2143 71.5627 12.7216 71.8884 12.0945C72.2224 11.4592 72.3893 10.7303 72.3893 9.90772C72.3893 9.077 72.2224 8.35215 71.8884 7.73318C71.5627 7.10606 71.0659 6.62147 70.398 6.27941C69.7302 5.9292 68.8832 5.7541 67.857 5.7541H64.2898V26.4489H59Z" fill="url(#paint13_linear_2073_6092)"/>
<defs>
<linearGradient id="paint0_linear_2073_6092" x1="122.105" y1="14.0643" x2="249.285" y2="34.8872" gradientUnits="userSpaceOnUse">
<stop offset="0.132662" stop-color="#F97D09"/>
<stop offset="1" stop-color="#2CC56F"/>
</linearGradient>
<linearGradient id="paint1_linear_2073_6092" x1="122.104" y1="14.064" x2="249.285" y2="34.8869" gradientUnits="userSpaceOnUse">
<stop offset="0.132662" stop-color="#F97D09"/>
<stop offset="1" stop-color="#2CC56F"/>
</linearGradient>
<linearGradient id="paint2_linear_2073_6092" x1="122.105" y1="14.0641" x2="249.285" y2="34.887" gradientUnits="userSpaceOnUse">
<stop offset="0.132662" stop-color="#F97D09"/>
<stop offset="1" stop-color="#2CC56F"/>
</linearGradient>
<linearGradient id="paint3_linear_2073_6092" x1="122.105" y1="14.0643" x2="249.286" y2="34.8872" gradientUnits="userSpaceOnUse">
<stop offset="0.132662" stop-color="#F97D09"/>
<stop offset="1" stop-color="#2CC56F"/>
</linearGradient>
<linearGradient id="paint4_linear_2073_6092" x1="122.105" y1="14.064" x2="249.286" y2="34.8869" gradientUnits="userSpaceOnUse">
<stop offset="0.132662" stop-color="#F97D09"/>
<stop offset="1" stop-color="#2CC56F"/>
</linearGradient>
<linearGradient id="paint5_linear_2073_6092" x1="122.104" y1="14.0643" x2="249.285" y2="34.8872" gradientUnits="userSpaceOnUse">
<stop offset="0.132662" stop-color="#F97D09"/>
<stop offset="1" stop-color="#2CC56F"/>
</linearGradient>
<linearGradient id="paint6_linear_2073_6092" x1="122.105" y1="14.064" x2="249.286" y2="34.8869" gradientUnits="userSpaceOnUse">
<stop offset="0.132662" stop-color="#F97D09"/>
<stop offset="1" stop-color="#2CC56F"/>
</linearGradient>
<linearGradient id="paint7_linear_2073_6092" x1="122.103" y1="14.064" x2="249.284" y2="34.8869" gradientUnits="userSpaceOnUse">
<stop offset="0.132662" stop-color="#F97D09"/>
<stop offset="1" stop-color="#2CC56F"/>
</linearGradient>
<linearGradient id="paint8_linear_2073_6092" x1="122.104" y1="14.0642" x2="249.284" y2="34.8871" gradientUnits="userSpaceOnUse">
<stop offset="0.132662" stop-color="#F97D09"/>
<stop offset="1" stop-color="#2CC56F"/>
</linearGradient>
<linearGradient id="paint9_linear_2073_6092" x1="122.105" y1="14.0641" x2="249.285" y2="34.887" gradientUnits="userSpaceOnUse">
<stop offset="0.132662" stop-color="#F97D09"/>
<stop offset="1" stop-color="#2CC56F"/>
</linearGradient>
<linearGradient id="paint10_linear_2073_6092" x1="122.106" y1="14.0642" x2="249.286" y2="34.8871" gradientUnits="userSpaceOnUse">
<stop offset="0.132662" stop-color="#F97D09"/>
<stop offset="1" stop-color="#2CC56F"/>
</linearGradient>
<linearGradient id="paint11_linear_2073_6092" x1="122.105" y1="14.0641" x2="249.285" y2="34.887" gradientUnits="userSpaceOnUse">
<stop offset="0.132662" stop-color="#F97D09"/>
<stop offset="1" stop-color="#2CC56F"/>
</linearGradient>
<linearGradient id="paint12_linear_2073_6092" x1="122.103" y1="14.064" x2="249.284" y2="34.8869" gradientUnits="userSpaceOnUse">
<stop offset="0.132662" stop-color="#F97D09"/>
<stop offset="1" stop-color="#2CC56F"/>
</linearGradient>
<linearGradient id="paint13_linear_2073_6092" x1="122.104" y1="14.0643" x2="249.285" y2="34.8872" gradientUnits="userSpaceOnUse">
<stop offset="0.132662" stop-color="#F97D09"/>
<stop offset="1" stop-color="#2CC56F"/>
</linearGradient>
</defs>
</svg>
