<svg width="711" height="1024" viewBox="0 0 711 1024" fill="none" xmlns="http://www.w3.org/2000/svg">
<g clip-path="url(#clip0_2282_1256)">
<rect width="711" height="1024" fill="#FFEEE2"/>
<g opacity="0.3">
<path d="M239.054 932.462V926.962H231.009C230.621 920.92 230.239 914.889 229.865 908.868L233.3 895.77H236.838V890.27H228.734C228.159 880.582 227.611 870.922 227.099 861.29L230.582 846.273H233.711V840.773H226.059C225.747 834.245 225.454 827.73 225.183 821.228L228.734 804.428H231.585V798.928H224.342C223.915 786.153 223.588 773.43 223.38 760.759H225.848L228.474 743.849V733.291H191.037V743.849L193.664 760.759H196.132C195.924 773.43 195.598 786.153 195.169 798.928H187.927V804.428H190.778L194.33 821.229C194.059 827.731 193.766 834.247 193.454 840.775H185.804V846.275H188.933L192.416 861.291C191.903 870.924 191.354 880.583 190.779 890.271H182.675V895.772H186.213L189.648 908.869C189.274 914.89 188.892 920.921 188.504 926.963H180.459V932.464H184.286L187.43 943.544C186.267 961.33 185.072 979.203 183.9 997.159H201.137H218.374H235.612C234.439 979.203 233.245 961.33 232.081 943.544L235.225 932.465H239.054V932.462ZM217.401 734.74H227.082V742.405H217.401V734.74ZM203.504 734.74H216.009V742.405H203.504V734.74ZM192.43 734.74H202.11V742.405H192.43V734.74Z" fill="#EADDB5"/>
<path d="M682.538 885.321L681.325 865.119H686.262V859.633H680.995L678.26 814.086H684.266V808.6H677.932L674.875 757.688H678.576V752.202H674.545L673.736 738.74H677.042V736.53H673.918V727.295H676.492V724.963H674.71V723.061C674.71 716.582 670.011 711.937 664.641 709.608L664.135 701.172H662.667L662.161 709.608C656.791 711.937 652.092 716.582 652.092 723.061V724.963H650.308V727.295H652.884V736.532H649.688V738.741H652.994L652.185 752.203H648.154V757.689H651.855L648.798 808.601H642.464V814.087H648.469L645.733 859.635H640.465V865.121H645.404L644.191 885.323H632.44L632.08 879.335H635.082V876H631.879L630.217 848.304H633.869V844.969H630.013L628.154 814.012H630.406V810.676H627.955L627.464 802.491H629.474V801.147H627.575V795.531H629.141V794.114H628.057V792.957C628.057 789.017 625.2 786.193 621.934 784.776L621.625 779.647H620.732L620.424 784.776C617.158 786.191 614.3 789.016 614.3 792.957V794.114H613.216V795.531H614.781V801.147H612.838V802.491H614.849L614.357 810.676H611.907V814.012H614.158L612.299 844.969H608.447V848.304H612.098L610.436 876H607.233V879.335H610.235L609.876 885.323H601.85V810.372H564.286V793.6H568.627V789.673H565.622V786.465C565.622 775.545 557.703 767.712 548.651 763.787L547.797 749.575H545.323L544.469 763.787C535.417 767.712 527.498 775.545 527.498 786.465V789.673H524.493V793.6H528.834V810.372H511.276V789.846L512.086 788.166C524.119 763.239 516.836 733.701 494.145 716.567C485.793 710.259 476.588 705.257 467.861 702.015L467.728 698.214C468.979 697.453 469.819 696.075 469.819 694.497C469.819 692.809 468.861 691.349 467.463 690.63L467.373 688.047C468.149 687.468 468.66 686.547 468.66 685.501C468.66 684.372 468.071 683.388 467.19 682.824L467.104 680.35C467.849 679.836 468.341 678.972 468.341 677.992C468.341 676.943 467.772 676.036 466.934 675.54L466.739 670H464.265L464.07 675.54C463.233 676.036 462.664 676.943 462.664 677.992C462.664 678.972 463.155 679.834 463.901 680.35L463.814 682.824C462.933 683.388 462.345 684.372 462.345 685.501C462.345 686.549 462.854 687.469 463.631 688.047L463.541 690.63C462.144 691.349 461.185 692.809 461.185 694.497C461.185 696.075 462.024 697.453 463.276 698.214L463.143 702.015C454.416 705.257 445.213 710.261 436.86 716.567C414.168 733.701 406.886 763.239 418.918 788.166L419.728 789.846V810.37H402.17V793.599H406.511V789.671H403.506V786.464C403.506 775.543 395.587 767.71 386.535 763.786L385.682 749.573H383.207L382.353 763.786C373.302 767.71 365.382 775.543 365.382 786.464V789.671H362.378V793.599H366.718V810.37H329.149V885.321H321.121L320.762 879.333H323.765V875.998H320.563L318.9 848.303H322.552V844.967H318.699L316.84 814.01H319.092V810.675H316.641L316.15 802.49H318.16V801.145H316.217V795.529H317.783V794.113H316.698V792.955C316.698 789.016 313.842 786.191 310.575 784.774L310.266 779.646H309.374L309.065 784.774C305.8 786.19 302.942 789.014 302.942 792.955V794.113H301.857V795.529H303.422V801.145H301.523V802.49H303.533L303.042 810.675H300.591V814.01H302.843L300.984 844.967H297.131V848.303H300.783L299.121 875.998H295.918V879.333H298.921L298.562 885.321H286.811L285.598 865.119H290.536V859.633H285.27L282.534 814.086H288.541V808.6H282.205L279.148 757.688H282.849V752.202H278.818L278.009 738.74H281.315V736.53H278.119V727.295H280.694V724.963H278.911V723.061C278.911 716.582 274.212 711.937 268.842 709.608L268.336 701.172H266.867L266.36 709.608C260.99 711.937 256.292 716.582 256.292 723.061V724.963H254.509V727.295H257.084V736.532H253.959V738.741H257.265L256.456 752.203H252.426V757.689H256.127L253.07 808.601H246.734V814.087H252.74L250.005 859.635H244.737V865.121H249.675L248.462 885.323H221V1001H710V885.323H682.538V885.321ZM666.301 733.192C666.301 731.894 667.322 730.993 668.423 730.598C669.524 730.993 670.546 731.894 670.546 733.192V736.53H666.301V733.192ZM661.275 733.192C661.275 731.894 662.297 730.993 663.398 730.598C664.499 730.993 665.52 731.894 665.52 733.192V736.53H661.275V733.192ZM656.252 733.192C656.252 731.894 657.273 730.993 658.374 730.598C659.475 730.993 660.496 731.894 660.496 733.192V736.53H656.252V733.192ZM622.942 799.117C622.942 798.328 623.563 797.78 624.233 797.54C624.902 797.78 625.524 798.328 625.524 799.117V801.147H622.943L622.942 799.117ZM619.887 799.117C619.887 798.328 620.509 797.78 621.179 797.54C621.848 797.78 622.47 798.328 622.47 799.117V801.147H619.889L619.887 799.117ZM616.832 799.117C616.832 798.328 617.453 797.78 618.123 797.54C618.792 797.78 619.414 798.328 619.414 799.117V801.147H616.832V799.117ZM311.583 799.117C311.583 798.328 312.205 797.78 312.874 797.54C313.544 797.78 314.165 798.328 314.165 799.117V801.147H311.584L311.583 799.117ZM308.527 799.117C308.527 798.328 309.149 797.78 309.818 797.54C310.488 797.78 311.11 798.328 311.11 799.117V801.147H308.529L308.527 799.117ZM305.473 799.117C305.473 798.328 306.095 797.78 306.764 797.54C307.434 797.78 308.055 798.328 308.055 799.117V801.147H305.475L305.473 799.117ZM270.499 733.192C270.499 731.894 271.521 730.993 272.622 730.598C273.722 730.993 274.744 731.894 274.744 733.192V736.53H270.499V733.192ZM265.475 733.192C265.475 731.894 266.497 730.993 267.598 730.598C268.699 730.993 269.72 731.894 269.72 733.192V736.53H265.475V733.192ZM260.45 733.192C260.45 731.894 261.471 730.993 262.572 730.598C263.673 730.993 264.695 731.894 264.695 733.192V736.53H260.45V733.192ZM568.625 838.328C568.625 832.446 573.781 828.352 579.338 826.563C584.895 828.352 590.051 832.446 590.051 838.328V859.115H568.624L568.625 838.328ZM579.338 868.835C584.895 870.624 590.051 874.717 590.051 880.599V885.323H568.624V880.599C568.625 874.717 573.781 870.624 579.338 868.835ZM552.281 803.255C552.281 800.698 554.295 798.916 556.469 798.138C558.641 798.916 560.655 800.696 560.655 803.255V810.37H552.281V803.255ZM542.371 803.255C542.371 800.698 544.387 798.916 546.559 798.138C548.731 798.916 550.747 800.696 550.747 803.255V810.37H542.372V803.255H542.371ZM532.459 803.255C532.459 800.698 534.474 798.916 536.646 798.138C538.818 798.916 540.832 800.696 540.832 803.255V810.37H532.458L532.459 803.255ZM526.146 838.328C526.146 832.446 531.641 828.352 537.565 826.563C543.489 828.352 548.985 832.446 548.985 838.328V859.115H526.146V838.328ZM537.565 868.835C543.489 870.624 548.985 874.717 548.985 880.599V885.323H526.146V880.599C526.146 874.717 531.641 870.624 537.565 868.835ZM465.498 818.678C479.164 823.62 491.845 834.927 491.845 851.175V885.323H439.152V851.175C439.152 834.927 451.831 823.62 465.498 818.678ZM404.852 885.321H382.01V880.598C382.01 874.715 387.508 870.622 393.43 868.833C399.354 870.622 404.85 874.715 404.85 880.598V885.321H404.852ZM404.852 838.328V859.115H382.01V838.328C382.01 832.446 387.508 828.352 393.43 826.563C399.354 828.354 404.852 832.446 404.852 838.328ZM390.162 803.255C390.162 800.698 392.178 798.916 394.35 798.138C396.522 798.916 398.536 800.696 398.536 803.255V810.37H390.162V803.255ZM380.252 803.255C380.252 800.698 382.268 798.916 384.44 798.138C386.612 798.916 388.626 800.696 388.626 803.255V810.37H380.252V803.255ZM370.34 803.255C370.34 800.698 372.356 798.916 374.528 798.138C376.7 798.916 378.715 800.696 378.715 803.255V810.37H370.34V803.255ZM340.944 838.328C340.944 832.446 346.1 828.352 351.657 826.563C357.214 828.352 362.37 832.446 362.37 838.328V859.115H340.943L340.944 838.328ZM340.944 880.599C340.944 874.717 346.1 870.624 351.657 868.835C357.214 870.624 362.37 874.717 362.37 880.599V885.323H340.943L340.944 880.599Z" fill="#FFBD8E"/>
<path d="M7.87051 938.002V998.901H197.648V938.002V899.347V882.825L204.001 875.548H206.511V872.437H197.648V871.84H200.914V869.811H197.648V860.714H199.339L200.424 857.775H201.474V854.837H197.648V849.145H146.077L145.481 834.403H145.632L147.871 831.183H149.737V827.964H145.22L144.576 812.056H146.196V808.417H144.478V806.901C144.478 802.04 142.066 798.551 139.303 796.794L139.071 790.945H138.204L137.971 796.794C135.209 798.551 132.797 802.039 132.797 806.901V808.417H131.079V812.056H132.699L132.287 822.225H107.302C106.671 820.665 105.359 819.474 103.859 818.706L103.327 779.446H102.186L101.653 818.706C100.154 819.475 98.8415 820.667 98.2109 822.225H73.2241L72.8123 812.056H74.4325V808.417H72.7142V806.901C72.7142 802.04 70.302 798.551 67.5398 796.794L67.3074 790.945H66.44L66.2077 796.794C63.4455 798.551 61.0332 802.039 61.0332 806.901V808.417H59.3149V812.056H60.9351L60.291 827.964H55.7743V831.183H57.6404L59.8792 834.403H60.03L59.4341 849.145H7.86296V854.837H4.03716V857.775H5.08716L6.17183 860.714H7.86296V869.811H4.59685V871.84H7.86296V872.437H-1V875.548H1.5103L7.86296 882.825V906.592V938.002H7.87051ZM152.193 909.384C152.193 899.352 158.541 892.862 164.482 890.133L164.596 890.08L164.711 890.133C170.652 892.862 177 899.352 177 909.384V938.002H170.311V929.127C170.311 927.634 169.733 926.277 168.795 925.259V921.755C168.795 919.382 166.773 917.73 164.596 917.009C162.418 917.731 160.398 919.382 160.398 921.755V925.259C159.46 926.277 158.882 927.634 158.882 929.127V938.002H152.193V909.384ZM141.246 815.996C141.246 814.777 141.777 813.93 142.348 813.559C142.919 813.93 143.449 814.777 143.449 815.996V820.302H141.245V815.996H141.246ZM137.538 815.996C137.538 814.777 138.069 813.93 138.64 813.559C139.211 813.93 139.741 814.777 139.741 815.996V820.302H137.537V815.996H137.538ZM133.829 815.996C133.829 814.777 134.36 813.93 134.93 813.559C135.502 813.93 136.031 814.777 136.031 815.996V820.302H133.827L133.829 815.996ZM127.671 849.131H132.429V865.226H127.671V849.131ZM116.754 849.131H121.513V865.226H116.754V849.131ZM105.838 849.131H110.596V865.226H105.838V849.131ZM94.9222 849.131H99.6803V865.226H94.9222V849.131ZM84.006 849.131H88.7641V865.226H84.006V849.131ZM82.5125 903.819C82.5125 891.409 92.2565 882.774 102.759 879C113.262 882.774 123.006 891.409 123.006 903.819V938.002H82.5125V903.819ZM73.0883 849.131H77.8465V865.226H73.0883V849.131ZM69.4858 815.996C69.4858 814.777 70.0169 813.93 70.5871 813.559C71.1589 813.93 71.6884 814.777 71.6884 815.996V820.302H69.4843L69.4858 815.996ZM65.7762 815.996C65.7762 814.777 66.3073 813.93 66.8775 813.559C67.4493 813.93 67.9788 814.777 67.9788 815.996V820.302H65.7747V815.996H65.7762ZM62.0681 815.996C62.0681 814.777 62.5991 813.93 63.1694 813.559C63.7411 813.93 64.2706 814.777 64.2706 815.996V820.302H62.0666V815.996H62.0681ZM28.5186 909.384C28.5186 899.352 34.8667 892.862 40.8076 890.133L40.9222 890.08L41.0368 890.133C46.9777 892.862 53.3258 899.352 53.3258 909.384V938.002H46.6367V929.127C46.6367 927.634 46.0589 926.277 45.1206 925.259V921.755C45.1206 919.382 43.1006 917.73 40.9222 917.009C38.7438 917.731 36.7238 919.382 36.7238 921.755V925.259C35.7855 926.277 35.2077 927.634 35.2077 929.127V938.002H28.5186V909.384Z" fill="#FFBD8E"/>
</g>
<path d="M350.948 818.268L257.754 810.449L248.26 923.613L341.453 931.431L350.948 818.268Z" fill="white"/>
<path d="M342.663 917.009L341.453 931.432L338.395 931.175C335.809 929.841 334.165 926.997 334.425 923.896C334.775 919.724 338.435 916.655 342.606 917.004C342.612 917.005 342.663 917.009 342.663 917.009Z" fill="white"/>
<path d="M340.654 835.524C340.594 836.234 340.128 836.774 339.612 836.73L287.536 832.361C287.019 832.318 286.649 831.708 286.709 830.998C286.768 830.288 287.235 829.748 287.751 829.792L339.827 834.161C340.343 834.204 340.713 834.814 340.654 835.524Z" fill="#CEE2E4"/>
<path d="M340.279 844.363C340.22 845.073 339.594 845.6 338.88 845.54L266.955 839.506C266.24 839.446 265.712 838.822 265.771 838.112C265.831 837.403 266.455 836.876 267.171 836.936L339.095 842.971C339.809 843.03 340.339 843.654 340.279 844.363Z" fill="#CEE2E4"/>
<path d="M339.207 852.776C339.148 853.484 338.523 854.012 337.815 853.952L266.244 847.948C265.532 847.888 265.007 847.263 265.066 846.555C265.126 845.844 265.747 845.318 266.46 845.378L338.03 851.383C338.738 851.442 339.267 852.064 339.207 852.776Z" fill="#CEE2E4"/>
<path d="M301.49 856.817C301.431 857.528 301.095 858.078 300.741 858.049L264.998 855.05C264.643 855.02 264.405 854.421 264.465 853.711C264.524 853.002 264.86 852.451 265.214 852.481L300.956 855.479C301.311 855.509 301.55 856.108 301.49 856.817Z" fill="#CEE2E4"/>
<path d="M300.935 865.643C300.875 866.352 300.538 866.903 300.182 866.874L264.264 863.86C263.907 863.83 263.667 863.23 263.726 862.521C263.786 861.811 264.122 861.261 264.479 861.291L300.397 864.304C300.754 864.334 300.994 864.933 300.935 865.643Z" fill="#CEE2E4"/>
<path d="M300.04 874.069C299.981 874.777 299.644 875.33 299.291 875.3L263.55 872.301C263.194 872.271 262.956 871.671 263.015 870.963C263.075 870.252 263.41 869.702 263.765 869.732L299.507 872.73C299.86 872.76 300.1 873.358 300.04 874.069Z" fill="#CEE2E4"/>
<path d="M333.595 884.836C333.535 885.546 332.923 886.074 332.227 886.015L262.025 880.125C261.329 880.067 260.813 879.445 260.873 878.735C260.932 878.025 261.545 877.498 262.241 877.556L332.443 883.446C333.139 883.504 333.655 884.126 333.595 884.836Z" fill="#CEE2E4"/>
<path d="M333.216 893.675C333.157 894.385 332.541 894.913 331.842 894.854L261.296 888.935C260.594 888.876 260.077 888.253 260.136 887.544C260.196 886.834 260.81 886.307 261.511 886.366L332.057 892.284C332.757 892.343 333.276 892.966 333.216 893.675Z" fill="#CEE2E4"/>
<path d="M332.147 902.087C332.088 902.795 331.475 903.324 330.78 903.266L260.581 897.376C259.883 897.318 259.368 896.694 259.427 895.986C259.487 895.274 260.098 894.748 260.797 894.807L330.996 900.696C331.689 900.755 332.207 901.376 332.147 902.087Z" fill="#CEE2E4"/>
<path d="M335.902 857.785L304.838 855.178L303.116 875.704L334.18 878.31L335.902 857.785Z" fill="#CEE2E4"/>
<path d="M322.487 821.53L321.979 828.135L320.773 828.042L318.219 823.664L318.171 823.66L317.851 827.817L316.455 827.71L316.963 821.105L318.188 821.199L320.72 825.573L320.778 825.577L321.097 821.423L322.487 821.53Z" fill="#00A650"/>
<path d="M315.676 824.327C315.621 825.047 315.437 825.649 315.125 826.134C314.816 826.618 314.416 826.975 313.927 827.206C313.44 827.434 312.905 827.526 312.322 827.481C311.735 827.436 311.219 827.262 310.773 826.96C310.327 826.657 309.988 826.243 309.756 825.717C309.524 825.191 309.436 824.569 309.491 823.851C309.546 823.13 309.729 822.528 310.039 822.044C310.348 821.559 310.747 821.203 311.234 820.974C311.721 820.744 312.258 820.651 312.845 820.696C313.427 820.741 313.942 820.915 314.388 821.217C314.836 821.518 315.176 821.931 315.408 822.457C315.642 822.983 315.732 823.607 315.676 824.327ZM314.261 824.218C314.296 823.751 314.257 823.352 314.142 823.021C314.029 822.69 313.853 822.432 313.614 822.248C313.375 822.063 313.087 821.957 312.75 821.931C312.412 821.905 312.111 821.965 311.847 822.112C311.583 822.258 311.368 822.486 311.204 822.795C311.042 823.105 310.942 823.493 310.907 823.96C310.871 824.426 310.909 824.825 311.022 825.156C311.137 825.487 311.314 825.745 311.553 825.93C311.792 826.115 312.08 826.22 312.418 826.246C312.755 826.272 313.056 826.212 313.32 826.066C313.585 825.92 313.798 825.692 313.96 825.382C314.125 825.072 314.225 824.684 314.261 824.218Z" fill="#00A650"/>
<path d="M308.711 820.47L308.202 827.075L306.806 826.967L307.314 820.362L308.711 820.47Z" fill="#00A650"/>
<path d="M300.907 821.027L300.996 819.876L306.421 820.293L306.332 821.445L304.31 821.289L303.89 826.742L302.51 826.636L302.93 821.183L300.907 821.027Z" fill="#00A650"/>
<path d="M300.1 819.806L299.591 826.411L298.195 826.303L298.703 819.698L300.1 819.806Z" fill="#00A650"/>
<path d="M292.296 820.364L292.385 819.213L297.809 819.631L297.721 820.782L295.699 820.626L295.279 826.08L293.898 825.974L294.318 820.52L292.296 820.364Z" fill="#00A650"/>
<path d="M286.568 825.409L287.076 818.804L291.527 819.147L291.438 820.298L288.384 820.063L288.263 821.637L291.088 821.854L290.999 823.006L288.174 822.788L288.053 824.365L291.12 824.601L291.031 825.753L286.568 825.409Z" fill="#00A650"/>
<path d="M280.687 824.957L281.195 818.352L283.801 818.552C284.302 818.591 284.721 818.719 285.059 818.938C285.397 819.154 285.646 819.438 285.805 819.79C285.966 820.14 286.03 820.534 285.996 820.973C285.962 821.411 285.838 821.791 285.623 822.112C285.408 822.433 285.114 822.673 284.74 822.832C284.369 822.992 283.929 823.052 283.422 823.013L281.761 822.885L281.847 821.766L283.282 821.877C283.551 821.897 283.776 821.868 283.957 821.789C284.141 821.708 284.282 821.588 284.381 821.429C284.482 821.268 284.541 821.079 284.558 820.862C284.575 820.643 284.545 820.448 284.47 820.278C284.396 820.106 284.275 819.968 284.106 819.864C283.937 819.758 283.716 819.694 283.446 819.673L282.504 819.601L282.083 825.064L280.687 824.957Z" fill="#00A650"/>
<mask id="mask0_2282_1256" style="mask-type:luminance" maskUnits="userSpaceOnUse" x="-599" y="653" width="1310" height="499">
<path d="M710.065 653H-599V1151.08H710.065V653Z" fill="white"/>
</mask>
<g mask="url(#mask0_2282_1256)">
<path d="M992.415 1002.85C678.856 959.371 370.322 952.356 61.5778 1026.71C-32.6749 1049.41 -126.104 1075.76 -221.658 1092.68C-358.029 1116.82 -495.329 1118.5 -633.057 1105.99C-628.74 1089.59 -626.971 1081.42 -626.863 1067.42C-494.05 1077.38 -360.859 1077.59 -229.694 1052.14C-144.779 1035.66 -62.4242 1009.18 20.8531 986.238C340.557 898.173 671.461 902.945 999.958 926.036C1000.38 951.703 995.809 977.503 992.415 1002.85Z" fill="#F47216"/>
<path d="M944.23 1138.02C788.278 1075.22 626.24 1037.73 458.933 1035.4C341.411 1033.77 224.517 1048.63 108.761 1068.73C-155.273 1114.57 -412.108 1170.85 -680.895 1129.99C-677.708 1116.29 -674.914 1108.05 -669.573 1091.16C-527.757 1109.9 -386.224 1109.32 -244.685 1088.48C-138.755 1072.88 -12.0408 1036.84 93 1016C208.378 986.44 299.268 974.446 412.486 971.612C596.69 967.001 765.761 939.924 944.23 986.02C940.854 1012.52 943.726 1111.18 944.23 1138.02Z" fill="#00A650"/>
</g>
<mask id="mask1_2282_1256" style="mask-type:luminance" maskUnits="userSpaceOnUse" x="-31" y="776" width="741" height="286">
<path d="M710 776H-31V1062H710V776Z" fill="white"/>
</mask>
<g mask="url(#mask1_2282_1256)">
<path d="M483.551 733.69C478.25 733.695 472.955 733.904 467.673 734.349C423.51 738.069 382.121 756.756 343.559 777.726C305.344 798.507 268.433 822.116 227.983 838.385C187.445 854.689 143.723 861.876 100.153 859.07C59.2651 856.437 19.1962 845.004 -16.9921 825.608C-51.2298 807.257 -81.771 782.065 -106.322 751.773C-106.684 751.327 -106.054 750.684 -105.69 751.133C-102.664 754.867 -99.5571 758.533 -96.3543 762.113C-70.3279 791.206 -38.4557 814.901 -3.28986 831.502C35.2375 849.69 77.5911 858.943 120.11 858.765C164.587 858.578 207.514 847.636 247.739 828.786C287.155 810.315 323.663 786.273 362.546 766.761C400.244 747.844 440.955 732.822 483.552 732.787C484.128 732.786 484.127 733.69 483.551 733.69ZM839.124 1115.42C787.194 1071.62 727.529 1037.54 663.871 1014.45C600.232 991.368 532.683 979.145 465.048 978.854C431.232 978.708 397.397 981.534 364.091 987.46C327.896 993.9 292.535 1004.21 257.268 1014.5C186.732 1035.07 113.009 1056.89 38.9485 1044.64C-26.6052 1033.8 -87.5778 997.17 -128.63 944.487C-133.988 937.611 -138.976 930.459 -143.634 923.082C-143.94 922.596 -144.744 922.995 -144.434 923.487C-109.902 978.191 -55.564 1019.16 5.91125 1037.83C75.6404 1059.01 147.789 1046.04 216.442 1027.13C252.697 1017.14 288.556 1005.67 325.088 996.72C359.694 988.238 394.859 982.646 430.429 980.648C499.488 976.768 569.162 985.534 635.313 1005.85C701.191 1026.08 763.686 1057.8 818.5 1099.94C825.331 1105.2 832.032 1110.62 838.621 1116.17C839.066 1116.55 839.562 1115.79 839.124 1115.42Z" fill="#EADDB5"/>
</g>
<path d="M476.87 918.274C475.049 909.815 472.947 901.42 470.883 893.018C470.005 889.446 469.132 885.872 468.328 882.283C467.694 879.45 466.79 876.413 466.574 873.518C466.296 869.801 470.276 865.879 473.963 868.03C476.091 869.272 477.088 871.693 477.921 873.887C478.991 876.704 479.972 879.554 480.907 882.418C483.406 890.076 485.588 897.833 487.825 905.57C488.113 906.566 490.773 916.817 491.118 916.78C491.105 916.781 476.87 918.274 476.87 918.274Z" fill="#D8986C"/>
<path d="M482.395 895.339C480 895.121 477.577 895.388 475.291 896.135C474.787 896.299 474.457 895.541 474.963 895.376C477.393 894.582 479.948 894.286 482.495 894.518C483.025 894.566 482.924 895.387 482.395 895.339ZM478.785 882.715C476.569 882.438 474.317 882.729 472.242 883.55C471.747 883.746 472.075 884.505 472.57 884.309C474.512 883.54 476.614 883.277 478.685 883.535C479.213 883.601 479.313 882.781 478.785 882.715Z" fill="#AA6231"/>
<path d="M461.629 950.509C464.912 978.301 477.21 1041.23 484.918 1069.52L539.692 1052.81C527.093 1026.23 498.949 969.971 491.8 944.984L461.629 950.509Z" fill="#D8986C"/>
<path d="M491.798 944.985C487.702 950.795 470.441 955.266 459.495 951.66C447.363 946.478 442.453 933.3 438.988 916.634L485.228 904.885L491.798 944.985Z" fill="#D8986C"/>
<path d="M458.724 941.348C458.851 941.313 458.96 941.22 459.011 941.087C463.925 928.175 474.664 926.379 474.77 926.358C475.015 926.324 475.164 926.103 475.129 925.87C475.093 925.636 474.875 925.476 474.641 925.511C474.528 925.526 463.31 927.382 458.209 940.782C458.125 941.003 458.236 941.25 458.457 941.335C458.547 941.369 458.639 941.372 458.724 941.348Z" fill="#AA6231"/>
<path d="M470.5 896.867C467.745 894.055 462.563 894.787 459.637 897.783C458.214 899.24 457.8 901.409 458.54 903.306L465.739 921.76C465.739 921.76 469.031 925.055 474.032 923.14C478.482 921.436 478.153 915.492 478.153 915.492C477.137 908.833 475.091 902.258 470.5 896.867Z" fill="#D8986C"/>
<path d="M455.924 900.943C457.006 901 457.982 901.637 458.507 902.585C461.526 908.049 463.898 913.898 465.415 920.256C465.963 921.612 466.043 923.129 465.557 924.507C464.558 927.34 462.286 928.6 459.918 928.483C458.022 928.389 456.373 927.149 455.597 925.416C453.51 920.75 451.352 915.928 449.13 910.963C446.995 906.191 450.562 900.733 455.785 900.938C455.83 900.939 455.877 900.941 455.924 900.943Z" fill="#D8986C"/>
<path d="M461.855 919.893C462.724 919.783 463.536 920.399 463.684 921.263C463.938 922.758 463.919 925.05 461.7 925.886C459.54 926.7 458.06 924.988 457.267 923.628C456.798 922.824 457.098 921.791 457.908 921.333C458.916 920.762 460.376 920.081 461.855 919.893Z" fill="#FFCFC0"/>
<path d="M441.993 908.201C441.512 908.562 441.055 908.978 440.637 909.429C438.801 911.411 438.279 914.263 439.223 916.795C441.232 922.185 443.581 926.906 446.576 930.359C447.952 931.947 450.075 932.772 452.139 932.383C454.114 932.011 455.822 930.669 456.362 928.542C456.573 927.711 456.553 926.836 456.361 926.001C455.167 920.801 452.394 915.271 448.895 909.589C447.434 907.215 444.224 906.53 441.993 908.201Z" fill="#D8986C"/>
<path d="M451.51 924.644C452.672 924.219 453.965 924.85 454.283 926.046C454.669 927.5 454.675 929.396 452.636 930.394C450.618 931.382 449.109 930.275 448.175 929.116C447.395 928.149 447.67 926.725 448.712 926.049C449.597 925.475 450.528 925.003 451.51 924.644Z" fill="#FFCFC0"/>
<path d="M453.38 932.478C455.093 931.808 456.331 930.437 456.785 928.648C456.91 928.158 456.964 927.637 456.944 927.102C456.936 926.862 456.735 926.676 456.496 926.683C456.255 926.691 456.069 926.893 456.077 927.132C456.093 927.585 456.048 928.024 455.943 928.435C455.478 930.268 454.026 931.58 452.061 931.955C450.193 932.308 448.217 931.587 446.905 930.074C445.594 928.561 444.335 926.705 443.162 924.557C443.047 924.348 442.786 924.275 442.573 924.384C442.363 924.5 442.285 924.763 442.4 924.973C443.602 927.175 444.898 929.082 446.249 930.641C447.762 932.387 450.051 933.217 452.221 932.807C452.628 932.731 453.015 932.621 453.38 932.478Z" fill="#AA6231"/>
<path d="M474.236 923.527C478.882 921.709 478.605 915.722 478.591 915.468C477.753 909.967 476.349 905.464 474.296 901.659C474.182 901.448 473.921 901.357 473.708 901.483C473.497 901.597 473.418 901.86 473.532 902.071C475.538 905.787 476.911 910.198 477.729 915.557C477.728 915.571 477.977 921.132 473.918 922.72C473.905 922.725 473.894 922.729 473.881 922.734C473.278 922.965 472.668 923.128 472.068 923.219C469.802 923.559 467.507 922.603 466.079 920.725C465.933 920.534 465.662 920.493 465.471 920.642C465.28 920.787 465.243 921.059 465.388 921.25C467.008 923.381 469.617 924.464 472.197 924.077C472.86 923.976 473.531 923.797 474.192 923.544C474.206 923.539 474.221 923.533 474.236 923.527Z" fill="#AA6231"/>
<path d="M462.441 928.521C464.049 927.891 465.301 926.549 465.97 924.651C466.479 923.209 466.426 921.59 465.821 920.092C464.564 914.804 462.598 909.521 459.997 904.454C459.888 904.242 459.627 904.153 459.413 904.267C459.2 904.376 459.115 904.637 459.225 904.851C461.794 909.856 463.736 915.073 464.996 920.356C465.542 921.718 465.589 923.119 465.151 924.362C464.295 926.79 462.348 928.168 459.942 928.049C458.273 927.966 456.723 926.863 455.996 925.238L449.529 910.784C449.43 910.565 449.167 910.473 448.955 910.565C448.736 910.663 448.638 910.919 448.736 911.138L455.203 925.592C456.063 927.512 457.906 928.816 459.899 928.915C460.812 928.961 461.668 928.824 462.441 928.521Z" fill="#AA6231"/>
<path d="M491.157 913.319L493.528 915.168C497.525 918.284 499.107 923.591 497.468 928.386L491.796 944.985L484.151 923.31C484.151 923.31 482.424 925.859 474.043 925.948C468.064 926.012 466.302 920.689 465.783 917.632C465.587 916.482 466.324 915.383 467.465 915.138C473.736 913.792 479.675 912.382 485.58 911.714C487.574 911.488 489.575 912.084 491.157 913.319Z" fill="#D8986C"/>
<path d="M474.397 917.482C471.245 918.042 469.563 916.294 468.732 914.864C472.152 914.123 475.481 913.379 478.762 912.765C478.553 914.455 477.674 916.9 474.397 917.482Z" fill="#FFCFC0"/>
<path d="M480.704 925.58C483.64 924.769 484.457 923.624 484.507 923.551C484.64 923.355 484.589 923.088 484.393 922.956C484.198 922.825 483.934 922.875 483.801 923.065C483.768 923.11 481.962 925.436 474.039 925.52C468.411 925.581 466.716 920.56 466.207 917.561C466.049 916.634 466.635 915.773 467.557 915.558C468.538 915.348 469.512 915.135 470.478 914.924C475.72 913.781 480.671 912.702 485.63 912.141C486.459 912.047 487.297 912.102 488.122 912.306C488.35 912.362 488.583 912.222 488.641 911.993C488.698 911.762 488.557 911.53 488.327 911.474C487.404 911.246 486.465 911.184 485.533 911.289C480.531 911.856 475.559 912.94 470.295 914.087C469.33 914.297 468.357 914.51 467.376 914.721C465.996 915.011 465.127 916.325 465.361 917.705C465.916 920.973 467.783 926.445 474.049 926.378C476.996 926.345 479.148 926.009 480.704 925.58Z" fill="#AA6231"/>
<path d="M469.502 952.317C475.221 951.599 480.793 949.867 485.917 947.231C486.404 946.98 486.843 947.711 486.355 947.963C481.084 950.675 475.382 952.432 469.502 953.17C468.96 953.238 468.962 952.385 469.502 952.317ZM482.156 955.374C483.264 957.906 484.373 960.439 485.48 962.972C485.7 963.473 486.43 963.031 486.213 962.534C485.104 960.001 483.996 957.469 482.888 954.936C482.668 954.435 481.938 954.877 482.156 955.374ZM480.521 975.841C480.585 976.381 481.439 976.383 481.374 975.841C480.591 969.256 479.171 962.763 477.118 956.458C476.948 955.937 476.126 956.163 476.296 956.685C478.325 962.914 479.747 969.335 480.521 975.841Z" fill="#AA6231"/>
<path d="M460.497 966.192L462.868 983.948C477.746 983.487 491.293 980.191 506.821 973.784L498.469 955.733C497.868 954.433 496.261 953.931 495.046 954.687C485.827 960.427 475.119 963.388 462.873 963.476C461.423 963.486 460.304 964.754 460.497 966.192Z" fill="#70200E"/>
<path d="M463.18 979.238C476.794 978.051 490.607 975.119 504.581 970.755C506.425 970.179 508.41 971.091 509.182 972.862C523.945 1006.69 536.666 1039.28 555.914 1070.11L477.642 1085.34C468.38 1049.66 461.975 1015.43 459.718 983.299C459.572 981.224 461.108 979.418 463.18 979.238Z" fill="#FA9161"/>
<path d="M473.022 980.644C472.93 979.803 472.844 978.961 472.756 978.119C471.029 978.37 469.305 978.593 467.583 978.79C470.472 1006.53 475.658 1034.01 483.129 1060.89C485.19 1068.3 487.419 1075.66 489.807 1082.97L494.966 1081.97C484.156 1049.07 476.787 1015.07 473.022 980.644Z" fill="#AF4022"/>
<path d="M502.911 975.067C502.624 973.887 502.345 972.706 502.069 971.524C500.397 972.026 498.727 972.506 497.06 972.966C503.738 1001.39 513.353 1029.13 525.771 1055.56C528.721 1061.84 531.832 1068.04 535.092 1074.16L540.471 1073.12C523.906 1042.18 511.194 1009.18 502.911 975.067Z" fill="#AF4022"/>
<path d="M486.487 977.826C486.34 977.116 486.2 976.404 486.056 975.694C484.353 976.067 482.653 976.417 480.955 976.742C486.626 1004.71 495.38 1032.03 504.944 1058.9C507.291 1065.49 509.691 1072.07 512.108 1078.64L517.303 1077.62C505.256 1044.94 493.586 1011.99 486.487 977.826Z" fill="#AF4022"/>
<path d="M462.334 1009C481.525 1006.05 500.477 1001.85 518.786 995.151C518.093 993.536 517.398 991.918 516.703 990.297C498.973 996.763 480.414 1000.9 461.687 1003.81C461.894 1005.54 462.107 1007.27 462.334 1009Z" fill="#D35A31"/>
<path d="M527.726 1015.66C507.957 1023.98 487.381 1030.35 466.358 1034.63C466.668 1036.34 466.98 1038.05 467.308 1039.77C488.728 1035.43 509.718 1028.97 529.889 1020.46C529.163 1018.86 528.443 1017.26 527.726 1015.66Z" fill="#D35A31"/>
<path d="M460.53 993.009C460.608 993.831 460.678 994.649 460.76 995.473C465.485 994.708 470.193 993.838 474.874 992.834C487.836 990.053 500.608 986.364 513.061 981.813C512.733 981.052 512.406 980.292 512.077 979.531C507.863 981.071 503.617 982.523 499.334 983.861C486.639 987.828 473.657 990.877 460.53 993.009Z" fill="#70200E"/>
<path d="M494.736 1014.87C485.86 1017.44 476.866 1019.59 467.821 1021.46C466.629 1021.7 465.434 1021.93 464.241 1022.17C464.37 1022.99 464.502 1023.81 464.635 1024.63C464.722 1024.61 464.809 1024.6 464.895 1024.58C474.057 1022.75 483.167 1020.65 492.17 1018.16C500.884 1015.74 509.503 1012.97 517.949 1009.74C519.992 1008.96 522.024 1008.15 524.044 1007.31C523.714 1006.56 523.383 1005.8 523.054 1005.04C522.109 1005.43 521.163 1005.82 520.213 1006.19C511.877 1009.52 503.359 1012.39 494.736 1014.87Z" fill="#70200E"/>
<path d="M498.489 1080.38C494.608 1069.62 491.146 1058.7 488.116 1047.66C485.103 1036.68 482.513 1025.59 480.355 1014.41C478.197 1003.23 476.47 991.968 475.182 980.657C475.073 979.706 474.972 978.752 474.871 977.8C474.598 977.842 474.326 977.886 474.053 977.928C475.228 988.886 476.812 999.8 478.804 1010.64C480.871 1021.89 483.374 1033.05 486.305 1044.1C489.208 1055.05 492.527 1065.88 496.26 1076.57C496.822 1078.18 497.396 1079.78 497.976 1081.38L498.796 1081.22C498.694 1080.94 498.59 1080.66 498.489 1080.38Z" fill="#70200E"/>
<path d="M484.649 1080.8C482.148 1071.4 480.056 1061.88 478.063 1052.36C476.019 1042.6 474.175 1032.8 472.533 1022.96C470.89 1013.12 469.449 1003.25 468.211 993.357C467.609 988.545 467.057 983.727 466.552 978.904C466.281 978.933 466.009 978.966 465.738 978.994C466.122 982.655 466.524 986.314 466.963 989.969C468.159 999.917 469.559 1009.84 471.163 1019.73C472.774 1029.66 474.59 1039.56 476.611 1049.42C478.6 1059.13 480.741 1068.81 483.18 1078.41C483.651 1080.26 484.146 1082.12 484.673 1083.97L485.482 1083.81C485.195 1082.81 484.917 1081.8 484.649 1080.8Z" fill="#70200E"/>
<path d="M510.246 1077.32C506.771 1069.1 503.502 1060.79 500.442 1052.4C497.369 1043.98 494.507 1035.48 491.86 1026.91C489.213 1018.34 486.781 1009.71 484.568 1001.02C482.548 993.086 480.721 985.107 479.067 977.091C478.795 977.141 478.523 977.19 478.251 977.238C479.69 984.208 481.26 991.15 482.975 998.058C485.127 1006.72 487.494 1015.33 490.074 1023.87C492.665 1032.46 495.471 1040.98 498.489 1049.42C501.507 1057.86 504.736 1066.23 508.173 1074.51C508.8 1076.02 509.441 1077.52 510.082 1079.03L510.912 1078.87C510.692 1078.35 510.465 1077.84 510.246 1077.32Z" fill="#70200E"/>
<path d="M513.708 1057.92C509.84 1048 506.32 1037.95 503.154 1027.79C499.961 1017.53 497.131 1007.17 494.672 996.711C492.961 989.435 491.432 982.117 490.082 974.765C489.814 974.829 489.546 974.896 489.278 974.96C490.398 981.053 491.638 987.123 493.007 993.165C495.357 1003.54 498.072 1013.83 501.14 1024.02C504.222 1034.25 507.664 1044.38 511.456 1054.37C514.344 1061.98 517.437 1069.51 520.728 1076.96L521.575 1076.79C518.818 1070.56 516.183 1064.27 513.708 1057.92Z" fill="#70200E"/>
<path d="M539.722 1063.71C534.997 1055.66 530.641 1047.39 526.666 1038.95C522.692 1030.5 519.098 1021.87 515.901 1013.1C512.716 1004.36 509.924 995.474 507.539 986.483C506.177 981.347 504.954 976.175 503.863 970.974C503.6 971.056 503.338 971.135 503.075 971.216C503.92 975.23 504.84 979.229 505.844 983.207C508.137 992.292 510.845 1001.27 513.955 1010.11C517.065 1018.95 520.575 1027.65 524.472 1036.17C528.355 1044.67 532.621 1052.98 537.254 1061.09C539.44 1064.91 541.711 1068.69 544.061 1072.42L544.929 1072.25C543.147 1069.43 541.41 1066.59 539.722 1063.71Z" fill="#70200E"/>
<path d="M498.699 988.874C501.222 997.776 504.002 1006.6 507.035 1015.34C510.068 1024.09 513.352 1032.74 516.882 1041.29C520.413 1049.84 524.19 1058.29 528.207 1066.63C529.515 1069.34 530.858 1072.04 532.216 1074.72L533.051 1074.56C532.13 1072.74 531.216 1070.92 530.319 1069.09C526.28 1060.84 522.478 1052.48 518.918 1044.02C515.357 1035.56 512.038 1027 508.967 1018.35C505.883 1009.67 503.048 1000.9 500.468 992.049C498.665 985.868 496.995 979.65 495.444 973.402C495.18 973.473 494.917 973.545 494.653 973.614C495.922 978.722 497.263 983.811 498.699 988.874Z" fill="#70200E"/>
<path d="M133.677 958.597C133.462 958.62 133.232 958.646 132.994 958.644C130.227 958.639 127.482 958.763 124.763 959.015C114.383 959.929 104.407 962.633 94.8602 967.294C93.3797 968.022 91.83 968.531 90.2379 968.814C87.2134 969.388 84.0724 969.186 81.1112 968.198C73.7948 965.754 63.5593 961.113 59.7409 953.443C59.4787 952.934 59.2475 952.392 59.0463 951.844C54.1228 938.163 70.4335 912.672 70.4335 912.672C73.4317 901.329 77.0565 891.066 79.7 883.351C81.7564 876.81 89.5219 877.218 88.831 885.078C88.0076 890.379 85.619 902.514 82.6868 913.682C88.7461 899.471 94.484 886.176 98.8081 877.124C103.193 870.69 109.716 873.83 108.818 880.056C105.563 890.162 100.681 903.038 95.2618 916.788C103.041 901.551 110.674 887.488 118.045 875.696C119.699 873.033 123.365 872.061 126.017 873.734C126.203 873.845 126.383 873.965 126.552 874.104C128.695 875.723 129.363 878.653 128.286 881.109C122.581 894.096 115.815 907.783 108.295 921.953C116.143 911.303 123.694 901.572 130.739 893.402C131.833 892.142 133.24 891.156 134.853 890.71C139.492 889.438 142.961 892.884 142.137 897.931C141.959 899.009 141.523 900.034 140.945 900.959C133.631 912.696 114.591 942.209 114.591 942.209L125.736 944.169C127.775 944.53 129.707 945.257 131.452 946.299C133.595 947.58 135.447 949.328 136.858 951.456C138.761 954.343 136.956 958.126 133.677 958.597Z" fill="#683916"/>
<path d="M63.8191 947.837L-16.5532 1058.15L32.9597 1088.45L93.1575 962.726L63.8191 947.837Z" fill="#683916"/>
<path d="M133.678 958.598C133.463 958.62 133.233 958.647 132.995 958.644C130.228 958.64 127.484 958.764 124.765 959.015C125.58 957.714 127.524 955.135 130.051 955.499C132.071 955.786 133.144 957.384 133.678 958.598Z" fill="#9E5D39"/>
<path d="M113.62 928.88C111.145 927.351 108.595 925.945 105.978 924.674C96.6642 920.15 86.5255 917.343 76.214 916.42C75.5276 916.358 75.5356 915.283 76.2247 915.344C79.1683 915.608 82.0988 916.015 85.0009 916.575C95.31 918.561 105.24 922.443 114.172 927.958C114.761 928.32 114.209 929.244 113.62 928.88ZM81.086 902.155C81.145 901.895 81.0076 901.542 80.7106 901.493C79.5101 901.294 78.2956 901.241 77.0836 901.367C76.8046 901.396 76.5302 901.587 76.5403 901.9C76.5491 902.164 76.7733 902.474 77.0729 902.443C77.6444 902.384 78.2192 902.361 78.7936 902.377C79.0759 902.386 79.3584 902.402 79.64 902.429C79.7847 902.443 79.9299 902.459 80.0748 902.478C80.1008 902.481 80.1274 902.484 80.1534 902.487C80.1577 902.488 80.1758 902.491 80.2075 902.495C80.2793 902.506 80.3519 902.518 80.4236 902.529C80.7006 902.576 81.0164 902.459 81.086 902.155ZM84.4973 890.79C84.5815 890.485 84.3932 890.236 84.1219 890.128C82.7683 889.593 81.2397 889.521 79.8369 889.901C79.5563 889.977 79.3753 890.269 79.447 890.554C79.5169 890.833 79.8188 891.021 80.1 890.944C80.7488 890.768 81.3041 890.708 81.9868 890.746C82.5984 890.781 83.2141 890.92 83.8357 891.165C84.1057 891.273 84.4255 891.049 84.4973 890.79ZM93.8104 909.099C93.89 908.811 93.713 908.524 93.4349 908.437C92.0822 908.015 90.7289 907.594 89.3762 907.172C89.0988 907.086 88.79 907.274 88.7141 907.548C88.6344 907.836 88.8113 908.123 89.0886 908.209C90.4414 908.631 91.7947 909.052 93.1474 909.474C93.4261 909.56 93.7349 909.372 93.8104 909.099ZM99.1238 893.807C98.0496 893.167 96.7884 892.847 95.5391 892.917C95.2584 892.932 94.9862 893.147 94.9958 893.449C95.0053 893.725 95.2281 894.009 95.5284 893.993C95.8126 893.977 96.0966 893.98 96.3795 894.006C96.4489 894.012 96.5172 894.02 96.5865 894.029C96.6025 894.032 96.6915 894.045 96.6915 894.045C96.8318 894.069 96.9709 894.098 97.1089 894.132C97.3767 894.198 97.6352 894.286 97.8923 894.385C97.922 894.397 97.9374 894.404 97.9428 894.406C97.9681 894.417 97.9943 894.429 98.021 894.441C98.0726 894.464 98.1238 894.49 98.1748 894.514C98.3099 894.581 98.4425 894.654 98.5731 894.732C98.8147 894.876 99.1732 894.802 99.3103 894.546C99.4477 894.288 99.383 893.962 99.1238 893.807ZM108.42 914.035C106.849 912.603 104.894 911.631 102.791 911.29C102.505 911.244 102.213 911.364 102.129 911.666C102.058 911.922 102.215 912.281 102.504 912.328C104.416 912.637 106.209 913.472 107.643 914.78C108.153 915.243 108.932 914.503 108.42 914.035ZM117.392 890.406C116.61 889.865 115.765 889.431 114.878 889.088C114.615 888.986 114.277 889.2 114.216 889.464C114.146 889.771 114.31 890.016 114.592 890.126C114.696 890.167 114.801 890.21 114.905 890.252C114.911 890.255 114.909 890.254 114.913 890.256C114.938 890.266 114.962 890.277 114.987 890.288C115.034 890.309 115.082 890.331 115.129 890.352C115.325 890.443 115.519 890.539 115.71 890.641C116.1 890.848 116.476 891.08 116.84 891.331C117.072 891.491 117.446 891.389 117.578 891.145C117.724 890.873 117.64 890.579 117.392 890.406ZM122.659 922.103C121.002 920.18 118.801 918.776 116.366 918.065C115.702 917.872 115.413 918.908 116.079 919.102C118.341 919.761 120.346 921.063 121.883 922.847C122.334 923.371 123.109 922.625 122.659 922.103ZM134.332 904.454C132.811 903.022 131.114 901.786 129.277 900.79C128.67 900.461 128.116 901.382 128.726 901.713C130.481 902.664 132.102 903.83 133.555 905.198C134.057 905.672 134.836 904.93 134.332 904.454ZM105.507 939.048C97.2704 937.564 88.6648 939.145 81.5505 943.578C79.5407 944.83 77.6672 946.292 75.9569 947.929C75.4563 948.408 76.2009 949.185 76.7002 948.707C82.54 943.114 90.3266 939.807 98.4177 939.576C100.696 939.51 102.976 939.681 105.22 940.086C105.896 940.207 106.19 939.171 105.507 939.048ZM82.1391 967.448C75.2268 964.994 68.7342 961.4 62.9937 956.831C62.4594 956.406 61.6769 957.145 62.2162 957.574C68.1177 962.27 74.7437 965.96 81.8527 968.484C82.5038 968.717 82.7891 967.68 82.1391 967.448ZM66.2528 966.419C63.1414 969.763 60.1983 973.257 57.4272 976.889C57.0074 977.438 57.9346 977.985 58.3503 977.44C61.0632 973.885 63.9501 970.469 66.9966 967.195C67.4662 966.691 66.7249 965.912 66.2528 966.419ZM69.3538 971.99C69.5987 971.344 68.5609 971.06 68.3171 971.704C65.5949 978.886 62.459 985.903 58.928 992.724C58.6114 993.336 59.5325 993.891 59.8511 993.275C63.426 986.369 66.5982 979.26 69.3538 971.99Z" fill="#3D1C0B"/>
<path d="M46.7955 965.762C41.8925 971.256 38.6227 979.536 35.4111 985.396C48.1935 999.242 54.1372 1004.18 72.7918 1009.55C75.0744 1001.7 80.8566 996.44 84.4937 989.953C85.1923 988.706 84.7245 987.138 83.4484 986.499C70.9003 980.213 60.6313 973.642 50.1317 965.5C49.1157 964.713 47.6502 964.804 46.7955 965.762Z" fill="#C4D599"/>
<path d="M47.1133 997.021C46.769 996.731 46.425 996.435 46.0811 996.132C49.7612 987.784 54.17 979.769 59.2353 972.181C59.5929 972.429 59.9513 972.674 60.3098 972.919C55.2151 980.55 50.793 988.614 47.1133 997.021ZM39.7443 990.004C40.0814 990.353 40.4145 990.696 40.7449 991.032C43.929 982.805 47.9929 974.935 52.889 967.593C52.5424 967.332 52.1943 967.066 51.8472 966.803C46.9918 974.077 42.9365 981.865 39.7443 990.004ZM65.6776 1007.3C71.349 1000.37 76.3768 992.928 80.6806 985.073C80.2956 984.874 79.9025 984.676 79.5215 984.476C75.1875 992.387 70.1098 999.872 64.3753 1006.83C64.8016 1006.99 65.2354 1007.15 65.6776 1007.3ZM67.5755 977.652C67.2068 977.423 66.8321 977.2 66.4659 976.97C61.3811 984.705 56.2964 992.441 51.2116 1000.18C51.567 1000.42 51.927 1000.67 52.2891 1000.91C57.3851 993.155 62.4802 985.403 67.5755 977.652ZM74.1527 981.554C73.7687 981.338 73.3976 981.115 73.0174 980.896C69.1366 989.266 64.3092 997.169 58.6387 1004.45C59.0385 1004.64 59.4459 1004.83 59.8596 1005.01C65.4826 997.753 70.2844 989.878 74.1527 981.554Z" fill="#748F4A"/>
<path d="M-23.7803 1061.17C-8.10543 1033.89 9.31795 1007.55 30.8672 984.37C33.8382 981.174 38.8374 981.052 42.0457 984.01C50.2135 991.545 59.4793 997.371 69.7057 1001.7C73.9918 1003.52 75.7935 1008.61 73.6129 1012.72C60.4414 1037.56 46.9116 1069.2 34.1072 1104.08L-23.7803 1061.17Z" fill="#C4D599"/>
<path d="M24.3279 1087.32C24.3589 1086.88 24.417 1086.45 24.465 1086.02C27.2157 1083.93 29.7699 1081.58 32.0577 1079C33.2169 1077.69 34.4294 1076.34 35.27 1074.8C35.8866 1073.66 36.3865 1072.27 36.1311 1070.97C35.8601 1069.58 34.6983 1068.6 33.295 1068.5C31.5282 1068.38 30.0491 1069.45 29.0221 1070.8C27.9438 1072.22 27.1189 1073.88 26.3931 1075.5C25.6945 1077.05 25.1221 1078.67 24.6621 1080.31C24.176 1082.05 23.8361 1083.83 23.6255 1085.62C22.2086 1086.68 20.7244 1087.65 19.1662 1088.46C17.8813 1089.12 16.5074 1089.67 15.094 1089.98L16.0085 1090.66C18.4569 1089.98 20.7415 1088.69 22.8067 1087.25C23.0527 1087.08 23.2853 1086.89 23.5275 1086.71C23.2419 1090.03 23.4257 1093.39 24.0925 1096.65L25.1746 1097.46C24.3816 1094.15 24.0841 1090.73 24.3279 1087.32ZM24.5935 1084.87C24.9207 1082.59 25.4713 1080.33 26.2556 1078.16C26.7837 1076.7 27.412 1075.27 28.139 1073.9C28.9439 1072.38 29.8828 1070.55 31.4842 1069.74C32.7406 1069.11 34.5716 1069.24 35.1546 1070.71C35.603 1071.84 35.1204 1073.17 34.6017 1074.2C33.8631 1075.65 32.7222 1076.91 31.656 1078.13C30.3813 1079.6 29.0268 1080.99 27.5947 1082.3C26.6306 1083.18 25.6308 1084.05 24.5935 1084.87ZM48.654 1066.66C48.7803 1066.35 48.9065 1066.05 49.0331 1065.75C46.9682 1063.45 45.3809 1060.73 44.3278 1057.83C43.4578 1055.43 42.9407 1052.9 42.8095 1050.35C43.318 1049.82 43.8182 1049.29 44.3022 1048.75C45.9885 1046.85 47.5268 1044.82 48.8964 1042.68C49.8381 1041.21 51.4096 1039.21 50.8616 1037.33C50.3333 1035.53 48.0365 1035.13 46.5367 1035.93C44.6831 1036.91 43.8348 1039.17 43.2011 1041.05C42.2295 1043.93 41.822 1046.98 41.934 1050.02C40.8987 1051.07 39.8186 1052.07 38.6862 1053C36.2087 1055.04 32.4982 1057.12 29.536 1054.75C27.9912 1053.51 27.1659 1051.54 26.6797 1049.67C26.2956 1048.2 26.1198 1046.66 26.1208 1045.13C26.7194 1044.8 27.3066 1044.45 27.8617 1044.06C29.8162 1042.7 31.5253 1040.99 33.0762 1039.19C33.8897 1038.25 34.6633 1037.27 35.4182 1036.28C36.118 1035.36 36.8535 1034.45 37.4772 1033.48C38.3074 1032.19 39.0959 1030.35 37.9342 1028.99C36.4915 1027.32 34.1191 1028.24 32.6789 1029.37C29.6419 1031.75 27.4179 1035.15 26.2449 1038.81C25.6443 1040.68 25.3113 1042.64 25.2593 1044.6C24.214 1045.14 23.119 1045.6 21.9575 1045.9C18.5218 1046.81 14.9122 1046.25 12.0794 1044.06C9.41536 1042 7.62127 1038.83 7.1014 1035.51C6.89124 1034.17 6.89993 1032.81 7.08738 1031.48C11.1983 1029.62 14.269 1026.09 17.1223 1022.71C17.8103 1021.89 18.6204 1021.01 18.7465 1019.9C18.8429 1019.06 18.5446 1018.14 17.7729 1017.71C16.1241 1016.77 14.1691 1018.55 13.0125 1019.54C9.94319 1022.19 7.56776 1025.69 6.56304 1029.64C6.4631 1030.03 6.38838 1030.43 6.31932 1030.83C4.46833 1031.59 2.48111 1031.98 0.4068 1031.76C-1.347 1031.57 -3.04996 1030.94 -4.38997 1029.77C-4.40607 1029.76 -4.42027 1029.74 -4.43638 1029.73C-4.59827 1029.97 -4.76317 1030.21 -4.92507 1030.46C-4.72908 1030.63 -4.52458 1030.79 -4.30802 1030.94C-1.29999 1033.07 2.79985 1033.11 6.18589 1031.86C5.87439 1034.92 6.49026 1038 8.04996 1040.71C9.88338 1043.89 12.9886 1046.4 16.66 1047.04C19.602 1047.55 22.5954 1046.89 25.2618 1045.59C25.2974 1047.12 25.5034 1048.65 25.9074 1050.14C26.4543 1052.16 27.4241 1054.25 29.1308 1055.54C30.6358 1056.67 32.5034 1056.92 34.3006 1056.45C36.0736 1055.99 37.6731 1054.95 39.0799 1053.8C40.0947 1052.98 41.0657 1052.09 41.9989 1051.17C42.0274 1051.53 42.0573 1051.89 42.101 1052.24C42.555 1055.95 43.7867 1059.56 45.7281 1062.75C46.5509 1064.11 47.5348 1065.45 48.654 1066.66ZM7.29085 1030.39C7.69252 1028.53 8.4279 1026.72 9.41431 1025.09C10.365 1023.52 11.5479 1022.07 12.8895 1020.82C13.5708 1020.18 14.2931 1019.58 15.0583 1019.04C15.6512 1018.63 16.597 1018.06 17.3288 1018.45C18.3112 1018.99 17.8313 1020.34 17.3482 1021.04C16.7453 1021.91 15.9985 1022.7 15.3083 1023.5C13.9368 1025.08 12.5126 1026.64 10.9042 1027.99C9.78965 1028.92 8.57824 1029.75 7.29085 1030.39ZM26.1468 1044.11C26.3303 1040.74 27.3741 1037.39 29.1972 1034.54C30.1254 1033.09 31.2475 1031.75 32.5454 1030.61C33.2546 1029.99 34.0218 1029.36 34.9327 1029.08C35.8529 1028.79 37.0699 1028.97 37.5108 1029.93C38.1683 1031.37 36.7161 1033.09 35.9244 1034.16C34.5827 1035.96 33.2223 1037.76 31.7113 1039.43C30.0777 1041.23 28.2292 1042.87 26.1468 1044.11ZM42.7771 1049.14C42.775 1048.67 42.7839 1048.19 42.8099 1047.72C42.9004 1046.05 43.1558 1044.39 43.5821 1042.78C44.0365 1041.06 44.6466 1039.11 45.769 1037.71C46.3989 1036.92 47.2653 1036.34 48.3077 1036.4C49.1533 1036.44 49.9485 1036.92 50.0788 1037.81C50.197 1038.61 49.8124 1039.42 49.4395 1040.11C48.8958 1041.11 48.2711 1042.08 47.6358 1043.02C46.1881 1045.18 44.5599 1047.23 42.7771 1049.14ZM2.40249 1076.7C3.92033 1076.23 5.3667 1075.5 6.66441 1074.58C8.29454 1073.43 9.71671 1072 10.9825 1070.46C12.2323 1068.95 13.4576 1067.32 14.4271 1065.61C15.0931 1064.43 15.5725 1062.84 14.5609 1061.7C13.4816 1060.49 11.6448 1060.73 10.4056 1061.52C8.91426 1062.48 7.69542 1064.05 6.60551 1065.42C5.49987 1066.81 4.50566 1068.3 3.68077 1069.87C2.67984 1071.78 1.92332 1073.88 1.59503 1076.03C1.41978 1076.08 1.24979 1076.13 1.0711 1076.17C-0.597449 1076.52 -2.22336 1076.44 -3.7444 1076.02L-2.13341 1077.22C-0.911193 1077.32 0.307342 1077.22 1.49241 1076.94C1.39921 1077.93 1.38893 1078.92 1.50162 1079.91L1.50185 1079.91L2.56188 1080.7C2.32015 1079.36 2.2602 1078 2.40249 1076.7ZM6.3988 1067.14C7.36246 1065.8 8.43323 1064.53 9.58731 1063.36C10.5741 1062.35 12.5758 1060.85 13.8909 1062.26C14.9133 1063.36 13.7717 1065.08 13.1213 1066.06C12.0608 1067.65 10.9485 1069.21 9.68385 1070.65C7.74347 1072.85 5.33668 1074.79 2.54028 1075.76C3.09763 1072.62 4.54983 1069.7 6.3988 1067.14ZM13.7615 1004.46C13.5822 1004.69 13.4014 1004.92 13.222 1005.15C14.5394 1006.1 16.0154 1006.83 17.596 1007.23C19.4132 1007.7 21.2456 1007.65 23.0032 1007.22C22.7365 1009.97 23.4711 1012.71 25.4979 1014.79C28.2862 1017.66 32.4624 1018.57 36.315 1017.9C38.302 1017.55 40.1675 1016.84 41.9316 1015.92C41.8012 1017.59 42.0045 1019.28 42.7146 1020.87C44.2353 1024.28 47.7372 1025.97 51.373 1025.72C52.3923 1025.65 53.3647 1025.43 54.2844 1025.1C54.316 1026.83 54.5185 1028.56 54.9174 1030.24C55.8013 1033.97 57.5827 1037.47 60.0464 1040.4C60.1793 1040.12 60.3117 1039.82 60.444 1039.53C59.5495 1038.43 58.7496 1037.24 58.061 1036C56.1426 1032.53 55.1791 1028.62 55.161 1024.71C57.5482 1023.59 59.5475 1021.68 61.0046 1019.43C62.0867 1017.77 63.1193 1015.84 63.5467 1013.88C63.901 1012.26 63.3709 1010.42 61.5153 1010.12C59.4567 1009.79 57.9986 1011.46 57.115 1013.09C56.1861 1014.81 55.5024 1016.66 55.0248 1018.55C54.5631 1020.38 54.3166 1022.27 54.2801 1024.16C51.7965 1025.13 48.9046 1025.17 46.5419 1023.88C43.5472 1022.25 42.4362 1018.65 42.8211 1015.43C44.4276 1014.51 45.9498 1013.42 47.3895 1012.27C48.2995 1011.54 49.1876 1010.78 50.0701 1010.01C50.7455 1009.43 51.442 1008.86 52.0071 1008.16C52.8973 1007.06 53.5515 1005.42 52.4249 1004.24C51.0792 1002.82 48.963 1003.56 47.7342 1004.7C46.2304 1006.11 44.9758 1007.93 43.9486 1009.7C43.0289 1011.29 42.3489 1013.06 42.0496 1014.88C41.3521 1015.26 40.6417 1015.62 39.9014 1015.93C36.6746 1017.27 32.9614 1017.8 29.6356 1016.49C26.2932 1015.16 23.8868 1012.25 23.794 1008.59C23.7805 1008.04 23.8232 1007.5 23.8955 1006.97C25.2209 1006.55 26.4953 1005.93 27.6717 1005.16C29.2366 1004.13 30.6407 1002.87 31.9609 1001.55C33.2326 1000.27 34.5977 998.934 35.6355 997.459C36.3959 996.377 37.1001 994.729 35.9694 993.634C34.7801 992.482 32.9961 993.366 31.9085 994.204C30.0725 995.618 28.3192 997.311 26.8149 999.072C25.4422 1000.68 24.271 1002.49 23.5931 1004.5C23.3933 1005.1 23.2429 1005.7 23.1349 1006.31C22.3962 1006.51 21.6355 1006.65 20.8509 1006.69C18.2938 1006.84 15.8164 1005.94 13.7615 1004.46ZM57.0398 1015.27C57.7056 1013.7 58.6077 1011.45 60.4571 1011.02C61.2746 1010.83 62.2052 1011.05 62.5996 1011.85C62.9459 1012.56 62.7914 1013.43 62.5809 1014.15C62.0563 1015.96 61.1141 1017.75 60.0536 1019.29C58.9521 1020.9 57.5883 1022.32 55.9295 1023.35C55.6881 1023.5 55.4313 1023.63 55.1761 1023.76C55.2768 1020.86 55.8915 1017.97 57.0398 1015.27ZM44.7491 1010.04C45.691 1008.42 46.8578 1006.77 48.1999 1005.45C48.8459 1004.82 49.6748 1004.27 50.6172 1004.34C51.3822 1004.39 52.1152 1004.87 52.1609 1005.69C52.241 1007.14 50.6786 1008.34 49.7125 1009.17C47.5978 1011.01 45.4218 1012.84 43.028 1014.31C43.3644 1012.81 43.9777 1011.37 44.7491 1010.04ZM28.2743 998.745C29.027 997.941 29.8269 997.183 30.6458 996.446C31.3298 995.831 32.0078 995.173 32.7706 994.655C33.3231 994.281 34.0584 993.868 34.7536 993.965C35.4337 994.061 35.7686 994.687 35.6757 995.325C35.4666 996.765 34.1108 997.959 33.1892 998.98C32.0498 1000.24 30.8701 1001.48 29.5849 1002.59C27.9472 1004.02 26.0999 1005.26 24.0694 1006C24.7018 1003.26 26.3586 1000.79 28.2743 998.745ZM-12.5886 1066.42C-13.1112 1064.12 -13.0927 1061.83 -12.6838 1059.6C-12.1332 1059.14 -11.5955 1058.66 -11.0847 1058.17C-6.93162 1054.17 -3.927 1049.06 -2.50708 1043.47C-2.41852 1043.12 -2.92319 1042.81 -3.19389 1043.05C-7.98525 1047.38 -12.2565 1052.8 -13.485 1059.18C-15.6526 1060.97 -18.0645 1062.45 -20.6572 1063.49L-19.8203 1064.11C-17.6298 1063.17 -15.5602 1061.89 -13.6799 1060.42C-13.771 1061.13 -13.836 1061.85 -13.8462 1062.59C-13.879 1065 -13.4143 1067.43 -12.3963 1069.61L-10.6096 1070.93C-11.5328 1069.57 -12.2216 1068.03 -12.5886 1066.42ZM-12.3798 1058.23C-11.3826 1054.39 -9.25022 1050.8 -6.66165 1047.79C-5.75431 1046.74 -4.78902 1045.74 -3.7846 1044.78C-5.36748 1049.87 -8.39571 1054.6 -12.3798 1058.23Z" fill="#748F4A"/>
<path d="M305.181 943.63C299.689 947.081 283.587 944.78 275.639 937.897C267.246 929.272 267.743 916.451 270.683 901.202L313.742 907.561L305.181 943.63Z" fill="#9E5D39"/>
<path d="M278.559 938.793C268.278 971.746 263.174 1005.62 263.02 1040.37L314.691 1038.63C309.737 1009.03 304.738 972.28 305.18 943.63L278.559 938.793Z" fill="#9E5D39"/>
<path d="M308.39 892.648C312.571 891.342 318.01 893.833 317.325 899.574C316.677 904.997 315.739 910.8 313.435 915.789C311.697 919.566 307.649 922.935 303.541 920.011C299.87 917.4 301.753 912.426 302.227 908.814C302.864 903.973 302.457 894.502 308.39 892.648Z" fill="#9E5D39"/>
<path d="M276.22 895.472C275.678 895.551 275.132 895.684 274.603 895.862C272.273 896.645 271.016 898.895 270.667 901.327C269.926 906.505 269.746 911.297 270.634 915.357C271.042 917.223 272.377 918.806 274.196 919.394C275.934 919.956 277.881 919.629 279.239 918.166C279.768 917.595 280.133 916.887 280.344 916.136C281.654 911.465 281.847 905.843 281.526 899.784C281.392 897.253 278.728 895.108 276.22 895.472Z" fill="#9E5D39"/>
<path d="M304.745 895.622C303.77 892.178 299.313 890.507 295.673 891.625C293.903 892.169 292.629 893.721 292.394 895.558L290.109 913.424C290.109 913.424 291.303 917.488 296.129 918.135C300.424 918.711 302.749 913.823 302.749 913.823C304.835 908.065 306.064 901.925 304.745 895.622Z" fill="#9E5D39"/>
<path d="M290.725 893.978C291.565 894.495 292.067 895.428 292.073 896.414C292.105 902.09 291.453 907.792 289.898 913.529C289.745 914.85 289.15 916.096 288.161 916.985C286.13 918.811 283.768 918.829 281.927 917.705C280.455 916.804 279.677 915.096 279.813 913.375C280.177 908.741 280.553 903.951 280.94 899.02C281.313 894.281 286.535 891.476 290.617 893.913C290.653 893.934 290.689 893.956 290.725 893.978Z" fill="#9E5D39"/>
<path d="M321.505 916.332L322.457 919.068C324.061 923.677 322.565 928.797 318.733 931.819L305.179 943.63L310.615 920.751C310.615 920.751 307.885 921.91 301.059 917.6C296.19 914.527 297.548 909.3 298.726 906.555C299.17 905.522 300.34 905.019 301.391 905.418C307.168 907.608 312.708 909.572 317.834 912.119C319.564 912.979 320.87 914.507 321.505 916.332Z" fill="#9E5D39"/>
<path d="M292.538 894.857C292.523 897.254 292.507 899.651 292.492 902.048C292.488 902.53 291.738 902.542 291.74 902.059C291.755 899.766 291.77 897.473 291.786 895.18C291.966 895.562 292.069 895.981 292.071 896.414C292.075 897.014 292.066 897.614 292.054 898.215L292.394 895.558C292.424 895.319 292.474 895.085 292.538 894.857ZM304.758 895.692C304.754 895.669 304.751 895.645 304.746 895.622C304.726 895.554 304.697 895.491 304.675 895.425C304.479 897.154 304.157 898.867 303.707 900.549C303.582 901.016 304.31 901.199 304.435 900.731C304.971 898.729 305.32 896.682 305.504 894.618C305.23 894.95 304.981 895.309 304.758 895.692ZM280.77 904.7L281.602 896.624C281.367 897.095 281.184 897.603 281.067 898.143C280.975 897.963 280.864 897.792 280.749 897.625C280.506 899.986 280.263 902.349 280.019 904.711C279.97 905.191 280.721 905.175 280.77 904.7ZM315.248 910.903C313.873 914.956 312.86 919.125 312.262 923.366C312.196 923.841 312.923 924.026 312.99 923.548C313.58 919.356 314.578 915.234 315.93 911.223C315.702 911.119 315.479 911.007 315.248 910.903Z" fill="#75321B"/>
<path d="M275.837 940.651C274.496 943.142 273.6 946.259 272.944 949.711C272.78 950.575 273.431 951.379 274.309 951.397C285.015 951.606 295.414 952.222 305.422 953.359C306.288 953.458 307.039 952.762 306.988 951.893C306.813 948.886 306.9 945.963 307.218 943.111C307.301 942.361 306.801 941.665 306.058 941.537C296.529 939.892 286.835 939.421 277.002 939.932C276.517 939.956 276.067 940.223 275.837 940.651Z" fill="#75321B"/>
<path d="M298.192 943.736C299.468 948.704 296.475 953.765 291.508 955.041C286.54 956.317 281.479 953.324 280.203 948.357C278.928 943.389 281.92 938.327 286.887 937.052C291.855 935.776 296.917 938.769 298.192 943.736Z" fill="#1C2D0B"/>
<path d="M296.584 944.149C297.632 948.23 295.174 952.386 291.094 953.435C287.014 954.483 282.857 952.025 281.809 947.944C280.761 943.864 283.22 939.708 287.3 938.659C291.379 937.611 295.536 940.069 296.584 944.149Z" fill="white"/>
<path d="M288.934 947.162C288.873 947.18 288.807 947.183 288.742 947.17C288.604 947.144 288.49 947.048 288.438 946.918L287.173 943.693C287.091 943.483 287.194 943.245 287.405 943.162C287.624 943.083 287.853 943.183 287.936 943.394L288.965 946.018L292.408 942.379C292.564 942.216 292.823 942.208 292.987 942.363C293.151 942.519 293.159 942.778 293.003 942.942L289.116 947.049C289.067 947.105 289.003 947.142 288.934 947.162Z" fill="#1C2D0B"/>
<path d="M674.996 936.621C672.944 945.128 655.225 958.076 641.063 958.916C624.831 958.493 613.233 945.642 601.707 928.145L649.282 893.721L674.996 936.621Z" fill="#9E5D39"/>
<path d="M642.98 956.632C663.046 993.17 692.416 1032.86 719.698 1068.09L773.607 1030.43C737.681 1001.43 698.011 968.724 674.994 936.621L642.98 956.632Z" fill="#9E5D39"/>
<path d="M635.503 947.466C635.632 947.368 635.715 947.212 635.713 947.037C635.477 930.033 646.949 923.106 647.061 923.034C647.326 922.885 647.397 922.563 647.25 922.313C647.104 922.061 646.781 921.977 646.53 922.124C646.407 922.193 634.414 929.406 634.658 947.052C634.663 947.343 634.902 947.576 635.193 947.572C635.309 947.571 635.417 947.531 635.503 947.466Z" fill="#75321B"/>
<path d="M652.813 955.127C659.031 951.71 664.621 947.2 669.288 941.859C669.731 941.352 670.566 941.989 670.121 942.498C665.321 947.993 659.594 952.59 653.201 956.104C652.611 956.427 652.227 955.449 652.813 955.127ZM668.678 952.882C671.095 955.277 673.513 957.672 675.93 960.067C676.409 960.542 677.043 959.704 676.569 959.234C674.153 956.839 671.735 954.445 669.318 952.05C668.84 951.576 668.205 952.413 668.678 952.882ZM676.095 977.043C676.414 977.632 677.391 977.247 677.071 976.655C673.187 969.477 668.616 962.691 663.406 956.409C662.976 955.889 662.138 956.522 662.569 957.042C667.717 963.249 672.257 969.949 676.095 977.043Z" fill="#75321B"/>
<path d="M639.948 876.023C641.495 875.863 643.02 876.551 643.972 877.779C649.459 884.857 654.115 892.622 657.671 901.3C658.747 903.1 659.196 905.233 658.812 907.294C658.021 911.532 655.08 913.82 651.696 914.177C648.987 914.463 646.377 913.069 644.895 910.784C640.903 904.631 636.778 898.273 632.531 891.726C628.45 885.435 632.3 876.91 639.748 876.045C639.815 876.037 639.882 876.029 639.948 876.023Z" fill="#9E5D39"/>
<path d="M652.546 901.572C653.753 901.224 655.041 901.918 655.441 903.11C656.133 905.173 656.611 908.426 653.652 910.102C650.771 911.732 648.295 909.633 646.869 907.88C646.027 906.844 646.223 905.315 647.27 904.485C648.572 903.455 650.492 902.165 652.546 901.572Z" fill="#FFCFC0"/>
<path d="M629.102 889.283C624.952 886.897 619.127 889.459 616.687 893.928C615.501 896.101 615.73 898.777 617.221 900.754L631.714 919.986C631.714 919.986 636.65 922.761 641.874 918.874C646.522 915.416 644.182 908.567 644.182 908.567C640.803 901.107 636.247 894.084 629.102 889.283Z" fill="#9E5D39"/>
<path d="M642.234 919.262C647.073 915.606 644.781 908.69 644.681 908.396C641.891 902.233 638.768 897.424 635.112 893.646C634.91 893.436 634.574 893.415 634.366 893.633C634.157 893.836 634.152 894.17 634.355 894.378C637.925 898.068 640.981 902.78 643.702 908.783C643.704 908.801 645.823 915.227 641.596 918.421C641.583 918.431 641.571 918.44 641.558 918.45C640.928 918.919 640.268 919.31 639.595 919.614C637.055 920.757 634.054 920.392 631.765 918.664C631.533 918.488 631.202 918.529 631.027 918.767C630.851 918.999 630.897 919.33 631.129 919.506C633.726 921.467 637.136 921.877 640.029 920.576C640.772 920.24 641.498 919.811 642.189 919.297C642.203 919.286 642.218 919.273 642.234 919.262Z" fill="#75321B"/>
<path d="M602.122 917.175C601.676 917.756 601.279 918.394 600.938 919.058C599.44 921.982 599.766 925.492 601.704 928.145C605.828 933.793 610.13 938.546 614.77 941.603C616.904 943.009 619.659 943.277 621.948 942.142C624.137 941.056 625.695 938.925 625.628 936.258C625.601 935.216 625.29 934.198 624.79 933.284C621.683 927.59 616.62 922.03 610.655 916.53C608.166 914.233 604.183 914.486 602.122 917.175Z" fill="#9E5D39"/>
<path d="M618.668 933.292C619.889 932.412 621.609 932.727 622.375 934.022C623.304 935.596 623.936 937.814 621.877 939.652C619.839 941.471 617.71 940.672 616.234 939.622C615.004 938.747 614.857 936.989 615.855 935.856C616.702 934.894 617.638 934.035 618.668 933.292Z" fill="#FFCFC0"/>
<path d="M623.431 941.847C625.216 940.499 626.214 938.487 626.157 936.245C626.143 935.63 626.034 935.003 625.836 934.383C625.748 934.105 625.451 933.952 625.173 934.04C624.895 934.128 624.743 934.426 624.831 934.702C624.998 935.227 625.09 935.755 625.103 936.271C625.16 938.57 623.893 940.583 621.716 941.668C619.646 942.695 617.096 942.501 615.063 941.162C613.031 939.823 610.946 938.065 608.868 935.936C608.663 935.728 608.335 935.729 608.122 935.927C607.914 936.131 607.909 936.465 608.113 936.674C610.244 938.856 612.388 940.663 614.482 942.042C616.827 943.588 619.78 943.807 622.185 942.614C622.634 942.391 623.051 942.135 623.431 941.847Z" fill="#75321B"/>
<path d="M615.029 901.895C616.301 901.556 617.67 901.929 618.63 902.831C624.163 908.025 629.092 913.907 633.222 920.696C634.361 922.061 635.021 923.786 634.973 925.562C634.875 929.213 632.717 931.52 629.933 932.268C627.703 932.867 625.333 932.048 623.788 930.332C619.63 925.713 615.333 920.939 610.909 916.024C606.657 911.301 606.674 903.887 614.866 901.94C614.92 901.926 614.974 901.91 615.029 901.895Z" fill="#9E5D39"/>
<path d="M628.968 921.605C629.933 921.153 631.103 921.563 631.596 922.508C632.449 924.142 633.282 926.801 631.027 928.598C628.833 930.346 626.481 928.917 625.055 927.639C624.212 926.884 624.173 925.578 624.94 924.745C625.893 923.709 627.328 922.374 628.968 921.605Z" fill="#FFCFC0"/>
<path d="M632.862 931.371C634.487 930.043 635.434 928.021 635.5 925.577C635.551 923.718 634.885 921.865 633.626 920.357C630.197 914.708 625.95 909.329 621.049 904.438C620.844 904.233 620.509 904.227 620.303 904.438C620.097 904.645 620.097 904.978 620.304 905.184C625.145 910.016 629.34 915.327 632.771 920.969C633.911 922.342 634.49 923.945 634.446 925.547C634.362 928.676 632.623 930.997 629.796 931.757C627.834 932.284 625.628 931.586 624.181 929.978L611.301 915.67C611.106 915.453 610.767 915.446 610.556 915.631C610.339 915.825 610.321 916.158 610.516 916.375L623.396 930.683C625.108 932.584 627.727 933.405 630.071 932.776C631.142 932.489 632.08 932.01 632.862 931.371Z" fill="#75321B"/>
<path d="M659.892 900.678L663.444 901.718C669.431 903.47 673.649 908.825 673.95 915.055L674.993 936.621L656.41 915.29C656.41 915.29 655.59 918.991 646.041 922.895C639.23 925.681 634.798 920.39 632.817 917.128C632.071 915.9 632.415 914.309 633.61 913.511C640.175 909.125 646.331 904.817 652.783 901.373C654.962 900.21 657.521 899.985 659.892 900.678Z" fill="#9E5D39"/>
<path d="M642.603 913.048C639.251 915.119 636.533 913.882 634.934 912.624C638.51 910.223 641.982 907.862 645.457 905.671C645.984 907.699 646.088 910.895 642.603 913.048Z" fill="#FFCFC0"/>
<path d="M653.494 919.452C656.485 917.192 656.902 915.511 656.925 915.405C656.988 915.12 656.809 914.839 656.524 914.775C656.242 914.714 655.963 914.891 655.897 915.169C655.879 915.235 654.868 918.716 645.841 922.406C639.428 925.03 635.211 920.054 633.268 916.854C632.667 915.865 632.946 914.613 633.903 913.95C634.931 913.264 635.948 912.579 636.959 911.898C642.438 908.213 647.612 904.731 653.033 901.84C653.939 901.355 654.923 901.038 655.958 900.897C656.245 900.857 656.448 900.592 656.41 900.303C656.37 900.014 656.104 899.812 655.816 899.851C654.656 900.009 653.553 900.365 652.535 900.908C647.069 903.826 641.871 907.322 636.37 911.023C635.36 911.702 634.344 912.386 633.317 913.072C631.87 914.03 631.471 915.928 632.365 917.401C634.483 920.888 639.101 926.303 646.24 923.383C649.599 922.01 651.909 920.649 653.494 919.452Z" fill="#75321B"/>
<path d="M340.652 835.524C340.592 836.234 340.126 836.774 339.61 836.731L287.534 832.361C287.017 832.318 286.647 831.708 286.707 830.998C286.766 830.288 287.233 829.749 287.749 829.792L339.825 834.161C340.341 834.204 340.711 834.814 340.652 835.524Z" fill="#CEE2E4"/>
<path d="M340.277 844.364C340.218 845.073 339.592 845.6 338.878 845.54L266.953 839.506C266.238 839.446 265.71 838.822 265.769 838.112C265.829 837.403 266.453 836.876 267.169 836.937L339.093 842.971C339.807 843.031 340.337 843.654 340.277 844.364Z" fill="#CEE2E4"/>
<path d="M339.205 852.776C339.146 853.484 338.521 854.012 337.813 853.952L266.242 847.948C265.53 847.888 265.005 847.263 265.064 846.555C265.124 845.844 265.745 845.318 266.458 845.378L338.028 851.383C338.736 851.442 339.265 852.064 339.205 852.776Z" fill="#CEE2E4"/>
<path d="M301.488 856.818C301.429 857.528 301.093 858.079 300.739 858.049L264.996 855.05C264.641 855.02 264.403 854.422 264.463 853.711C264.522 853.002 264.858 852.451 265.212 852.481L300.955 855.48C301.309 855.509 301.548 856.108 301.488 856.818Z" fill="#CEE2E4"/>
<path d="M300.933 865.643C300.873 866.352 300.536 866.903 300.18 866.874L264.262 863.86C263.905 863.83 263.665 863.23 263.724 862.521C263.784 861.811 264.12 861.261 264.477 861.291L300.396 864.304C300.752 864.334 300.992 864.933 300.933 865.643Z" fill="#CEE2E4"/>
<path d="M300.038 874.069C299.979 874.777 299.642 875.33 299.289 875.3L263.548 872.301C263.192 872.271 262.954 871.671 263.013 870.963C263.073 870.252 263.408 869.702 263.763 869.732L299.505 872.73C299.858 872.76 300.098 873.358 300.038 874.069Z" fill="#CEE2E4"/>
<path d="M333.593 884.836C333.533 885.546 332.921 886.074 332.225 886.015L262.023 880.126C261.327 880.067 260.811 879.445 260.871 878.735C260.93 878.025 261.543 877.498 262.239 877.556L332.441 883.446C333.137 883.504 333.653 884.127 333.593 884.836Z" fill="#CEE2E4"/>
<path d="M333.215 893.675C333.155 894.385 332.539 894.913 331.84 894.854L261.294 888.935C260.592 888.877 260.075 888.254 260.134 887.544C260.194 886.835 260.808 886.307 261.509 886.366L332.055 892.285C332.755 892.343 333.274 892.966 333.215 893.675Z" fill="#CEE2E4"/>
<path d="M335.901 857.785L304.836 855.179L303.114 875.704L334.178 878.31L335.901 857.785Z" fill="#CEE2E4"/>
</g>
<path fill-rule="evenodd" clip-rule="evenodd" d="M256.486 321.207C256.448 321.031 256.566 321.012 256.692 321C271.212 323.82 283.742 333.689 292.261 342.921C301.606 353.047 309.444 364.521 316.249 376.214C308.476 395.934 298.187 417.445 297.018 444.044C295.77 472.425 303.535 494.204 315.009 510.219C315.216 510.507 316.221 510.838 315.63 511.46C298.421 506.17 286.52 496.106 277.372 483.128C268.383 470.375 261.745 454.074 259.38 434.738C257.536 419.65 257.839 402.177 260.621 388.209C261.523 383.684 263.159 379.522 264.137 375.181C268.534 355.657 268.171 332.805 256.486 321.207Z" fill="#FF8B00"/>
<path fill-rule="evenodd" clip-rule="evenodd" d="M402.277 516.009C402.106 514.573 403.457 513.566 404.139 512.493C409.299 504.355 415.346 494.569 418.201 484.162C421.719 471.336 421.697 454.85 420.476 439.081C419.292 423.772 416.633 410.842 412.411 398.549C408.257 386.456 403.003 375.517 397.521 365.048C409.38 346.394 424.613 326.656 451.702 323.275C453.767 323.018 452.849 323.488 451.909 325.55C448.82 332.324 446.495 340.187 446.738 350.365C446.991 360.876 449.592 370.804 451.702 379.731C453.896 389.015 456.982 397.751 458.732 407.028C462.119 424.978 463.403 452.156 458.111 469.066C455.453 477.565 451.162 485.156 446.117 491.4C435.903 504.044 422.157 513.824 402.277 516.009Z" fill="#FF8B00"/>
<path fill-rule="evenodd" clip-rule="evenodd" d="M361.124 323.275C361.291 323.315 361.331 323.483 361.538 323.483C380.773 353.827 399.402 385.555 407.239 427.294C409.274 438.133 410.846 450.14 410.341 461.622C409.832 473.215 407.19 483.069 402.897 491.608C394.782 507.75 380.288 521.951 357.195 520.146C335.383 518.44 322.411 503.811 314.596 487.885C310.36 479.252 308.097 469.193 307.565 457.486C307.051 446.185 309.406 434.687 311.908 424.606C316.765 405.037 324.552 387.297 332.794 370.633C341.169 353.693 351.146 337.985 361.124 323.275Z" fill="#FF8B00"/>
<path fill-rule="evenodd" clip-rule="evenodd" d="M536.072 325.343C536.485 325.872 535.237 326.717 534.624 327.411C525.173 338.114 517.32 353.431 517.253 373.733C517.196 391.257 520.072 408.618 519.321 425.018C518.555 441.767 514.61 455.188 508.361 467.619C502.528 479.22 494.755 490.034 485.199 498.224C476.251 505.894 461.351 513.023 445.08 507.116C444.151 507.032 445.553 506.207 445.908 506.082C459.733 492.513 468.832 475.648 471.55 451.694C474.119 429.057 470.009 407.903 465.76 389.035C465.16 386.37 463.803 382.942 463.899 380.97C464.031 378.242 467.933 372.573 469.275 370.217C475.183 359.849 482.556 351.082 490.782 343.954C502.509 333.795 515.513 326.056 536.072 325.343Z" fill="#FF8B00"/>
<path fill-rule="evenodd" clip-rule="evenodd" d="M175.007 327.618C174.97 327.442 175.088 327.422 175.215 327.41C213.148 329.939 232.507 351.044 249.868 374.146C244.928 395.993 244.462 422.894 248.627 445.077C251.689 461.382 257.121 475.759 264.964 487.47C267.581 491.379 270.39 494.828 273.028 498.431C251.733 505.172 234.58 493.522 224.638 482.921C208.001 465.18 196.307 443.153 196.307 409.095C196.307 376.155 189.38 347.321 175.42 328.031C175.196 327.98 175.28 327.62 175.007 327.618Z" fill="#FF8B00"/>
<path fill-rule="evenodd" clip-rule="evenodd" d="M311.494 520.351C311.686 521.166 310.445 522.349 309.632 523.454C307.659 526.137 304.035 530.598 303.428 534.62C302.413 541.356 304.214 547.908 305.496 553.438C291.495 559.003 276.205 554.096 266.412 548.476C254.419 541.594 244.395 528.615 226.293 533.586C230.527 522.585 239.958 516.782 249.868 511.46C253.627 511.954 257.105 513.341 260.827 513.735C268.538 514.549 277.134 511.711 283.161 509.599C283.34 509.535 283.793 509.302 283.989 509.392C292.686 513.416 300.793 518.519 311.494 520.351Z" fill="#2E7703"/>
<path fill-rule="evenodd" clip-rule="evenodd" d="M495.956 531.311C467.523 528.664 458.884 558.104 431.643 558.194C424.724 558.217 418.756 557.449 412.617 555.919C417.575 548.74 418.592 531.495 412.617 524.692C417.502 522.53 422.731 519.867 429.161 520.349C431.984 520.561 435.295 521.851 438.881 522.211C453.846 523.713 466.113 519.592 477.965 516.213C478.29 516.122 478.435 516.022 478.792 516.007C488.29 515.615 493.001 525.086 495.956 531.311Z" fill="#2E7703"/>
<path fill-rule="evenodd" clip-rule="evenodd" d="M324.728 524.901C334.749 528.695 347.786 531.25 361.33 531.519C375.054 531.789 387.66 528.469 397.726 524.901C405.115 528.135 408.288 539.997 404.343 548.268C402.788 551.531 399.84 554.744 396.899 556.748C394.234 558.562 390.822 559.538 388.214 560.677C382.609 563.123 376.664 567.159 373.324 572.464C370.539 576.887 368.086 585.997 361.95 586.941C359.873 587.26 356.585 586.229 354.919 585.286C351.47 583.331 349.659 579.459 347.061 575.98C344.396 572.412 340.387 569.55 336.514 566.674C328.968 561.071 318.549 556.876 316.456 545.994C314.583 536.261 319.096 527.903 324.728 524.901Z" fill="#2E7703"/>
<path d="M473.001 597.429V622.449H467.797V597.429H473.001Z" fill="url(#paint0_linear_2282_1256)"/>
<path d="M453.191 622.803C451.994 622.803 450.927 622.595 449.991 622.18C449.054 621.756 448.313 621.133 447.767 620.311C447.23 619.48 446.961 618.446 446.961 617.208C446.961 616.165 447.152 615.29 447.535 614.581C447.918 613.873 448.439 613.303 449.099 612.871C449.759 612.439 450.508 612.113 451.347 611.894C452.194 611.674 453.081 611.519 454.01 611.429C455.101 611.315 455.981 611.209 456.649 611.112C457.316 611.006 457.801 610.851 458.102 610.647C458.404 610.444 458.554 610.143 458.554 609.743V609.67C458.554 608.896 458.31 608.298 457.821 607.874C457.341 607.451 456.657 607.239 455.769 607.239C454.832 607.239 454.087 607.447 453.533 607.862C452.98 608.269 452.613 608.782 452.434 609.401L447.621 609.01C447.865 607.87 448.345 606.885 449.062 606.054C449.779 605.215 450.703 604.572 451.835 604.124C452.976 603.668 454.295 603.44 455.794 603.44C456.836 603.44 457.834 603.562 458.787 603.806C459.748 604.051 460.599 604.429 461.34 604.942C462.089 605.455 462.68 606.115 463.111 606.921C463.543 607.72 463.759 608.677 463.759 609.792V622.449H458.823V619.847H458.677C458.375 620.433 457.972 620.95 457.467 621.398C456.962 621.838 456.355 622.184 455.647 622.436C454.938 622.681 454.12 622.803 453.191 622.803ZM454.682 619.211C455.447 619.211 456.123 619.061 456.71 618.759C457.296 618.45 457.756 618.034 458.09 617.513C458.424 616.992 458.591 616.401 458.591 615.742V613.75C458.428 613.856 458.204 613.954 457.919 614.044C457.642 614.125 457.329 614.202 456.978 614.276C456.628 614.341 456.278 614.402 455.928 614.459C455.578 614.508 455.26 614.553 454.975 614.593C454.364 614.683 453.831 614.826 453.375 615.021C452.919 615.216 452.564 615.481 452.312 615.815C452.059 616.141 451.933 616.548 451.933 617.037C451.933 617.745 452.19 618.287 452.703 618.662C453.224 619.028 453.884 619.211 454.682 619.211Z" fill="url(#paint1_linear_2282_1256)"/>
<path d="M444.451 603.684V607.593H433.15V603.684H444.451ZM435.716 599.188H440.92V616.683C440.92 617.163 440.993 617.538 441.14 617.806C441.287 618.067 441.49 618.25 441.751 618.356C442.02 618.462 442.329 618.515 442.679 618.515C442.924 618.515 443.168 618.495 443.412 618.454C443.657 618.405 443.844 618.368 443.974 618.344L444.793 622.217C444.532 622.298 444.166 622.392 443.693 622.498C443.221 622.612 442.647 622.681 441.971 622.705C440.716 622.754 439.617 622.587 438.672 622.204C437.736 621.822 437.007 621.227 436.485 620.421C435.964 619.615 435.708 618.596 435.716 617.367V599.188Z" fill="url(#paint2_linear_2282_1256)"/>
<path d="M419.453 622.449V603.684H424.499V606.958H424.694C425.036 605.794 425.61 604.914 426.417 604.32C427.223 603.717 428.151 603.416 429.202 603.416C429.463 603.416 429.744 603.432 430.045 603.464C430.346 603.497 430.611 603.542 430.839 603.599V608.217C430.595 608.143 430.257 608.078 429.825 608.021C429.393 607.964 428.998 607.936 428.64 607.936C427.874 607.936 427.19 608.103 426.588 608.437C425.993 608.762 425.521 609.218 425.17 609.805C424.828 610.391 424.657 611.067 424.657 611.833V622.449H419.453Z" fill="url(#paint3_linear_2282_1256)"/>
<path d="M406.833 622.815C404.936 622.815 403.295 622.412 401.91 621.606C400.534 620.791 399.471 619.659 398.722 618.209C397.972 616.752 397.598 615.062 397.598 613.14C397.598 611.201 397.972 609.507 398.722 608.058C399.471 606.6 400.534 605.468 401.91 604.661C403.295 603.847 404.936 603.44 406.833 603.44C408.731 603.44 410.368 603.847 411.744 604.661C413.129 605.468 414.196 606.6 414.945 608.058C415.694 609.507 416.069 611.201 416.069 613.14C416.069 615.062 415.694 616.752 414.945 618.209C414.196 619.659 413.129 620.791 411.744 621.606C410.368 622.412 408.731 622.815 406.833 622.815ZM406.858 618.784C407.721 618.784 408.442 618.539 409.02 618.051C409.598 617.554 410.034 616.878 410.327 616.023C410.629 615.168 410.779 614.194 410.779 613.103C410.779 612.012 410.629 611.038 410.327 610.183C410.034 609.328 409.598 608.652 409.02 608.155C408.442 607.658 407.721 607.41 406.858 607.41C405.986 607.41 405.253 607.658 404.659 608.155C404.072 608.652 403.629 609.328 403.327 610.183C403.034 611.038 402.887 612.012 402.887 613.103C402.887 614.194 403.034 615.168 403.327 616.023C403.629 616.878 404.072 617.554 404.659 618.051C405.253 618.539 405.986 618.784 406.858 618.784Z" fill="url(#paint4_linear_2282_1256)"/>
<path d="M376.48 622.449V597.429H386.351C388.249 597.429 389.866 597.792 391.201 598.517C392.537 599.233 393.555 600.231 394.256 601.51C394.964 602.78 395.318 604.246 395.318 605.908C395.318 607.569 394.96 609.035 394.243 610.306C393.527 611.576 392.488 612.566 391.128 613.274C389.776 613.983 388.139 614.337 386.217 614.337H379.926V610.098H385.362C386.38 610.098 387.219 609.923 387.879 609.573C388.546 609.214 389.043 608.722 389.369 608.094C389.703 607.459 389.87 606.73 389.87 605.908C389.87 605.077 389.703 604.352 389.369 603.733C389.043 603.106 388.546 602.621 387.879 602.279C387.211 601.929 386.364 601.754 385.337 601.754H381.77V622.449H376.48Z" fill="url(#paint5_linear_2282_1256)"/>
<path d="M352.226 611.6V622.449H347.021V603.684H351.981V606.995H352.201C352.617 605.903 353.313 605.04 354.29 604.405C355.268 603.761 356.453 603.44 357.845 603.44C359.148 603.44 360.285 603.725 361.254 604.295C362.223 604.865 362.976 605.679 363.514 606.738C364.051 607.789 364.32 609.043 364.32 610.501V622.449H359.116V611.429C359.124 610.281 358.831 609.385 358.236 608.742C357.642 608.09 356.823 607.764 355.781 607.764C355.08 607.764 354.461 607.915 353.924 608.216C353.394 608.518 352.979 608.957 352.678 609.536C352.385 610.106 352.234 610.794 352.226 611.6Z" fill="url(#paint6_linear_2282_1256)"/>
<path d="M334.4 622.815C332.502 622.815 330.861 622.412 329.476 621.606C328.1 620.791 327.037 619.659 326.288 618.209C325.539 616.752 325.164 615.062 325.164 613.14C325.164 611.201 325.539 609.507 326.288 608.058C327.037 606.6 328.1 605.468 329.476 604.661C330.861 603.847 332.502 603.44 334.4 603.44C336.297 603.44 337.934 603.847 339.311 604.661C340.695 605.468 341.762 606.6 342.512 608.058C343.261 609.507 343.635 611.201 343.635 613.14C343.635 615.062 343.261 616.752 342.512 618.209C341.762 619.659 340.695 620.791 339.311 621.606C337.934 622.412 336.297 622.815 334.4 622.815ZM334.424 618.784C335.287 618.784 336.008 618.539 336.587 618.051C337.165 617.554 337.6 616.878 337.894 616.023C338.195 615.168 338.346 614.194 338.346 613.103C338.346 612.012 338.195 611.038 337.894 610.183C337.6 609.328 337.165 608.652 336.587 608.155C336.008 607.658 335.287 607.41 334.424 607.41C333.553 607.41 332.82 607.658 332.225 608.155C331.639 608.652 331.195 609.328 330.894 610.183C330.6 611.038 330.454 612.012 330.454 613.103C330.454 614.194 330.6 615.168 330.894 616.023C331.195 616.878 331.639 617.554 332.225 618.051C332.82 618.539 333.553 618.784 334.424 618.784Z" fill="url(#paint7_linear_2282_1256)"/>
<path d="M316.549 622.449V603.684H321.753V622.449H316.549ZM319.163 601.265C318.39 601.265 317.726 601.009 317.172 600.496C316.626 599.974 316.354 599.351 316.354 598.627C316.354 597.91 316.626 597.295 317.172 596.782C317.726 596.261 318.39 596 319.163 596C319.937 596 320.597 596.261 321.142 596.782C321.696 597.295 321.973 597.91 321.973 598.627C321.973 599.351 321.696 599.974 321.142 600.496C320.597 601.009 319.937 601.265 319.163 601.265Z" fill="url(#paint8_linear_2282_1256)"/>
<path d="M313.16 603.684V607.593H301.859V603.684H313.16ZM304.425 599.188H309.629V616.683C309.629 617.163 309.702 617.538 309.849 617.806C309.996 618.067 310.199 618.25 310.46 618.356C310.729 618.462 311.038 618.515 311.388 618.515C311.633 618.515 311.877 618.495 312.121 618.454C312.366 618.405 312.553 618.368 312.683 618.344L313.502 622.217C313.241 622.298 312.875 622.392 312.402 622.498C311.93 622.612 311.356 622.681 310.68 622.705C309.425 622.754 308.326 622.587 307.381 622.204C306.445 621.822 305.716 621.227 305.194 620.421C304.673 619.615 304.417 618.596 304.425 617.367V599.188Z" fill="url(#paint9_linear_2282_1256)"/>
<path d="M293.807 622.449V603.684H299.011V622.449H293.807ZM296.421 601.265C295.647 601.265 294.984 601.009 294.43 600.496C293.884 599.974 293.611 599.351 293.611 598.627C293.611 597.91 293.884 597.295 294.43 596.782C294.984 596.261 295.647 596 296.421 596C297.195 596 297.855 596.261 298.4 596.782C298.954 597.295 299.231 597.91 299.231 598.627C299.231 599.351 298.954 599.974 298.4 600.496C297.855 601.009 297.195 601.265 296.421 601.265Z" fill="url(#paint10_linear_2282_1256)"/>
<path d="M290.416 603.684V607.593H279.115V603.684H290.416ZM281.681 599.188H286.885V616.683C286.885 617.163 286.958 617.538 287.105 617.806C287.251 618.067 287.455 618.25 287.716 618.356C287.984 618.462 288.294 618.515 288.644 618.515C288.888 618.515 289.133 618.495 289.377 618.454C289.621 618.405 289.809 618.368 289.939 618.344L290.758 622.217C290.497 622.298 290.13 622.392 289.658 622.498C289.186 622.612 288.612 622.681 287.936 622.705C286.681 622.754 285.582 622.587 284.637 622.204C283.701 621.822 282.972 621.227 282.45 620.421C281.929 619.615 281.673 618.596 281.681 617.367V599.188Z" fill="url(#paint11_linear_2282_1256)"/>
<path d="M268.424 622.815C266.494 622.815 264.833 622.424 263.44 621.642C262.055 620.852 260.988 619.737 260.239 618.295C259.49 616.845 259.115 615.131 259.115 613.152C259.115 611.222 259.49 609.528 260.239 608.07C260.988 606.612 262.043 605.476 263.403 604.661C264.771 603.847 266.376 603.44 268.217 603.44C269.454 603.44 270.607 603.639 271.674 604.038C272.749 604.429 273.685 605.02 274.484 605.81C275.29 606.6 275.917 607.593 276.365 608.791C276.813 609.98 277.037 611.372 277.037 612.969V614.398H261.192V611.173H272.138C272.138 610.423 271.975 609.76 271.649 609.181C271.324 608.603 270.872 608.151 270.293 607.825C269.723 607.492 269.059 607.325 268.302 607.325C267.512 607.325 266.812 607.508 266.201 607.874C265.598 608.233 265.126 608.717 264.784 609.328C264.442 609.931 264.267 610.603 264.258 611.344V614.41C264.258 615.339 264.429 616.141 264.771 616.817C265.122 617.493 265.614 618.014 266.25 618.381C266.885 618.747 267.638 618.93 268.51 618.93C269.088 618.93 269.617 618.849 270.098 618.686C270.578 618.523 270.99 618.279 271.332 617.953C271.674 617.627 271.934 617.228 272.114 616.756L276.927 617.073C276.683 618.23 276.182 619.24 275.424 620.103C274.675 620.958 273.706 621.626 272.517 622.107C271.336 622.579 269.972 622.815 268.424 622.815Z" fill="url(#paint12_linear_2282_1256)"/>
<path d="M238 622.449V597.429H247.871C249.769 597.429 251.385 597.792 252.721 598.517C254.057 599.233 255.075 600.231 255.775 601.51C256.484 602.78 256.838 604.246 256.838 605.908C256.838 607.569 256.48 609.035 255.763 610.306C255.046 611.576 254.008 612.566 252.648 613.274C251.296 613.983 249.659 614.337 247.737 614.337H241.445V610.098H246.881C247.899 610.098 248.738 609.923 249.398 609.573C250.066 609.214 250.563 608.722 250.888 608.094C251.222 607.459 251.389 606.73 251.389 605.908C251.389 605.077 251.222 604.352 250.888 603.733C250.563 603.106 250.066 602.621 249.398 602.279C248.73 601.929 247.883 601.754 246.857 601.754H243.29V622.449H238Z" fill="url(#paint13_linear_2282_1256)"/>
<defs>
<linearGradient id="paint0_linear_2282_1256" x1="301.105" y1="610.064" x2="428.285" y2="630.887" gradientUnits="userSpaceOnUse">
<stop offset="0.132662" stop-color="#F97D09"/>
<stop offset="1" stop-color="#2CC56F"/>
</linearGradient>
<linearGradient id="paint1_linear_2282_1256" x1="301.104" y1="610.064" x2="428.285" y2="630.887" gradientUnits="userSpaceOnUse">
<stop offset="0.132662" stop-color="#F97D09"/>
<stop offset="1" stop-color="#2CC56F"/>
</linearGradient>
<linearGradient id="paint2_linear_2282_1256" x1="301.105" y1="610.064" x2="428.285" y2="630.887" gradientUnits="userSpaceOnUse">
<stop offset="0.132662" stop-color="#F97D09"/>
<stop offset="1" stop-color="#2CC56F"/>
</linearGradient>
<linearGradient id="paint3_linear_2282_1256" x1="301.105" y1="610.064" x2="428.286" y2="630.887" gradientUnits="userSpaceOnUse">
<stop offset="0.132662" stop-color="#F97D09"/>
<stop offset="1" stop-color="#2CC56F"/>
</linearGradient>
<linearGradient id="paint4_linear_2282_1256" x1="301.105" y1="610.064" x2="428.286" y2="630.887" gradientUnits="userSpaceOnUse">
<stop offset="0.132662" stop-color="#F97D09"/>
<stop offset="1" stop-color="#2CC56F"/>
</linearGradient>
<linearGradient id="paint5_linear_2282_1256" x1="301.104" y1="610.064" x2="428.285" y2="630.887" gradientUnits="userSpaceOnUse">
<stop offset="0.132662" stop-color="#F97D09"/>
<stop offset="1" stop-color="#2CC56F"/>
</linearGradient>
<linearGradient id="paint6_linear_2282_1256" x1="301.105" y1="610.064" x2="428.286" y2="630.887" gradientUnits="userSpaceOnUse">
<stop offset="0.132662" stop-color="#F97D09"/>
<stop offset="1" stop-color="#2CC56F"/>
</linearGradient>
<linearGradient id="paint7_linear_2282_1256" x1="301.103" y1="610.064" x2="428.284" y2="630.887" gradientUnits="userSpaceOnUse">
<stop offset="0.132662" stop-color="#F97D09"/>
<stop offset="1" stop-color="#2CC56F"/>
</linearGradient>
<linearGradient id="paint8_linear_2282_1256" x1="301.104" y1="610.064" x2="428.284" y2="630.887" gradientUnits="userSpaceOnUse">
<stop offset="0.132662" stop-color="#F97D09"/>
<stop offset="1" stop-color="#2CC56F"/>
</linearGradient>
<linearGradient id="paint9_linear_2282_1256" x1="301.105" y1="610.064" x2="428.285" y2="630.887" gradientUnits="userSpaceOnUse">
<stop offset="0.132662" stop-color="#F97D09"/>
<stop offset="1" stop-color="#2CC56F"/>
</linearGradient>
<linearGradient id="paint10_linear_2282_1256" x1="301.106" y1="610.064" x2="428.286" y2="630.887" gradientUnits="userSpaceOnUse">
<stop offset="0.132662" stop-color="#F97D09"/>
<stop offset="1" stop-color="#2CC56F"/>
</linearGradient>
<linearGradient id="paint11_linear_2282_1256" x1="301.105" y1="610.064" x2="428.285" y2="630.887" gradientUnits="userSpaceOnUse">
<stop offset="0.132662" stop-color="#F97D09"/>
<stop offset="1" stop-color="#2CC56F"/>
</linearGradient>
<linearGradient id="paint12_linear_2282_1256" x1="301.103" y1="610.064" x2="428.284" y2="630.887" gradientUnits="userSpaceOnUse">
<stop offset="0.132662" stop-color="#F97D09"/>
<stop offset="1" stop-color="#2CC56F"/>
</linearGradient>
<linearGradient id="paint13_linear_2282_1256" x1="301.104" y1="610.064" x2="428.285" y2="630.887" gradientUnits="userSpaceOnUse">
<stop offset="0.132662" stop-color="#F97D09"/>
<stop offset="1" stop-color="#2CC56F"/>
</linearGradient>
<clipPath id="clip0_2282_1256">
<rect width="711" height="1024" fill="white"/>
</clipPath>
</defs>
</svg>
