<svg width="172" height="21" viewBox="0 0 172 21" fill="none" xmlns="http://www.w3.org/2000/svg">
<path d="M0.641779 20V1.81818H7.81507C9.1941 1.81818 10.3689 2.08156 11.3396 2.60831C12.3102 3.12914 13.05 3.85417 13.559 4.78338C14.074 5.70668 14.3314 6.77202 14.3314 7.9794C14.3314 9.18679 14.071 10.2521 13.5502 11.1754C13.0293 12.0987 12.2747 12.8178 11.2863 13.3327C10.3038 13.8477 9.1142 14.1051 7.71742 14.1051H3.14533V11.0245H7.09597C7.83579 11.0245 8.4454 10.8973 8.9248 10.6428C9.41013 10.3823 9.77116 10.0243 10.0079 9.56854C10.2506 9.10689 10.3719 8.57718 10.3719 7.9794C10.3719 7.37571 10.2506 6.84896 10.0079 6.39915C9.77116 5.94342 9.41013 5.59126 8.9248 5.34268C8.43948 5.08819 7.82395 4.96094 7.07821 4.96094H4.48588V20H0.641779ZM22.752 20.2663C21.3493 20.2663 20.142 19.9822 19.1299 19.4141C18.1237 18.84 17.3484 18.0291 16.8039 16.9815C16.2594 15.928 15.9871 14.6822 15.9871 13.244C15.9871 11.8413 16.2594 10.6102 16.8039 9.55078C17.3484 8.49136 18.1148 7.66572 19.1032 7.07386C20.0976 6.48201 21.2635 6.18608 22.6011 6.18608C23.5007 6.18608 24.3382 6.33108 25.1135 6.62109C25.8948 6.90518 26.5754 7.33428 27.1555 7.90838C27.7414 8.48248 28.1971 9.20455 28.5226 10.0746C28.8482 10.9387 29.0109 11.9508 29.0109 13.1108V14.1495H17.4964V11.8058H25.4509C25.4509 11.2612 25.3325 10.7789 25.0958 10.3587C24.859 9.93845 24.5306 9.60997 24.1104 9.37322C23.6961 9.13056 23.2137 9.00923 22.6633 9.00923C22.0892 9.00923 21.5802 9.1424 21.1363 9.40874C20.6983 9.66915 20.355 10.0213 20.1064 10.4652C19.8579 10.9032 19.7306 11.3915 19.7247 11.93V14.1584C19.7247 14.8331 19.849 15.4161 20.0976 15.9073C20.3521 16.3986 20.7101 16.7773 21.1718 17.0437C21.6334 17.31 22.1809 17.4432 22.8142 17.4432C23.2344 17.4432 23.6191 17.384 23.9683 17.2656C24.3175 17.1473 24.6164 16.9697 24.865 16.733C25.1135 16.4962 25.3029 16.2062 25.4331 15.8629L28.931 16.0938C28.7535 16.9342 28.3895 17.6681 27.839 18.2955C27.2945 18.9169 26.5902 19.4022 25.7261 19.7514C24.8679 20.0947 23.8766 20.2663 22.752 20.2663ZM38.7322 6.36364V9.20455H30.5202V6.36364H38.7322ZM32.3845 3.09659H36.1665V15.8097C36.1665 16.1589 36.2197 16.4311 36.3263 16.6264C36.4328 16.8158 36.5808 16.949 36.7702 17.0259C36.9655 17.1029 37.1904 17.1413 37.4449 17.1413C37.6224 17.1413 37.8 17.1265 37.9775 17.0969C38.1551 17.0614 38.2912 17.0348 38.3859 17.017L38.9807 19.8313C38.7913 19.8905 38.525 19.9586 38.1817 20.0355C37.8385 20.1184 37.4212 20.1687 36.93 20.1864C36.0185 20.2219 35.2195 20.1006 34.5329 19.8224C33.8523 19.5443 33.3226 19.1122 32.9438 18.5263C32.565 17.9403 32.3786 17.2005 32.3845 16.3068V3.09659ZM41.1958 20V6.36364H44.9777V20H41.1958ZM43.0956 4.60582C42.5334 4.60582 42.051 4.41939 41.6485 4.04652C41.252 3.66773 41.0537 3.21496 41.0537 2.68821C41.0537 2.16738 41.252 1.72053 41.6485 1.34766C42.051 0.968868 42.5334 0.779473 43.0956 0.779473C43.6579 0.779473 44.1373 0.968868 44.5338 1.34766C44.9363 1.72053 45.1375 2.16738 45.1375 2.68821C45.1375 3.21496 44.9363 3.66773 44.5338 4.04652C44.1373 4.41939 43.6579 4.60582 43.0956 4.60582ZM55.2605 6.36364V9.20455H47.0485V6.36364H55.2605ZM48.9128 3.09659H52.6948V15.8097C52.6948 16.1589 52.748 16.4311 52.8546 16.6264C52.9611 16.8158 53.1091 16.949 53.2985 17.0259C53.4938 17.1029 53.7187 17.1413 53.9732 17.1413C54.1507 17.1413 54.3283 17.1265 54.5059 17.0969C54.6834 17.0614 54.8195 17.0348 54.9142 17.017L55.5091 19.8313C55.3197 19.8905 55.0533 19.9586 54.71 20.0355C54.3668 20.1184 53.9495 20.1687 53.4583 20.1864C52.5468 20.2219 51.7478 20.1006 51.0613 19.8224C50.3806 19.5443 49.8509 19.1122 49.4721 18.5263C49.0933 17.9403 48.9069 17.2005 48.9128 16.3068V3.09659ZM57.7241 20V6.36364H61.506V20H57.7241ZM59.6239 4.60582C59.0617 4.60582 58.5793 4.41939 58.1768 4.04652C57.7803 3.66773 57.582 3.21496 57.582 2.68821C57.582 2.16738 57.7803 1.72053 58.1768 1.34766C58.5793 0.968868 59.0617 0.779473 59.6239 0.779473C60.1862 0.779473 60.6656 0.968868 61.0621 1.34766C61.4646 1.72053 61.6658 2.16738 61.6658 2.68821C61.6658 3.21496 61.4646 3.66773 61.0621 4.04652C60.6656 4.41939 60.1862 4.60582 59.6239 4.60582ZM70.6968 20.2663C69.3178 20.2663 68.1252 19.9734 67.1191 19.3874C66.1188 18.7956 65.3464 17.9729 64.8019 16.9194C64.2574 15.86 63.9852 14.6319 63.9852 13.2351C63.9852 11.8265 64.2574 10.5954 64.8019 9.5419C65.3464 8.48248 66.1188 7.6598 67.1191 7.07386C68.1252 6.48201 69.3178 6.18608 70.6968 6.18608C72.0758 6.18608 73.2655 6.48201 74.2657 7.07386C75.2719 7.6598 76.0472 8.48248 76.5917 9.5419C77.1362 10.5954 77.4085 11.8265 77.4085 13.2351C77.4085 14.6319 77.1362 15.86 76.5917 16.9194C76.0472 17.9729 75.2719 18.7956 74.2657 19.3874C73.2655 19.9734 72.0758 20.2663 70.6968 20.2663ZM70.7146 17.3366C71.3419 17.3366 71.8657 17.1591 72.286 16.804C72.7062 16.4429 73.0228 15.9517 73.2359 15.3303C73.4549 14.7088 73.5644 14.0015 73.5644 13.2085C73.5644 12.4154 73.4549 11.7081 73.2359 11.0866C73.0228 10.4652 72.7062 9.97396 72.286 9.61293C71.8657 9.25189 71.3419 9.07138 70.7146 9.07138C70.0813 9.07138 69.5486 9.25189 69.1166 9.61293C68.6904 9.97396 68.3679 10.4652 68.1489 11.0866C67.9358 11.7081 67.8293 12.4154 67.8293 13.2085C67.8293 14.0015 67.9358 14.7088 68.1489 15.3303C68.3679 15.9517 68.6904 16.4429 69.1166 16.804C69.5486 17.1591 70.0813 17.3366 70.7146 17.3366ZM83.6496 12.1165V20H79.8676V6.36364H83.472V8.76953H83.6318C83.9337 7.97644 84.4397 7.34908 85.1499 6.88743C85.8602 6.41986 86.7213 6.18608 87.7334 6.18608C88.6804 6.18608 89.506 6.39323 90.2103 6.80753C90.9146 7.22183 91.4621 7.81368 91.8527 8.5831C92.2433 9.34659 92.4387 10.258 92.4387 11.3175V20H88.6567V11.9922C88.6626 11.1577 88.4495 10.5066 88.0175 10.0391C87.5854 9.56558 86.9906 9.32884 86.233 9.32884C85.724 9.32884 85.2742 9.43833 84.8836 9.65731C84.4989 9.8763 84.1971 10.1959 83.9781 10.6161C83.765 11.0304 83.6555 11.5305 83.6496 12.1165ZM101.277 20V1.81818H108.45C109.829 1.81818 111.004 2.08156 111.974 2.60831C112.945 3.12914 113.685 3.85417 114.194 4.78338C114.709 5.70668 114.966 6.77202 114.966 7.9794C114.966 9.18679 114.706 10.2521 114.185 11.1754C113.664 12.0987 112.909 12.8178 111.921 13.3327C110.939 13.8477 109.749 14.1051 108.352 14.1051H103.78V11.0245H107.731C108.471 11.0245 109.08 10.8973 109.56 10.6428C110.045 10.3823 110.406 10.0243 110.643 9.56854C110.885 9.10689 111.007 8.57718 111.007 7.9794C111.007 7.37571 110.885 6.84896 110.643 6.39915C110.406 5.94342 110.045 5.59126 109.56 5.34268C109.074 5.08819 108.459 4.96094 107.713 4.96094H105.121V20H101.277ZM123.334 20.2663C121.955 20.2663 120.762 19.9734 119.756 19.3874C118.756 18.7956 117.983 17.9729 117.439 16.9194C116.894 15.86 116.622 14.6319 116.622 13.2351C116.622 11.8265 116.894 10.5954 117.439 9.5419C117.983 8.48248 118.756 7.6598 119.756 7.07386C120.762 6.48201 121.955 6.18608 123.334 6.18608C124.713 6.18608 125.902 6.48201 126.902 7.07386C127.909 7.6598 128.684 8.48248 129.228 9.5419C129.773 10.5954 130.045 11.8265 130.045 13.2351C130.045 14.6319 129.773 15.86 129.228 16.9194C128.684 17.9729 127.909 18.7956 126.902 19.3874C125.902 19.9734 124.713 20.2663 123.334 20.2663ZM123.351 17.3366C123.979 17.3366 124.502 17.1591 124.923 16.804C125.343 16.4429 125.66 15.9517 125.873 15.3303C126.092 14.7088 126.201 14.0015 126.201 13.2085C126.201 12.4154 126.092 11.7081 125.873 11.0866C125.66 10.4652 125.343 9.97396 124.923 9.61293C124.502 9.25189 123.979 9.07138 123.351 9.07138C122.718 9.07138 122.185 9.25189 121.753 9.61293C121.327 9.97396 121.005 10.4652 120.786 11.0866C120.573 11.7081 120.466 12.4154 120.466 13.2085C120.466 14.0015 120.573 14.7088 120.786 15.3303C121.005 15.9517 121.327 16.4429 121.753 16.804C122.185 17.1591 122.718 17.3366 123.351 17.3366ZM132.504 20V6.36364H136.171V8.7429H136.313C136.562 7.89654 136.979 7.25734 137.565 6.82528C138.151 6.38731 138.825 6.16832 139.589 6.16832C139.778 6.16832 139.982 6.18016 140.201 6.20383C140.42 6.22751 140.613 6.26006 140.778 6.30149V9.65731C140.601 9.60405 140.355 9.5567 140.042 9.51527C139.728 9.47384 139.441 9.45312 139.18 9.45312C138.624 9.45312 138.127 9.57446 137.689 9.81712C137.257 10.0539 136.914 10.3853 136.659 10.8114C136.411 11.2376 136.286 11.7288 136.286 12.2852V20H132.504ZM150.671 6.36364V9.20455H142.459V6.36364H150.671ZM144.323 3.09659H148.105V15.8097C148.105 16.1589 148.158 16.4311 148.265 16.6264C148.371 16.8158 148.519 16.949 148.709 17.0259C148.904 17.1029 149.129 17.1413 149.383 17.1413C149.561 17.1413 149.738 17.1265 149.916 17.0969C150.094 17.0614 150.23 17.0348 150.324 17.017L150.919 19.8313C150.73 19.8905 150.463 19.9586 150.12 20.0355C149.777 20.1184 149.36 20.1687 148.868 20.1864C147.957 20.2219 147.158 20.1006 146.471 19.8224C145.791 19.5443 145.261 19.1122 144.882 18.5263C144.503 17.9403 144.317 17.2005 144.323 16.3068V3.09659ZM157.023 20.2575C156.153 20.2575 155.377 20.1065 154.697 19.8047C154.016 19.4969 153.478 19.0442 153.081 18.4464C152.69 17.8427 152.495 17.091 152.495 16.1914C152.495 15.4338 152.634 14.7976 152.912 14.2827C153.19 13.7678 153.569 13.3535 154.049 13.0398C154.528 12.7261 155.073 12.4893 155.682 12.3295C156.298 12.1697 156.943 12.0573 157.618 11.9922C158.411 11.9093 159.05 11.8324 159.535 11.7614C160.02 11.6844 160.373 11.572 160.592 11.424C160.811 11.276 160.92 11.0571 160.92 10.767V10.7138C160.92 10.1515 160.743 9.7165 160.387 9.40874C160.038 9.10097 159.541 8.94709 158.896 8.94709C158.215 8.94709 157.674 9.09801 157.271 9.39986C156.869 9.69579 156.603 10.0687 156.472 10.5185L152.974 10.2344C153.152 9.40578 153.501 8.68963 154.022 8.08594C154.543 7.47633 155.215 7.00876 156.037 6.68324C156.866 6.3518 157.825 6.18608 158.914 6.18608C159.671 6.18608 160.396 6.27486 161.089 6.45241C161.787 6.62997 162.406 6.90518 162.944 7.27805C163.489 7.65092 163.918 8.13033 164.232 8.71626C164.545 9.29628 164.702 9.99171 164.702 10.8026V20H161.115V18.109H161.009C160.79 18.5352 160.497 18.911 160.13 19.2365C159.763 19.5561 159.322 19.8076 158.807 19.9911C158.292 20.1687 157.697 20.2575 157.023 20.2575ZM158.106 17.6474C158.662 17.6474 159.153 17.5379 159.58 17.3189C160.006 17.094 160.34 16.7921 160.583 16.4134C160.825 16.0346 160.947 15.6055 160.947 15.1261V13.679C160.828 13.7559 160.666 13.8269 160.458 13.892C160.257 13.9512 160.029 14.0075 159.775 14.0607C159.52 14.1081 159.266 14.1525 159.011 14.1939C158.757 14.2294 158.526 14.262 158.319 14.2915C157.875 14.3567 157.487 14.4602 157.156 14.6023C156.824 14.7443 156.567 14.9367 156.384 15.1793C156.2 15.4161 156.108 15.712 156.108 16.0671C156.108 16.582 156.295 16.9756 156.668 17.2479C157.046 17.5142 157.526 17.6474 158.106 17.6474ZM171.418 1.81818V20H167.636V1.81818H171.418Z" fill="url(#paint0_linear_544_4667)"/>
<defs>
<linearGradient id="paint0_linear_544_4667" x1="46.5" y1="11" x2="138.923" y2="26.1321" gradientUnits="userSpaceOnUse">
<stop offset="0.132662" stop-color="#F97D09"/>
<stop offset="1" stop-color="#2CC56F"/>
</linearGradient>
</defs>
</svg>
