<svg width="18" height="18" viewBox="0 0 18 18" fill="none" xmlns="http://www.w3.org/2000/svg">
<path d="M13.7812 2.8125H8.15625C7.63428 2.81306 7.13384 3.02066 6.76475 3.38975C6.39566 3.75884 6.18806 4.25928 6.1875 4.78125V8.4375H11.5794L9.72738 6.58512C9.62635 6.47877 9.57085 6.33716 9.57273 6.19048C9.57461 6.0438 9.63371 5.90366 9.73744 5.79994C9.84116 5.69621 9.9813 5.63711 10.128 5.63523C10.2747 5.63335 10.4163 5.68885 10.5226 5.78988L13.3351 8.60238C13.4405 8.70786 13.4997 8.85088 13.4997 9C13.4997 9.14912 13.4405 9.29214 13.3351 9.39762L10.5226 12.2101C10.4163 12.3112 10.2747 12.3666 10.128 12.3648C9.9813 12.3629 9.84116 12.3038 9.73744 12.2001C9.63371 12.0963 9.57461 11.9562 9.57273 11.8095C9.57085 11.6628 9.62635 11.5212 9.72738 11.4149L11.5794 9.5625H6.1875V13.2188C6.1875 14.3455 7.37543 15.1875 8.4375 15.1875H13.7812C14.3032 15.1869 14.8037 14.9793 15.1728 14.6103C15.5418 14.2412 15.7494 13.7407 15.75 13.2188V4.78125C15.7494 4.25928 15.5418 3.75884 15.1728 3.38975C14.8037 3.02066 14.3032 2.81306 13.7812 2.8125ZM2.8125 8.4375C2.66332 8.4375 2.52024 8.49676 2.41475 8.60225C2.30926 8.70774 2.25 8.85082 2.25 9C2.25 9.14918 2.30926 9.29226 2.41475 9.39775C2.52024 9.50324 2.66332 9.5625 2.8125 9.5625H6.1875V8.4375H2.8125Z" fill="#6B7280"/>
</svg>
