<svg width="18" height="18" viewBox="0 0 18 18" fill="none" xmlns="http://www.w3.org/2000/svg">
<path d="M14.5377 7.96094H3.46079C2.69925 7.96094 2.07617 8.58401 2.07617 9.34555V15.9225C2.07617 16.684 2.69925 17.3071 3.46079 17.3071H14.5377C15.2992 17.3071 15.9223 16.684 15.9223 15.9225V9.34555C15.9223 8.58401 15.2992 7.96094 14.5377 7.96094ZM10.73 15.4032C10.2108 15.7494 9.62233 15.9225 8.99925 15.9225C8.79156 15.9225 8.58386 15.8879 8.37617 15.8532C7.5454 15.6802 6.85309 15.2302 6.40309 14.5379L7.5454 13.7763C7.78771 14.1571 8.20309 14.434 8.65309 14.5032C9.10309 14.6071 9.55309 14.5032 9.96848 14.2263C10.7646 13.7071 10.9723 12.5994 10.4531 11.8379C10.2108 11.4571 9.7954 11.1802 9.3454 11.1109C8.8954 11.0071 8.4454 11.1109 8.03002 11.3879C7.92617 11.4571 7.85694 11.5263 7.78771 11.5956L8.99925 12.8071H5.88386V9.69171L6.78386 10.5917C6.92233 10.4532 7.0954 10.3148 7.23386 10.2109C7.92617 9.76094 8.75694 9.58786 9.58771 9.72632C10.4185 9.8994 11.1108 10.3494 11.5608 11.0417C12.53 12.4956 12.1492 14.434 10.73 15.4032Z" fill="#6B7280"/>
<path d="M3.80709 6.57657H5.19171C5.3994 6.57657 5.53786 6.47272 5.53786 6.26503V6.23042C5.53786 4.25734 7.23401 2.63042 9.24171 2.76888C11.0763 2.90734 12.4609 4.49965 12.4609 6.36888V6.26503C12.4609 6.47272 12.5994 6.57657 12.8071 6.57657H14.1917C14.3994 6.57657 14.5379 6.47272 14.5379 6.26503V6.23042C14.5379 3.08042 11.9071 0.553493 8.72248 0.691954C5.78017 0.830416 3.53017 3.32272 3.46094 6.26503C3.49555 6.43811 3.63401 6.57657 3.80709 6.57657Z" fill="#6B7280"/>
</svg>
