<svg width="20" height="20" viewBox="0 0 20 20" fill="none" xmlns="http://www.w3.org/2000/svg">
<circle cx="10" cy="10" r="10" fill="#FFF3F3" fill-opacity="0.72"/>
<path d="M14.3461 6.43147H13.0967C13.08 6.42567 13.0626 6.42191 13.045 6.42018H11.7147V5.31685C11.7147 5.23393 11.6822 5.15433 11.6243 5.0951C11.5663 5.03589 11.4874 5.00173 11.4046 5H8.25839C8.17435 5 8.09377 5.03333 8.0344 5.09277C7.97496 5.15221 7.94155 5.2328 7.94155 5.31684V6.42018H6.61798C6.60038 6.42191 6.58299 6.42567 6.56629 6.43146H5.31684C5.2036 6.43146 5.09901 6.49181 5.04244 6.58985C4.98585 6.68789 4.98585 6.80864 5.04244 6.90668C5.09902 7.00472 5.2036 7.06514 5.31684 7.06514H6.33478L7.15732 14.7169C7.16612 14.7947 7.20329 14.8666 7.26175 14.9189C7.32014 14.9711 7.39576 14.9999 7.47415 15H12.1933C12.2709 14.9989 12.3453 14.9695 12.4029 14.9174C12.4604 14.8652 12.4969 14.794 12.5056 14.7169L13.3281 7.07631H14.3461C14.4593 7.07631 14.5639 7.01597 14.6205 6.91793C14.6771 6.81989 14.6771 6.69906 14.6205 6.60109C14.5639 6.50305 14.4593 6.44263 14.3461 6.44263L14.3461 6.43147ZM8.58207 5.63368H11.0809V6.42018H8.58207V5.63368ZM11.9057 14.3618H7.75728L6.97079 7.07639H12.6921L11.9057 14.3618Z" fill="#E41D1D"/>
<path d="M9.83246 13.6189C9.91651 13.6189 9.99709 13.5855 10.0565 13.5261C10.116 13.4667 10.1493 13.3861 10.1493 13.3021V8.13355C10.1493 8.02031 10.089 7.91571 9.99092 7.85914C9.89288 7.80249 9.77205 7.80249 9.67401 7.85914C9.57597 7.91572 9.51562 8.02031 9.51562 8.13355V13.3021C9.51562 13.3861 9.54896 13.4667 9.6084 13.5261C9.66784 13.5855 9.74842 13.6189 9.83247 13.6189H9.83246Z" fill="#E41D1D"/>
<path d="M8.5862 13.6173H8.59967C8.68334 13.6139 8.76219 13.5774 8.81908 13.5159C8.87589 13.4544 8.90613 13.3729 8.90305 13.2893L8.71201 8.12075L8.71209 8.12068C8.71036 8.03603 8.67416 7.95567 8.61179 7.89834C8.54934 7.84108 8.46627 7.81181 8.38171 7.8173C8.29804 7.82084 8.21919 7.85733 8.16237 7.9188C8.10549 7.98028 8.07532 8.06176 8.07833 8.14544L8.26937 13.3139C8.27336 13.3954 8.30842 13.4723 8.36741 13.5288C8.42632 13.5851 8.50465 13.6169 8.5862 13.6173L8.5862 13.6173Z" fill="#E41D1D"/>
<path d="M11.0678 13.6183H11.079C11.1625 13.6202 11.2434 13.5892 11.3043 13.5321C11.3652 13.4749 11.4013 13.3962 11.4048 13.3127L11.5959 8.14419H11.5958C11.5989 8.06053 11.5686 7.97904 11.5118 7.91756C11.4549 7.85609 11.3761 7.8196 11.2924 7.81606C11.2069 7.80726 11.1215 7.83487 11.0574 7.8922C10.9932 7.94946 10.9562 8.03117 10.9553 8.11726L10.762 13.2858H10.7621C10.7578 13.3706 10.7878 13.4536 10.8453 13.5161C10.9027 13.5786 10.9829 13.6155 11.0678 13.6183L11.0678 13.6183Z" fill="#E41D1D"/>
</svg>
