<svg width="14" height="14" viewBox="0 0 14 14" fill="none" xmlns="http://www.w3.org/2000/svg">
<g clip-path="url(#clip0_921_17457)">
<path d="M2.1875 7C2.30353 7 2.41481 6.95391 2.49686 6.87186C2.57891 6.78981 2.625 6.67853 2.625 6.5625C2.625 6.44647 2.57891 6.33519 2.49686 6.25314C2.41481 6.17109 2.30353 6.125 2.1875 6.125C2.07147 6.125 1.96019 6.17109 1.87814 6.25314C1.79609 6.33519 1.75 6.44647 1.75 6.5625C1.75 6.67853 1.79609 6.78981 1.87814 6.87186C1.96019 6.95391 2.07147 7 2.1875 7Z" fill="#111827"/>
<path d="M4.375 0.875C3.91087 0.875 3.46575 1.05937 3.13756 1.38756C2.80937 1.71575 2.625 2.16087 2.625 2.625V4.375H1.75C1.28587 4.375 0.840752 4.55937 0.512563 4.88756C0.184374 5.21575 0 5.66087 0 6.125L0 8.75C0 9.21413 0.184374 9.65925 0.512563 9.98744C0.840752 10.3156 1.28587 10.5 1.75 10.5H2.625V11.375C2.625 11.8391 2.80937 12.2842 3.13756 12.6124C3.46575 12.9406 3.91087 13.125 4.375 13.125H9.625C10.0891 13.125 10.5342 12.9406 10.8624 12.6124C11.1906 12.2842 11.375 11.8391 11.375 11.375V10.5H12.25C12.7141 10.5 13.1592 10.3156 13.4874 9.98744C13.8156 9.65925 14 9.21413 14 8.75V6.125C14 5.66087 13.8156 5.21575 13.4874 4.88756C13.1592 4.55937 12.7141 4.375 12.25 4.375H11.375V2.625C11.375 2.16087 11.1906 1.71575 10.8624 1.38756C10.5342 1.05937 10.0891 0.875 9.625 0.875H4.375ZM3.5 2.625C3.5 2.39294 3.59219 2.17038 3.75628 2.00628C3.92038 1.84219 4.14294 1.75 4.375 1.75H9.625C9.85706 1.75 10.0796 1.84219 10.2437 2.00628C10.4078 2.17038 10.5 2.39294 10.5 2.625V4.375H3.5V2.625ZM4.375 7C3.91087 7 3.46575 7.18437 3.13756 7.51256C2.80937 7.84075 2.625 8.28587 2.625 8.75V9.625H1.75C1.51794 9.625 1.29538 9.53281 1.13128 9.36872C0.967187 9.20462 0.875 8.98206 0.875 8.75V6.125C0.875 5.89294 0.967187 5.67038 1.13128 5.50628C1.29538 5.34219 1.51794 5.25 1.75 5.25H12.25C12.4821 5.25 12.7046 5.34219 12.8687 5.50628C13.0328 5.67038 13.125 5.89294 13.125 6.125V8.75C13.125 8.98206 13.0328 9.20462 12.8687 9.36872C12.7046 9.53281 12.4821 9.625 12.25 9.625H11.375V8.75C11.375 8.28587 11.1906 7.84075 10.8624 7.51256C10.5342 7.18437 10.0891 7 9.625 7H4.375ZM10.5 8.75V11.375C10.5 11.6071 10.4078 11.8296 10.2437 11.9937C10.0796 12.1578 9.85706 12.25 9.625 12.25H4.375C4.14294 12.25 3.92038 12.1578 3.75628 11.9937C3.59219 11.8296 3.5 11.6071 3.5 11.375V8.75C3.5 8.51794 3.59219 8.29538 3.75628 8.13128C3.92038 7.96719 4.14294 7.875 4.375 7.875H9.625C9.85706 7.875 10.0796 7.96719 10.2437 8.13128C10.4078 8.29538 10.5 8.51794 10.5 8.75Z" fill="#111827"/>
</g>
<defs>
<clipPath id="clip0_921_17457">
<rect width="14" height="14" fill="white"/>
</clipPath>
</defs>
</svg>
