<svg width="15" height="15" viewBox="0 0 15 15" fill="none" xmlns="http://www.w3.org/2000/svg">
<g clip-path="url(#clip0_912_11014)">
<path d="M2.34375 7.5C2.46807 7.5 2.5873 7.45061 2.67521 7.36271C2.76311 7.2748 2.8125 7.15557 2.8125 7.03125C2.8125 6.90693 2.76311 6.7877 2.67521 6.69979C2.5873 6.61189 2.46807 6.5625 2.34375 6.5625C2.21943 6.5625 2.1002 6.61189 2.01229 6.69979C1.92439 6.7877 1.875 6.90693 1.875 7.03125C1.875 7.15557 1.92439 7.2748 2.01229 7.36271C2.1002 7.45061 2.21943 7.5 2.34375 7.5Z" fill="#F97D09"/>
<path d="M4.6875 0.9375C4.19022 0.9375 3.71331 1.13504 3.36167 1.48667C3.01004 1.83831 2.8125 2.31522 2.8125 2.8125V4.6875H1.875C1.37772 4.6875 0.900806 4.88504 0.549175 5.23667C0.197544 5.58831 0 6.06522 0 6.5625L0 9.375C0 9.87228 0.197544 10.3492 0.549175 10.7008C0.900806 11.0525 1.37772 11.25 1.875 11.25H2.8125V12.1875C2.8125 12.6848 3.01004 13.1617 3.36167 13.5133C3.71331 13.865 4.19022 14.0625 4.6875 14.0625H10.3125C10.8098 14.0625 11.2867 13.865 11.6383 13.5133C11.99 13.1617 12.1875 12.6848 12.1875 12.1875V11.25H13.125C13.6223 11.25 14.0992 11.0525 14.4508 10.7008C14.8025 10.3492 15 9.87228 15 9.375V6.5625C15 6.06522 14.8025 5.58831 14.4508 5.23667C14.0992 4.88504 13.6223 4.6875 13.125 4.6875H12.1875V2.8125C12.1875 2.31522 11.99 1.83831 11.6383 1.48667C11.2867 1.13504 10.8098 0.9375 10.3125 0.9375H4.6875ZM3.75 2.8125C3.75 2.56386 3.84877 2.3254 4.02459 2.14959C4.2004 1.97377 4.43886 1.875 4.6875 1.875H10.3125C10.5611 1.875 10.7996 1.97377 10.9754 2.14959C11.1512 2.3254 11.25 2.56386 11.25 2.8125V4.6875H3.75V2.8125ZM4.6875 7.5C4.19022 7.5 3.71331 7.69754 3.36167 8.04918C3.01004 8.40081 2.8125 8.87772 2.8125 9.375V10.3125H1.875C1.62636 10.3125 1.3879 10.2137 1.21209 10.0379C1.03627 9.8621 0.9375 9.62364 0.9375 9.375V6.5625C0.9375 6.31386 1.03627 6.0754 1.21209 5.89959C1.3879 5.72377 1.62636 5.625 1.875 5.625H13.125C13.3736 5.625 13.6121 5.72377 13.7879 5.89959C13.9637 6.0754 14.0625 6.31386 14.0625 6.5625V9.375C14.0625 9.62364 13.9637 9.8621 13.7879 10.0379C13.6121 10.2137 13.3736 10.3125 13.125 10.3125H12.1875V9.375C12.1875 8.87772 11.99 8.40081 11.6383 8.04918C11.2867 7.69754 10.8098 7.5 10.3125 7.5H4.6875ZM11.25 9.375V12.1875C11.25 12.4361 11.1512 12.6746 10.9754 12.8504C10.7996 13.0262 10.5611 13.125 10.3125 13.125H4.6875C4.43886 13.125 4.2004 13.0262 4.02459 12.8504C3.84877 12.6746 3.75 12.4361 3.75 12.1875V9.375C3.75 9.12636 3.84877 8.8879 4.02459 8.71209C4.2004 8.53627 4.43886 8.4375 4.6875 8.4375H10.3125C10.5611 8.4375 10.7996 8.53627 10.9754 8.71209C11.1512 8.8879 11.25 9.12636 11.25 9.375Z" fill="#F97D09"/>
</g>
<defs>
<clipPath id="clip0_912_11014">
<rect width="15" height="15" fill="white"/>
</clipPath>
</defs>
</svg>
