<svg width="18" height="18" viewBox="0 0 18 18" fill="none" xmlns="http://www.w3.org/2000/svg">
<g clip-path="url(#clip0_647_1771)">
<path d="M2.8125 9C2.96168 9 3.10476 8.94074 3.21025 8.83525C3.31574 8.72976 3.375 8.58668 3.375 8.4375C3.375 8.28832 3.31574 8.14524 3.21025 8.03975C3.10476 7.93426 2.96168 7.875 2.8125 7.875C2.66332 7.875 2.52024 7.93426 2.41475 8.03975C2.30926 8.14524 2.25 8.28832 2.25 8.4375C2.25 8.58668 2.30926 8.72976 2.41475 8.83525C2.52024 8.94074 2.66332 9 2.8125 9Z" fill="#597F59"/>
<path d="M5.625 1.125C5.02826 1.125 4.45597 1.36205 4.03401 1.78401C3.61205 2.20597 3.375 2.77826 3.375 3.375V5.625H2.25C1.65326 5.625 1.08097 5.86205 0.65901 6.28401C0.237053 6.70597 0 7.27826 0 7.875L0 11.25C0 11.8467 0.237053 12.419 0.65901 12.841C1.08097 13.2629 1.65326 13.5 2.25 13.5H3.375V14.625C3.375 15.2217 3.61205 15.794 4.03401 16.216C4.45597 16.6379 5.02826 16.875 5.625 16.875H12.375C12.9717 16.875 13.544 16.6379 13.966 16.216C14.3879 15.794 14.625 15.2217 14.625 14.625V13.5H15.75C16.3467 13.5 16.919 13.2629 17.341 12.841C17.7629 12.419 18 11.8467 18 11.25V7.875C18 7.27826 17.7629 6.70597 17.341 6.28401C16.919 5.86205 16.3467 5.625 15.75 5.625H14.625V3.375C14.625 2.77826 14.3879 2.20597 13.966 1.78401C13.544 1.36205 12.9717 1.125 12.375 1.125H5.625ZM4.5 3.375C4.5 3.07663 4.61853 2.79048 4.82951 2.5795C5.04048 2.36853 5.32663 2.25 5.625 2.25H12.375C12.6734 2.25 12.9595 2.36853 13.1705 2.5795C13.3815 2.79048 13.5 3.07663 13.5 3.375V5.625H4.5V3.375ZM5.625 9C5.02826 9 4.45597 9.23705 4.03401 9.65901C3.61205 10.081 3.375 10.6533 3.375 11.25V12.375H2.25C1.95163 12.375 1.66548 12.2565 1.4545 12.0455C1.24353 11.8345 1.125 11.5484 1.125 11.25V7.875C1.125 7.57663 1.24353 7.29048 1.4545 7.07951C1.66548 6.86853 1.95163 6.75 2.25 6.75H15.75C16.0484 6.75 16.3345 6.86853 16.5455 7.07951C16.7565 7.29048 16.875 7.57663 16.875 7.875V11.25C16.875 11.5484 16.7565 11.8345 16.5455 12.0455C16.3345 12.2565 16.0484 12.375 15.75 12.375H14.625V11.25C14.625 10.6533 14.3879 10.081 13.966 9.65901C13.544 9.23705 12.9717 9 12.375 9H5.625ZM13.5 11.25V14.625C13.5 14.9234 13.3815 15.2095 13.1705 15.4205C12.9595 15.6315 12.6734 15.75 12.375 15.75H5.625C5.32663 15.75 5.04048 15.6315 4.82951 15.4205C4.61853 15.2095 4.5 14.9234 4.5 14.625V11.25C4.5 10.9516 4.61853 10.6655 4.82951 10.4545C5.04048 10.2435 5.32663 10.125 5.625 10.125H12.375C12.6734 10.125 12.9595 10.2435 13.1705 10.4545C13.3815 10.6655 13.5 10.9516 13.5 11.25Z" fill="#597F59"/>
</g>
<defs>
<clipPath id="clip0_647_1771">
<rect width="18" height="18" fill="white"/>
</clipPath>
</defs>
</svg>
