<svg width="16" height="16" viewBox="0 0 16 16" fill="none" xmlns="http://www.w3.org/2000/svg">
<ellipse cx="7.74831" cy="8" rx="7.74831" ry="8" fill="#FFF3F3"/>
<path d="M11.1167 5.14517H10.1486C10.1356 5.14054 10.1222 5.13753 10.1085 5.13614H9.07774V4.25348C9.0778 4.18714 9.05261 4.12346 9.00772 4.07608C8.96277 4.02871 8.90168 4.00138 8.83749 4H6.39971C6.33459 4 6.27215 4.02667 6.22615 4.07422C6.18009 4.12177 6.15421 4.18624 6.15421 4.25348V5.13614H5.12866C5.11502 5.13753 5.10155 5.14054 5.08861 5.14517H4.1205C4.03276 5.14517 3.95171 5.19345 3.90788 5.27188C3.86404 5.35031 3.86404 5.44691 3.90788 5.52535C3.95172 5.60378 4.03276 5.65211 4.1205 5.65211H4.90923L5.54656 11.7735C5.55338 11.8358 5.58218 11.8933 5.62748 11.9351C5.67272 11.9769 5.73131 11.9999 5.79205 12H9.44858C9.50869 11.9991 9.5664 11.9756 9.611 11.9339C9.65555 11.8922 9.68382 11.8352 9.69058 11.7735L10.3278 5.66105H11.1166C11.2044 5.66105 11.2854 5.61277 11.3293 5.53434C11.3731 5.45591 11.3731 5.35924 11.3293 5.28087C11.2854 5.20244 11.2044 5.1541 11.1166 5.1541L11.1167 5.14517ZM6.6505 4.50695H8.58667V5.13614H6.6505V4.50695ZM9.22574 11.4894H6.01143L5.40203 5.66111H9.83508L9.22574 11.4894Z" fill="#E41D1D"/>
<path d="M7.62049 10.8957C7.68562 10.8957 7.74805 10.869 7.79411 10.8215C7.84017 10.7739 7.866 10.7095 7.866 10.6422V6.50742C7.866 6.41683 7.81924 6.33316 7.74328 6.2879C7.66731 6.24257 7.57369 6.24257 7.49772 6.2879C7.42176 6.33317 7.375 6.41683 7.375 6.50742V10.6422C7.375 10.7095 7.40083 10.7739 7.44688 10.8215C7.49294 10.869 7.55538 10.8957 7.6205 10.8957H7.62049Z" fill="#E41D1D"/>
<path d="M6.65149 10.8944H6.66192C6.72675 10.8917 6.78785 10.8625 6.83193 10.8133C6.87594 10.7641 6.89938 10.6989 6.89699 10.632L6.74897 6.49719L6.74903 6.49713C6.74768 6.42941 6.71964 6.36512 6.67131 6.31926C6.62292 6.27345 6.55856 6.25004 6.49304 6.25443C6.42821 6.25726 6.36711 6.28645 6.32309 6.33563C6.27902 6.38481 6.25564 6.45 6.25797 6.51694L6.40599 10.6517C6.40908 10.7169 6.43625 10.7784 6.48196 10.8236C6.52761 10.8687 6.58829 10.8941 6.65149 10.8944L6.65149 10.8944Z" fill="#E41D1D"/>
<path d="M8.57697 10.8951H8.58566C8.65037 10.8966 8.71304 10.8718 8.76026 10.8261C8.80743 10.7803 8.83541 10.7173 8.83815 10.6506L8.98617 6.51575H8.98612C8.98851 6.44881 8.96507 6.38362 8.92105 6.33444C8.87698 6.28526 8.81588 6.25607 8.75105 6.25324C8.68476 6.2462 8.61865 6.26829 8.56892 6.31415C8.51919 6.35996 8.49051 6.42533 8.48987 6.4942L8.3401 10.629H8.34016C8.33683 10.6968 8.36004 10.7632 8.40458 10.8133C8.44906 10.8633 8.51121 10.8928 8.57697 10.8951L8.57697 10.8951Z" fill="#E41D1D"/>
</svg>
