<svg width="18" height="16" viewBox="0 0 18 16" fill="none" xmlns="http://www.w3.org/2000/svg">
<path d="M5.625 0.125C5.02826 0.125 4.45597 0.362053 4.03401 0.78401C3.61205 1.20597 3.375 1.77826 3.375 2.375V4.625H2.25C1.65326 4.625 1.08097 4.86205 0.65901 5.28401C0.237053 5.70597 0 6.27826 0 6.875L0 10.25C0 10.8467 0.237053 11.419 0.65901 11.841C1.08097 12.2629 1.65326 12.5 2.25 12.5H3.375V13.625C3.375 14.2217 3.61205 14.794 4.03401 15.216C4.45597 15.6379 5.02826 15.875 5.625 15.875H12.375C12.9717 15.875 13.544 15.6379 13.966 15.216C14.3879 14.794 14.625 14.2217 14.625 13.625V12.5H15.75C16.3467 12.5 16.919 12.2629 17.341 11.841C17.7629 11.419 18 10.8467 18 10.25V6.875C18 6.27826 17.7629 5.70597 17.341 5.28401C16.919 4.86205 16.3467 4.625 15.75 4.625H14.625V2.375C14.625 1.77826 14.3879 1.20597 13.966 0.78401C13.544 0.362053 12.9717 0.125 12.375 0.125H5.625ZM4.5 2.375C4.5 2.07663 4.61853 1.79048 4.8295 1.5795C5.04048 1.36853 5.32663 1.25 5.625 1.25H12.375C12.6734 1.25 12.9595 1.36853 13.1705 1.5795C13.3815 1.79048 13.5 2.07663 13.5 2.375V4.625H4.5V2.375ZM5.625 8C5.02826 8 4.45597 8.23705 4.03401 8.65901C3.61205 9.08097 3.375 9.65326 3.375 10.25V11.375H2.25C1.95163 11.375 1.66548 11.2565 1.4545 11.0455C1.24353 10.8345 1.125 10.5484 1.125 10.25V6.875C1.125 6.57663 1.24353 6.29048 1.4545 6.0795C1.66548 5.86853 1.95163 5.75 2.25 5.75H15.75C16.0484 5.75 16.3345 5.86853 16.5455 6.0795C16.7565 6.29048 16.875 6.57663 16.875 6.875V10.25C16.875 10.5484 16.7565 10.8345 16.5455 11.0455C16.3345 11.2565 16.0484 11.375 15.75 11.375H14.625V10.25C14.625 9.65326 14.3879 9.08097 13.966 8.65901C13.544 8.23705 12.9717 8 12.375 8H5.625ZM13.5 10.25V13.625C13.5 13.9234 13.3815 14.2095 13.1705 14.4205C12.9595 14.6315 12.6734 14.75 12.375 14.75H5.625C5.32663 14.75 5.04048 14.6315 4.8295 14.4205C4.61853 14.2095 4.5 13.9234 4.5 13.625V10.25C4.5 9.95163 4.61853 9.66548 4.8295 9.4545C5.04048 9.24353 5.32663 9.125 5.625 9.125H12.375C12.6734 9.125 12.9595 9.24353 13.1705 9.4545C13.3815 9.66548 13.5 9.95163 13.5 10.25Z" fill="#597F59"/>
</svg>
