<svg width="91" height="38" viewBox="0 0 91 38" fill="none" xmlns="http://www.w3.org/2000/svg">
<rect width="91" height="38" rx="7" fill="#597F59"/>
<g clip-path="url(#clip0_647_1910)">
<path d="M18.5 19C18.6326 19 18.7598 18.9473 18.8536 18.8536C18.9473 18.7598 19 18.6326 19 18.5C19 18.3674 18.9473 18.2402 18.8536 18.1464C18.7598 18.0527 18.6326 18 18.5 18C18.3674 18 18.2402 18.0527 18.1464 18.1464C18.0527 18.2402 18 18.3674 18 18.5C18 18.6326 18.0527 18.7598 18.1464 18.8536C18.2402 18.9473 18.3674 19 18.5 19Z" fill="white"/>
<path d="M21 12C20.4696 12 19.9609 12.2107 19.5858 12.5858C19.2107 12.9609 19 13.4696 19 14V16H18C17.4696 16 16.9609 16.2107 16.5858 16.5858C16.2107 16.9609 16 17.4696 16 18V21C16 21.5304 16.2107 22.0391 16.5858 22.4142C16.9609 22.7893 17.4696 23 18 23H19V24C19 24.5304 19.2107 25.0391 19.5858 25.4142C19.9609 25.7893 20.4696 26 21 26H27C27.5304 26 28.0391 25.7893 28.4142 25.4142C28.7893 25.0391 29 24.5304 29 24V23H30C30.5304 23 31.0391 22.7893 31.4142 22.4142C31.7893 22.0391 32 21.5304 32 21V18C32 17.4696 31.7893 16.9609 31.4142 16.5858C31.0391 16.2107 30.5304 16 30 16H29V14C29 13.4696 28.7893 12.9609 28.4142 12.5858C28.0391 12.2107 27.5304 12 27 12H21ZM20 14C20 13.7348 20.1054 13.4804 20.2929 13.2929C20.4804 13.1054 20.7348 13 21 13H27C27.2652 13 27.5196 13.1054 27.7071 13.2929C27.8946 13.4804 28 13.7348 28 14V16H20V14ZM21 19C20.4696 19 19.9609 19.2107 19.5858 19.5858C19.2107 19.9609 19 20.4696 19 21V22H18C17.7348 22 17.4804 21.8946 17.2929 21.7071C17.1054 21.5196 17 21.2652 17 21V18C17 17.7348 17.1054 17.4804 17.2929 17.2929C17.4804 17.1054 17.7348 17 18 17H30C30.2652 17 30.5196 17.1054 30.7071 17.2929C30.8946 17.4804 31 17.7348 31 18V21C31 21.2652 30.8946 21.5196 30.7071 21.7071C30.5196 21.8946 30.2652 22 30 22H29V21C29 20.4696 28.7893 19.9609 28.4142 19.5858C28.0391 19.2107 27.5304 19 27 19H21ZM28 21V24C28 24.2652 27.8946 24.5196 27.7071 24.7071C27.5196 24.8946 27.2652 25 27 25H21C20.7348 25 20.4804 24.8946 20.2929 24.7071C20.1054 24.5196 20 24.2652 20 24V21C20 20.7348 20.1054 20.4804 20.2929 20.2929C20.4804 20.1054 20.7348 20 21 20H27C27.2652 20 27.5196 20.1054 27.7071 20.2929C27.8946 20.4804 28 20.7348 28 21Z" fill="white"/>
</g>
<path d="M44.4233 24V13.8182H48.0526C48.8447 13.8182 49.5009 13.9624 50.0213 14.2507C50.5417 14.5391 50.9311 14.9335 51.1896 15.4339C51.4482 15.9311 51.5774 16.4912 51.5774 17.1143C51.5774 17.7408 51.4465 18.3042 51.1847 18.8047C50.9261 19.3018 50.535 19.6963 50.0114 19.9879C49.491 20.2763 48.8364 20.4205 48.0476 20.4205H45.5518V19.1179H47.9084C48.4089 19.1179 48.8149 19.0317 49.1264 18.8594C49.438 18.6837 49.6667 18.4451 49.8125 18.1435C49.9583 17.8419 50.0312 17.4988 50.0312 17.1143C50.0312 16.7299 49.9583 16.3885 49.8125 16.0902C49.6667 15.7919 49.4363 15.5582 49.1214 15.3892C48.8099 15.2202 48.3989 15.1357 47.8885 15.1357H45.9595V24H44.4233ZM53.2591 24V16.3636H54.6958V17.5767H54.7754C54.9146 17.1657 55.1599 16.8426 55.5112 16.6072C55.8658 16.3686 56.2669 16.2493 56.7143 16.2493C56.8071 16.2493 56.9165 16.2526 57.0424 16.2592C57.1717 16.2659 57.2728 16.2741 57.3457 16.2841V17.706C57.286 17.6894 57.18 17.6712 57.0275 17.6513C56.8751 17.6281 56.7226 17.6165 56.5701 17.6165C56.2188 17.6165 55.9056 17.6911 55.6305 17.8402C55.3587 17.986 55.1433 18.1899 54.9842 18.4517C54.8251 18.7102 54.7456 19.0052 54.7456 19.3366V24H53.2591ZM58.6321 24V16.3636H60.1186V24H58.6321ZM59.3828 15.1854C59.1243 15.1854 58.9022 15.0992 58.7166 14.9268C58.5343 14.7512 58.4432 14.5424 58.4432 14.3004C58.4432 14.0552 58.5343 13.8464 58.7166 13.674C58.9022 13.4983 59.1243 13.4105 59.3828 13.4105C59.6413 13.4105 59.8617 13.4983 60.044 13.674C60.2296 13.8464 60.3224 14.0552 60.3224 14.3004C60.3224 14.5424 60.2296 14.7512 60.044 14.9268C59.8617 15.0992 59.6413 15.1854 59.3828 15.1854ZM63.6049 19.4659V24H62.1184V16.3636H63.5453V17.6065H63.6397C63.8154 17.2022 64.0905 16.8774 64.465 16.6321C64.8429 16.3868 65.3185 16.2642 65.8919 16.2642C66.4122 16.2642 66.868 16.3736 67.2591 16.5923C67.6502 16.8078 67.9534 17.1293 68.1689 17.5568C68.3843 17.9844 68.492 18.513 68.492 19.1428V24H67.0055V19.3217C67.0055 18.7682 66.8613 18.3357 66.573 18.0241C66.2846 17.7093 65.8886 17.5518 65.3848 17.5518C65.0401 17.5518 64.7335 17.6264 64.465 17.7756C64.1999 17.9247 63.9894 18.1435 63.8336 18.4318C63.6812 18.7169 63.6049 19.0616 63.6049 19.4659ZM74.0502 16.3636V17.5568H69.8791V16.3636H74.0502ZM70.9977 14.5341H72.4842V21.7578C72.4842 22.0462 72.5273 22.2633 72.6135 22.4091C72.6996 22.5516 72.8107 22.6494 72.9466 22.7024C73.0858 22.7521 73.2366 22.777 73.399 22.777C73.5183 22.777 73.6227 22.7687 73.7122 22.7521C73.8017 22.7356 73.8713 22.7223 73.921 22.7124L74.1895 23.9403C74.1033 23.9735 73.9806 24.0066 73.8216 24.0398C73.6625 24.0762 73.4636 24.0961 73.225 24.0994C72.8339 24.1061 72.4693 24.0365 72.1312 23.8906C71.7931 23.7448 71.5197 23.5194 71.3109 23.2145C71.1021 22.9096 70.9977 22.5268 70.9977 22.0661V14.5341Z" fill="white"/>
<defs>
<clipPath id="clip0_647_1910">
<rect width="16" height="16" fill="white" transform="translate(16 11)"/>
</clipPath>
</defs>
</svg>
