<svg width="20" height="18" viewBox="0 0 20 18" fill="none" xmlns="http://www.w3.org/2000/svg">
<path d="M11.2271 0.959271C11.1034 0.743726 10.925 0.564645 10.7099 0.440112C10.4948 0.315578 10.2507 0.25 10.0021 0.25C9.75359 0.25 9.50945 0.315578 9.29437 0.440112C9.07928 0.564645 8.90086 0.743726 8.77713 0.959271L0.205877 15.543C-0.365373 16.5155 0.319627 17.7518 1.43088 17.7518H18.5721C19.6834 17.7518 20.3696 16.5143 19.7971 15.543L11.2271 0.959271ZM9.99963 5.25177C10.6684 5.25177 11.1921 5.82927 11.1246 6.49552L10.6871 10.8793C10.6724 11.0515 10.5936 11.2119 10.4663 11.3288C10.339 11.4457 10.1725 11.5106 9.99963 11.5106C9.82679 11.5106 9.66024 11.4457 9.53293 11.3288C9.40563 11.2119 9.32683 11.0515 9.31213 10.8793L8.87463 6.49552C8.85892 6.33831 8.87631 6.17956 8.92568 6.02948C8.97506 5.8794 9.05532 5.74133 9.16131 5.62416C9.26729 5.50699 9.39664 5.41332 9.54103 5.34918C9.68542 5.28504 9.84164 5.25186 9.99963 5.25177ZM10.0021 12.7518C10.3336 12.7518 10.6516 12.8835 10.886 13.1179C11.1204 13.3523 11.2521 13.6702 11.2521 14.0018C11.2521 14.3333 11.1204 14.6512 10.886 14.8857C10.6516 15.1201 10.3336 15.2518 10.0021 15.2518C9.67061 15.2518 9.35266 15.1201 9.11825 14.8857C8.88382 14.6512 8.75213 14.3333 8.75213 14.0018C8.75213 13.6702 8.88382 13.3523 9.11825 13.1179C9.35266 12.8835 9.67061 12.7518 10.0021 12.7518Z" fill="#EB8600"/>
</svg>
